<svg xmlns="http://www.w3.org/2000/svg" width="384.031" height="190.672" viewBox="0 0 384.031 190.672"><g transform="translate(-639.697 -1489)"><path d="M3735.911,1419.443c0,7.279,85.968,13.18,192.016,13.18s192.015-5.9,192.015-13.18-85.968-13.181-192.015-13.181S3735.911,1412.164,3735.911,1419.443Z" transform="translate(-3096.214 244)" fill="#d6dfdd"/><g transform="translate(698.294 1540.724)"><path d="M5611.4,1072.489s-.776,1.77-1.519,1.548a6.666,6.666,0,0,0-2.192-.119c-.462.051-1.969-.3-1.881.26s2.46.7,2.955.818-1.286,1.383-1.411,1.867,2.364,3.292,3.476,2.287,1.572-2.813,1.806-2.951a13.888,13.888,0,0,0,1.255-1.578Z" transform="translate(-5604.356 -1020.101)" fill="#eea886"/><path d="M5626.846,1095.872s-3.18,3.3-3.19,3.7.194.561.506.265,3.173-3.1,3.173-3.1-3.047,4.546-3.131,4.868c-.05.188.33.525.513.382s3.479-4.472,3.479-4.472-2.836,4.25-2.82,4.543a.383.383,0,0,0,.671.185c.233-.3,3.106-4.092,3.106-4.092s-1.855,3.227-1.691,3.474c.1.151.415.457.866-.392s1.739-2.732,1.739-2.732Z" transform="translate(-5623.655 -1039.404)" fill="#eea886"/><g transform="translate(42.22 114.456)"><path d="M5374.233,1428.236s1.218.87,1.893,1.479a6.359,6.359,0,0,1,2.158,2.828,1.945,1.945,0,0,1-1.852,2.8c-1.524.093-3.86-1.058-4.087-2.453s-2.016-1.219-2.249-2.2a5.371,5.371,0,0,1,.078-2.193Z" transform="translate(-5370.009 -1428.236)" fill="#353a3d"/></g><g transform="translate(42.385 113.314)"><path d="M5398.071,1421.687l.2,1.143s-.627,1.161-4.058.258l.177-1.126Z" transform="translate(-5394.216 -1421.687)" fill="#81807e"/></g><path d="M5394.216,1428.367s.772.1,1.323.188,1.641-.617,2.735-.446l-.336,1.389S5394.292,1428.816,5394.216,1428.367Z" transform="translate(-5351.831 -1313.653)" fill="#353a3d"/><g transform="translate(20.305 114.228)"><path d="M5499.833,1426.928s-1.219.87-1.894,1.479a6.359,6.359,0,0,0-2.157,2.828,1.945,1.945,0,0,0,1.852,2.8c1.524.093,3.859-1.058,4.087-2.453s2.016-1.219,2.249-2.2a5.362,5.362,0,0,0-.078-2.193Z" transform="translate(-5495.609 -1426.928)" fill="#353a3d"/></g><g transform="translate(24.529 113.086)"><path d="M5496.759,1420.381l-.2,1.142s.627,1.162,4.059.258l-.177-1.126Z" transform="translate(-5496.556 -1420.381)" fill="#81807e"/></g><g transform="translate(22.438 50.643)"><path d="M5390.822,1098.936c0,2.511.359,26.2.359,26.2.251.837,4.942,1.111,5.78.693s.69-23.912.845-26.444,2.19-21.161,2.924-21.077,4.883,17.631,5.469,19.557,2.893,27.83,2.893,27.83a10.5,10.5,0,0,0,5.789.12s-1.094-26.236-1.1-29.351c0-1.156-.341-2.031-.668-8.178-.25-4.685-1.554-14.287-2.426-20.893-.031-.235-.06-.461-.089-.677-.171-1.286-.3-2.23-.361-2.684l-.041-.3q-.353-.163-.737-.3c-6.131-2.2-17.955.129-17.955.129s-.006.058-.02.167c-.016.133-.041.341-.072.61-.068.583-.17,1.45-.286,2.457,0,.007,0,.014,0,.022,0,.03-.007.061-.01.092-.413,3.582-.617,5.55-.941,9.374C5390.1,1077.124,5390.822,1096.425,5390.822,1098.936Z" transform="translate(-5390.169 -1062.488)" fill="#292c47"/></g><g transform="translate(5.463 17.853)"><path d="M5380.867,874.655s-10.04,2.132-10.876,4.922-2.462,9.343-4.724,16.47c-1.352,4.264-8.225,13.975-8.225,13.975s3.932,2.9,3.932,2.508,9.26-12.747,9.373-14.254,2.917-9.212,2.917-9.212,1.329,14.814,1.329,17.1-.577,9.32-.577,9.32,4.038,3.353,11.262,2.976c0,0,10.207.043,10.065-3.971-.124-3.538-1-24.731-.772-24.843s4.232,4.909,3.841,5.876-10.763,4.433-10.763,4.433-.3,1.117,1.308,3.648c0,0,15.495-4.528,15.551-5.476s-6.445-19.372-8.568-20.337c-3.057-1.388-11.154-3.241-11.154-3.241Z" transform="translate(-5357.042 -874.55)" fill="#f54242"/></g><path d="M5500.614,1427.059s-.773.1-1.324.188-1.641-.617-2.735-.446l.337,1.39S5500.538,1427.508,5500.614,1427.059Z" transform="translate(-5472.027 -1312.573)" fill="#353a3d"/><g transform="translate(28.932 11.779)"><path d="M5456.33,846.148c.049,2.452,5.679,5.034,5.679,5.034s1.368-4.583.894-4.822c-.187-.094-.246-.151-.269-.568a8.761,8.761,0,0,1,.027-1.112c.014-.174.027-.285.027-.285s-.678-.716-1.541-1.568c-1.509-1.491-3.667-3.7-3.671-2.939,0,.04-.058.061-.046.116C5457.8,841.714,5456.33,846.148,5456.33,846.148Z" transform="translate(-5456.33 -839.732)" fill="#eea886"/></g><g transform="translate(31.042 14.062)"><path d="M5455.585,852.819h0c.01.014.211.316.555.748a9.957,9.957,0,0,0,3.64,3.028,8.582,8.582,0,0,1,.027-1.112,2.475,2.475,0,0,0,.472-.057,14.723,14.723,0,0,0-1.032-1.512l-.953-.285Z" transform="translate(-5455.585 -852.819)" fill="#a77860"/></g><g transform="translate(28.514 4.022)"><path d="M5438.849,803.518c.411.894.8,1.541.912,1.8h0a3.145,3.145,0,0,0,.554.748,5.478,5.478,0,0,0,3.667,1.916,2.5,2.5,0,0,0,.472-.057,2.241,2.241,0,0,0,1.633-1.129,12.843,12.843,0,0,0,.818-10.543s-8.1-2.291-9.367.148C5436.65,798.11,5437.884,801.419,5438.849,803.518Z" transform="translate(-5437.232 -795.277)" fill="#eea886"/></g><g transform="translate(27.3 0)"><path d="M5446.966,777.22s.752-.042.938-1.468c.184-1.409-1.636-2.379-1.636-2.379a10.3,10.3,0,0,0-3.1-1c-1.2-.168-4.153-.357-4.846.435,0,0-1.681-.391-2.139,2.4-.727,4.429,2.476,8.729,2.476,8.729s-.027-2.893.611-3.277,1.188.528,1.188.528l1.306.234s-1.85-3.576.528-3.734A37.612,37.612,0,0,0,5446.966,777.22Z" transform="translate(-5436.08 -772.222)" fill="#223247"/></g><g transform="translate(29.366 6.591)"><path d="M5481.056,811.218c-.125-1.275-2.43-1.761-2.275-.425s1.29,2.62,1.814,2.575S5481.15,812.19,5481.056,811.218Z" transform="translate(-5478.773 -809.997)" fill="#eea886"/></g><g transform="translate(30.906 31.646)"><path d="M5390.169,956.123l3.773,19.429,12.47-2.422-3.286-19.523Z" transform="translate(-5390.169 -953.606)" fill="#616161"/><path d="M5395.22,962.877l3.352,17.255,11.075-2.151-2.919-17.339Z" transform="translate(-5394.285 -959.415)" fill="#e0cec7"/><path d="M5431.352,962.249l-.235-1.211,4.477-.87.411,1.177Z" transform="translate(-5426.906 -959.023)" fill="#616161"/></g><path d="M5470.657,1018.932s-.953-.026-1.245-.068-.1.578.239.7S5470.657,1018.932,5470.657,1018.932Z" transform="translate(-5437.309 -975.829)" fill="#c98462"/><path d="M5446.84,1023.47a1.953,1.953,0,0,0,.62.056s.364-.11.628-.172a1.878,1.878,0,0,1,.206-.039,3.569,3.569,0,0,0,1.125-.189c.471-.184,2.072-1,2.072-1l-.458-1.488-.345-1.179a16.778,16.778,0,0,0-3.165-.6,1.182,1.182,0,0,0-.128.042,4.5,4.5,0,0,0-.793.5c-.07.036-.74.438-.775.669a.763.763,0,0,0,.212.711,1.819,1.819,0,0,0,.167.989,1.132,1.132,0,0,0,.336.943S5446.525,1023.307,5446.84,1023.47Z" transform="translate(-5414.049 -975.814)" fill="#eea886"/><path d="M5372.092,936.628a11.379,11.379,0,0,0,1.946,4.465s10.741-4.367,12.1-4.9-4.924-17.22-4.924-17.22l-4.621,1.573,2.482,4.694s1.229,2.63,3.785,6.955C5382.856,932.2,5381.283,933.689,5372.092,936.628Z" transform="translate(-5336.022 -893.369)" fill="#f54242"/><path d="M5495.089,936.34s.283,5.2-2.315,5.2-2.363-4.678-2.411-5.2Z" transform="translate(-5465.431 -907.706)" fill="#f54242"/><path d="M5496.948,932.607h-3.881v-.789Z" transform="translate(-5467.751 -903.973)" fill="#fff"/></g><g transform="translate(821.752 1540.107)"><g transform="translate(41.399 27.938)"><path d="M4835.49,959.906l-2.639,4.16-2.437,3.84c.005-.021.168-.6.443-2.286.052-.32.108-.679.168-1.082a2.877,2.877,0,0,1,.077-.354h0c1.043-2.4,4.267-4.217,4.385-4.277Z" transform="translate(-4830.414 -959.906)" fill="#eddad3"/></g><g transform="translate(41.843 27.94)"><path d="M4830.688,964.164h0a5.42,5.42,0,0,0-.256,1.464l.955-1.441s1.705-2.445,2.289-3.08a9.652,9.652,0,0,1,1.386-1.192S4831.707,961.528,4830.688,964.164Z" transform="translate(-4830.431 -959.916)" fill="#ffca55"/></g><g transform="translate(15.974 0)"><path d="M4726.751,1412.648a9.694,9.694,0,0,1-2.7,3.977c-1.691,1.183-3.44,2.875-2.979,4.058s6.114.556,8.479-2.879c1.494-2.171,3.012-2.655,3.008-3.683s-1.737-3.083-1.828-3.374C4730.615,1410.388,4726.751,1412.648,4726.751,1412.648Z" transform="translate(-4682.964 -1304.118)" fill="#353a3d"/><path d="M4731.33,1405.984a10.3,10.3,0,0,0,.418,1.012c.044.005,4.365-1.152,3.977-1.9a6.842,6.842,0,0,0-.9-1.233Z" transform="translate(-4687.962 -1298.466)" fill="#81807e"/><g transform="translate(51.639 57.404)"><path d="M4696.5,1131.968s-1.249-2.965-2.217-3.151-.173.587-.173.587,1.229,2.038,1.645,2.892A4.844,4.844,0,0,0,4696.5,1131.968Z" transform="translate(-4693.802 -1128.789)" fill="#434343"/></g><g transform="translate(48.211 52.237)"><path d="M4700.352,1102.021a23.574,23.574,0,0,1,.31,2.891c.053,1.454-.178,2.006.252,2.7.325.522,1.117.72,1.213.481s-.6-2.467.311-2.78.693,2.822,1.165,2.43,2.156-2.276,1.631-3.339-1.644-1.568-2.178-3.243a3.775,3.775,0,0,0-1.174-1.982Z" transform="translate(-4700.352 -1099.176)" fill="#eea886"/></g><g transform="translate(49.788 58.236)"><path d="M4708.2,1133.632s-1.1.74.423,4.822l1.293-.717a15.006,15.006,0,0,1-.857-3.643S4708.708,1133.315,4708.2,1133.632Z" transform="translate(-4707.817 -1133.556)" fill="#545554"/></g><g transform="translate(47.028 58.61)"><path d="M4653.9,1142.534l9.629-6.831,4.641,13.2-8.391,10.161Z" transform="translate(-4653.897 -1135.703)" fill="#545554"/></g><path d="M4733.27,1135.388v25.906c2.652-8.047,8.444-25.445,9.84-28.292,1.214-2.491,12.234-16.868,13.044-15.842s5.325,13.078,5.925,16.044,14.1,24.984,14.1,24.984.237-.049.6-.146a7.432,7.432,0,0,0,3.657-2.135,2.821,2.821,0,0,0,.279-.433s-9.924-21.544-10.859-25.62c-.328-1.424-.7-8.381-2-15.64a60.534,60.534,0,0,0-2.408-9.478c-.412-1.137-1.612-1.612-3.217-1.661-.273-.014-.559-.007-.852.007-.489.028-1,.084-1.542.16a31.517,31.517,0,0,0-3.839.866c-1.1.321-2.2.677-3.23,1.04-1.193.426-2.3.859-3.21,1.228-.3.119-.58.237-.837.342-.286.119-.537.23-.754.321-.572.251-.907.4-.907.4s-1.738,3.092-3.894,7.021c-2.966,5.4-6.728,12.367-7.879,15.046A50.552,50.552,0,0,0,4733.27,1135.388Z" transform="translate(-4733.27 -1050.152)" fill="#353a3d"/><path d="M4713.345,931.186l-4.076,4.557v7.544c2.917-2.771,6.351-6.309,7.629-7.433a2.262,2.262,0,0,1,.46-.349,3.566,3.566,0,0,0,.907-1.207c.112-.188.237-.4.363-.628.188-.342.384-.712.585-1.1.133-.258.272-.523.413-.8s.271-.551.412-.824c.272-.552.544-1.1.788-1.619.189-.391.363-.761.523-1.1.1-.23.21-.44.3-.635s.174-.37.244-.531c.175-.377.286-.621.314-.677a18.454,18.454,0,0,0,.035,3.231,15.65,15.65,0,0,0,.419,2.429,18.8,18.8,0,0,1,.432,3.762v.042c0,.035.008.063.008.1v.042c.07,2.568-.1,5.339-.182,6.811a5.386,5.386,0,0,0,.664,3.343s.1-.014.292-.042l.5-.07.572-.077.774-.112,3.009-.419,1.1-.154.251-.035,1.905-.272,3.845-.537,1.535-.216.831-.119,2.024-.286.907-.133h.014s.782-5.52.837-8.5c.056-2.785,1.571-8.486,1.773-9.233a.222.222,0,0,0,.014-.056v-.007c0-.007,0-.007.006-.007v-.014s4.39,4.613,5.241,6.623c.209.5.768,1.675,1.515,3.183.014.035.028.07.042.1,2.024,4.1,5.346,10.5,6.63,12,.154.2.286.307.376.321a.693.693,0,0,0,.126.014c.8.007,2.149-1.11,2.813-1.71.244-.216.391-.363.391-.363s-.056-.133-.167-.37c-.935-2.143-5.673-12.918-6.867-15.451-.112-.237-.2-.4-.237-.482a.994.994,0,0,1-.07-.133c-.893-1.724-6.965-14.921-7.893-15.584a5.08,5.08,0,0,0-.489-.286,1.888,1.888,0,0,1-.237-.119.128.128,0,0,1-.035-.014c-.153-.07-.314-.147-.5-.23-.056-.028-.119-.056-.181-.084-.126-.056-.251-.111-.384-.174-.732-.321-1.6-.684-2.436-1.026-.237-.1-.467-.188-.684-.272-.328-.133-.649-.251-.942-.363-.042-.014-.077-.028-.112-.042a14.188,14.188,0,0,0-1.884-.642h-.126c-.062,0-.146.007-.245.014-1.214.07-4.835.4-6,.516-.237.021-.37.035-.37.035s-.558.258-1.4.635l-.007.007-.069.028c-.489.223-1.062.489-1.668.768-1.271.586-2.708,1.256-3.845,1.794-1.089.523-2.736,1.41-2.861,1.507Z" transform="translate(-4709.269 -891.39)" fill="#decbc4"/><path d="M4821.3,1101.95a5,5,0,0,0-.521,2.532s16.63-1.94,18.388-2.7c0,0,.069-2.258-.3-2.3C4838.451,1099.437,4821.3,1101.95,4821.3,1101.95Z" transform="translate(-4806.987 -1047.19)" fill="#495055"/><path d="M4848.716,879.319c-.052,2.61-5.105,4.037-5.105,4.037s-2.113-2.65-1.608-2.9c.2-.1.279-.5.3-.939a9.3,9.3,0,0,0-.029-1.184c-.015-.185-.029-.3-.029-.3s.722-.762,1.64-1.669c1.606-1.587,3.813-3.62,3.815-2.811a.74.74,0,0,1-.018.153C4847.3,875.52,4848.716,879.319,4848.716,879.319Z" transform="translate(-4820.224 -860.524)" fill="#eea886"/><path d="M4837.658,1101.325s.362,2.289.394,2.885l.77-.153s-.211-2.422-.336-2.828Z" transform="translate(-4809.584 -1048.634)" fill="#5d676c"/><path d="M4911.109,1111.588s-.292,2.081-.3,2.866l.814-.106s.167-2.6.26-2.869Z" transform="translate(-4895.411 -1057.095)" fill="#353a3d"/><path d="M4858.073,885.583h0c-.01.015-.225.336-.59.8a10.58,10.58,0,0,1-3.874,3.223,9.316,9.316,0,0,0-.028-1.184,2.621,2.621,0,0,1-.5-.061,15.528,15.528,0,0,1,1.1-1.609l1.014-.3Z" transform="translate(-4831.527 -870.612)" fill="#a77860"/><path d="M4847.03,833.117c-.438.951-.853,1.64-.97,1.913h0a3.374,3.374,0,0,1-.59.8,5.826,5.826,0,0,1-3.9,2.039,2.63,2.63,0,0,1-.5-.06,2.387,2.387,0,0,1-1.739-1.2,13.666,13.666,0,0,1-.87-11.219s8.62-2.438,9.968.157C4849.371,827.362,4848.057,830.882,4847.03,833.117Z" transform="translate(-4819.513 -820.059)" fill="#eea886"/><path d="M4831.309,805.1s-.8-.044-1-1.562c-.2-1.5.2-1.915.2-1.915a35.63,35.63,0,0,1,4.838-1.683c1.277-.194,4.42-.38,5.157.462,0,0,1.789-.416,2.276,2.555.773,4.713-2.635,9.29-2.635,9.29s.029-3.079-.65-3.487-1.265.563-1.265.563l-1.389.249s2.109-4.555-.421-4.724S4832.758,805.365,4831.309,805.1Z" transform="translate(-4812.366 -799.775)" fill="#252e3b"/><path d="M4842.9,841.312c.132-1.357,2.585-1.874,2.421-.453s-1.373,2.788-1.931,2.74S4842.8,842.346,4842.9,841.312Z" transform="translate(-4816.996 -832.992)" fill="#eea886"/><path d="M4725.271,935.512c.963,1.961,6.979,15.069,8.033,15.263s3.864-2.235,3.864-2.235-6.712-14.8-7.275-15.79-7-15.034-7.96-15.719a40.348,40.348,0,0,0-4.944-2.2c-.368-.145-.723-.283-1.052-.408-.426.474-7.273,8.213-6.63,15.073.193,2.061.453,5.422,1.023,8.962.591,3.677,1.543,7.835,2.16,10.972a57.5,57.5,0,0,0,3.571,11.083l6.412-3.209a2.232,2.232,0,0,0,1.1-2.746c-1.442-4.039-4.323-12.2-4.325-15.743,0,0,.228-8,.78-9.91C4720.031,928.9,4724.167,933.264,4725.271,935.512Z" transform="translate(-4685.53 -894.419)" fill="#3c4145"/><path d="M4888.588,941.435v7.956c2.854-2.785,6.343-6.518,7.627-7.691a2.288,2.288,0,0,1,.461-.349,3.56,3.56,0,0,0,.907-1.207c.119-.188.237-.4.363-.628.188-.342.384-.712.586-1.1.132-.258.272-.523.412-.8s.272-.551.412-.824c.272-.551.544-1.1.788-1.619.188-.391.37-.761.524-1.1.1-.23.209-.44.3-.635s.174-.37.244-.53c.175-.377.287-.621.314-.677a7.885,7.885,0,0,0,.035,3.231c.342,1.947,1.019,4,.851,6.19v.042c-.53,6.651-3.329,16.066-4.159,18.731a1.179,1.179,0,0,0,.23,1.117.669.669,0,0,0,.111.133l2,1.842s1.73-5.332,2.624-9.094c.021-.1.048-.209.07-.307a20.3,20.3,0,0,0,.412-2.24v-.007c.161-1.494.481-3.238.83-5.095s.7-3.831.915-5.779c.558-4.941,1.13-9.84,1.542-12.716.133-.935.265-1.8.391-2.6a68.232,68.232,0,0,1,1.563-7.823l-.042-.035c-.488.223-1.061.489-1.668.768-1.27.586-2.708,1.256-3.845,1.794-1.089.523-2.736,1.41-2.862,1.507l-7.859,15.13Z" transform="translate(-4888.587 -897.234)" fill="#3c4145"/><path d="M4830.193,920.9l-2.458,1.386,1.05,1.071-2.8,15.1c-.57-3.539-.83-6.9-1.023-8.962-.643-6.86,6.2-14.6,6.63-15.073.329.125.684.263,1.052.408Z" transform="translate(-4801.189 -894.419)" fill="#51565c"/><path d="M4892.488,917.642a79.53,79.53,0,0,0-1.989,10.488c-.411,2.876-.986,7.772-1.54,12.714l-.572-14.141,1.17-1.269-1.041-1.3,2.228-5.688c.608-.281,1.181-.544,1.666-.767Z" transform="translate(-4872.103 -897.078)" fill="#51565c"/><path d="M4750.964,916.758c2.008.791,5,1.82,5.55,2.217.956.685,6.791,14.711,7.354,15.705Z" transform="translate(-4719.505 -896.348)" fill="#3c4145"/><path d="M4647.5,1157.856l1.429-.228,8.079-10.117-4.847-13.267-.912.255Z" transform="translate(-4594.591 -1075.888)" fill="#545554"/><path d="M4837.386,908.738l-2.038-1.238s-.057,1.118-5.1,4.038l1.434,4.038Z" transform="translate(-4806.856 -888.705)" fill="#f5e2d9"/><path d="M4872.842,910.727a9.491,9.491,0,0,0,1.343,3.474l-2.8,3.647-.2-5.915Z" transform="translate(-4850.797 -891.369)" fill="#f5e2d9"/><path d="M4870.612,930.641a9.516,9.516,0,0,1,.347,2.776,2.645,2.645,0,0,1-2.049-.109A9.528,9.528,0,0,1,4870.612,930.641Z" transform="translate(-4847.216 -907.809)" fill="#464157"/><g transform="translate(20.454 47.801)"><path d="M4885.867,1080.062a41.064,41.064,0,0,1,0-6.31l.26.016a41.93,41.93,0,0,0,0,6.243Z" transform="translate(-4885.729 -1073.752)" fill="#ad9f99"/></g><path d="M4877.982,1105.873s-2.446.292-3.256.494l.107,2.743,3.2-.342Z" transform="translate(-4855.268 -1052.468)" fill="#69737a"/><path d="M4870.439,943.375a55.188,55.188,0,0,0-2.713,14.5c-.3,7.721.513,9.716.513,9.716l3.015,2.713,1.009-3.526a45.89,45.89,0,0,1-1.264-18.5c.264-1.8.657-5.205.657-5.205Z" transform="translate(-4848.26 -918.07)" fill="#464157"/></g><g transform="translate(0 0.359)"><g transform="translate(2.879 50.933)"><path d="M5028.325,1093.757s-.98,1.428-1.494,1.476a10.767,10.767,0,0,0-1.686.636c-.449.131-1.814.055-2.213.354-.163.123-.855,1.27-1.214,1.483s-1.143.556-.942.861.991.19.991.19a.521.521,0,0,0-.221.535c.183.624.584.7.584.7s-.173.428-.031.67a1.144,1.144,0,0,0,.7.6,1.048,1.048,0,0,0,.287.657.959.959,0,0,0,.885.265s.348.6.73.542a3.234,3.234,0,0,0,.907-.426,11.95,11.95,0,0,0,3.225-3.843,8.836,8.836,0,0,1,2.3-2.961Z" transform="translate(-5020.743 -1093.757)" fill="#eea886"/></g><g transform="translate(3.663 54.284)"><path d="M5044.923,1114.387s1.794-1.551,2.6-1.411.187.735.187.735.6-.6,1.136-.17-.221,1.089-.221,1.089a.686.686,0,0,1,.947.281c.368.613-.388,1.015-.388,1.015s1.082-.014.769.81a3.555,3.555,0,0,1-2.215,1.852s-.417.072-.73-.541a.95.95,0,0,1-1.173-.923s-1.133-.4-.672-1.269A.826.826,0,0,1,5044.923,1114.387Z" transform="translate(-5044.557 -1112.966)" fill="#db9c7c"/></g><path d="M5024.671,1462.965s-2.443,1.963-4.617,2.1-4.676.7-4.91,2.022,6.6,2.994,9.219,2.057c3.905-1.4,4.17-.74,4.73-1.668s.125-3.731.2-4.043C5029.392,1463.048,5024.671,1462.965,5024.671,1462.965Z" transform="translate(-5015.138 -1347.615)" fill="#353a3d"/><path d="M5016.057,1456.867a9.587,9.587,0,0,0-.413,1.064c.036.029,4.624,1.358,4.625.469,0-.721-.037-1.511-.037-1.511Z" transform="translate(-5006.11 -1342.582)" fill="#81807e"/><path d="M4856.2,1166.047c-.056.272.251.447.739.551a20.064,20.064,0,0,0,4.412.1l.495-.035s9.352-28.641,11.181-32.368c1.214-2.491,12.233-16.868,13.043-15.842a45.7,45.7,0,0,0,2.84-11.25c.112-.823.2-1.682.279-2.568a32.422,32.422,0,0,0-3.273.768c-1.1.321-2.2.677-3.23,1.04-1.193.426-2.3.858-3.21,1.228-.3.119-.579.237-.838.342-.286.119-.537.23-.754.321-.572.251-.906.4-.906.4s-1.738,3.092-3.894,7.021c-2.967,5.4-6.729,12.367-7.88,15.047a66.043,66.043,0,0,0-4,15.019C4860.879,1149.618,4856.42,1164.937,4856.2,1166.047Z" transform="translate(-4847.208 -1051.802)" fill="#353a3d"/><path d="M4855.213,945.163s.084.1.223.265c.482.565,1.647,1.905,2.387,2.61a.6.6,0,0,1,.07.063c.083.077.251.042.5-.084,2.114-1.1,9.7-9.107,11.752-10.908.14-.119.259-.216.342-.279a.112.112,0,0,1,.048-.028.267.267,0,0,1,.07-.042,3.573,3.573,0,0,0,.907-1.207c.111-.188.237-.4.363-.628.091-.174.188-.349.286-.53s.2-.377.3-.572c.132-.258.272-.523.412-.8.481-.949.97-1.947,1.389-2.826.1-.216.2-.426.293-.628.161-.335.3-.635.426-.9.056-.119.1-.23.153-.335.035-.084.07-.153.1-.223a1.362,1.362,0,0,1,.084-.181c.062-.14.1-.237.125-.279a.007.007,0,0,1,.007-.007,18.591,18.591,0,0,0,.035,3.231v.007a15.628,15.628,0,0,0,.419,2.422,18.8,18.8,0,0,1,.432,3.762v.042c0,.035.007.063.007.1v.042c.07,2.568-.1,5.339-.182,6.811a5.386,5.386,0,0,0,.664,3.343s.1-.014.293-.042c.125-.021.3-.042.5-.07l.572-.077.775-.112,3.008-.419,1.1-.154.251-.035,1.906-.272,3.294-.461v-.049c.055-.67.1-1.361.125-2.066v-.007c.041-1.033.048-2.1.021-3.2a74.468,74.468,0,0,0-.642-7.621c-.447-3.364-.97-6.462-1.151-9.91a45.82,45.82,0,0,1-.008-4.711V918.2c.057-1,.14-2.059.272-3.161.014-.112.027-.223.049-.335.1-.782.217-1.591.364-2.429-1.173.1-2.325.209-2.89.265h-.007c-.23.021-.363.035-.363.035s-.559.258-1.4.635l-.007.007-.069.028c-.488.223-1.061.489-1.667.768-1.271.586-2.708,1.256-3.846,1.794-1.089.523-2.736,1.41-2.861,1.507l-7.858,15.13-11.1,12.415Z" transform="translate(-4846.538 -893.003)" fill="#decbc4"/><path d="M4856.148,1108.174s.308-.035.838-.1c.224-.028.489-.063.789-.1.244-.028.522-.063.815-.1.936-.119,2.08-.258,3.329-.419,1.026-.125,2.115-.265,3.211-.419,1-.133,2-.265,2.952-.4.111-.823.2-1.682.279-2.568a.244.244,0,0,1,.007-.07v-.049c-1.061.154-2.185.307-3.294.468-.649.1-1.291.189-1.912.279-.084.014-.168.021-.251.035-.37.056-.74.1-1.089.16-1.131.161-2.171.314-3.008.433-.279.042-.538.077-.775.112-.217.035-.4.063-.571.083v.007c-.2.028-.378.049-.5.07-.187.028-.293.042-.293.042A4.989,4.989,0,0,0,4856.148,1108.174Z" transform="translate(-4826.384 -1051.24)" fill="#495055"/><path d="M4857.674,887.143h.008l.006-.007a11.074,11.074,0,0,0,1.228-.433c.014-.112.028-.223.049-.335.1-.782.216-1.591.363-2.429.111-.649.237-1.312.383-2,.112-.537.216-1.061.293-1.57v-.007c.092-.1.167-.2.238-.286-.07.077-.146.154-.224.23q.073-.419.126-.817v-.007c.077-.53.132-1.04.181-1.535-.725.6-1.619,1.445-2.373,2.191-.921.907-1.64,1.675-1.64,1.675s.014.119.028.3a10.474,10.474,0,0,1,.027,1.186,2.872,2.872,0,0,1-.035.363c-.042.279-.125.5-.265.572C4855.56,884.5,4857.674,887.143,4857.674,887.143Z" transform="translate(-4818.313 -864.671)" fill="#eea886"/><path d="M4911.109,1111.588s-.292,2.081-.3,2.866l.814-.106s.167-2.6.26-2.869Z" transform="translate(-4879.437 -1057.454)" fill="#353a3d"/><path d="M4856.973,889.416A10.7,10.7,0,0,1,4857,890.6a10.148,10.148,0,0,0,3.636-2.931v-.007c.091-.1.168-.2.237-.286-.069.077-.146.154-.223.23.049-.279.09-.551.125-.817l-2.191.649-1.019.307a15.522,15.522,0,0,0-1.1,1.605A2.491,2.491,0,0,0,4856.973,889.416Z" transform="translate(-4818.944 -871.969)" fill="#a77860"/><path d="M4856.986,836.673a2.377,2.377,0,0,0,1.737,1.2,2.469,2.469,0,0,0,.5.063,5.628,5.628,0,0,0,3.677-1.807q.073-.419.126-.817v-.007c.077-.53.132-1.04.182-1.535a24.99,24.99,0,0,0,.1-3.161c-.007-.419-.027-.824-.062-1.207-.028-.412-.07-.81-.132-1.186a15.509,15.509,0,0,0-.991-3.783,30.98,30.98,0,0,0-6.016,1.026A13.651,13.651,0,0,0,4856.986,836.673Z" transform="translate(-4821.197 -820.489)" fill="#eea886"/><path d="M4855.8,805.238c.2,1.514,1,1.563,1,1.563,1.451.258,2.582-.426,5.115-.258s.419,4.725.419,4.725l1.389-.244.007-.007a1.538,1.538,0,0,1,.209-.272c-.027-.412-.07-.81-.132-1.186a15.528,15.528,0,0,0-.992-3.783,9.022,9.022,0,0,0-2.784-3.943h-.007c-1.564.461-4.02,1.486-4.02,1.486S4855.608,803.737,4855.8,805.238Z" transform="translate(-4821.885 -801.832)" fill="#252e3b"/><path d="M4855.4,847.571a1.641,1.641,0,0,0,.272.935c-.007-.419-.028-.823-.063-1.207-.027-.412-.069-.81-.132-1.186a.877.877,0,0,0-.049.237A7.22,7.22,0,0,0,4855.4,847.571Z" transform="translate(-4813.558 -838.386)" fill="#eea886"/><path d="M4855.255,978.073c.2,2.066.453,5.423,1.019,8.968.363,2.254.866,4.683,1.34,6.958.041-1.033.048-2.1.021-3.2a74.465,74.465,0,0,0-.642-7.621c-.447-3.364-.97-6.462-1.151-9.91A12.6,12.6,0,0,0,4855.255,978.073Z" transform="translate(-4815.503 -943.36)" fill="#3c4145"/><path d="M4909.453,941.75c.267-3.448-1.377-6.641-.692-9.518l0,.006c-.146.319-4.021,8.818-4.847,9.12-.842.31-11.338,12.074-12.219,11.253-.939-.878-3.087-3.377-3.087-3.377l11.295-12.193,7.855-15.13c.127-.1,1.774-.986,2.863-1.505,1.135-.54,2.57-1.207,3.845-1.795.608-.281,1.181-.544,1.666-.767l.04.031a82.1,82.1,0,0,0-1.951,10.421c-.411,2.877-.986,7.772-1.54,12.714v0c-.437,3.9-1.433,7.892-1.75,10.875-.328,3.089-3.105,11.644-3.105,11.644l-2-1.843a1.211,1.211,0,0,1-.335-1.248C4906.318,957.77,4908.939,948.394,4909.453,941.75Z" transform="translate(-4879.846 -897.603)" fill="#3c4145"/><path d="M4859.031,978.073c.2,2.066.454,5.423,1.019,8.968l.719-3.859c-.446-3.364-.97-6.462-1.151-9.91A12.593,12.593,0,0,0,4859.031,978.073Z" transform="translate(-4819.28 -943.36)" fill="#51565c"/><path d="M4892.488,917.642a79.53,79.53,0,0,0-1.989,10.488c-.411,2.876-.986,7.772-1.54,12.714l-.572-14.141,1.17-1.269-1.041-1.3,2.228-5.688c.608-.281,1.181-.544,1.666-.767Z" transform="translate(-4856.128 -897.436)" fill="#51565c"/><path d="M4863.789,926.967v.007l.021.042v.021l.95,2.652c.056-1.005.139-2.059.272-3.162.014-.112.027-.223.049-.335-.384.244-.81.5-1.277.768l-.006.007Z" transform="translate(-4824.428 -904.495)" fill="#f5e2d9"/><path d="M4872.842,910.727a9.491,9.491,0,0,0,1.343,3.474l-2.8,3.647-.2-5.915Z" transform="translate(-4834.823 -891.728)" fill="#f5e2d9"/><path d="M4870.612,930.641a9.516,9.516,0,0,1,.347,2.776,2.645,2.645,0,0,1-2.049-.109A9.528,9.528,0,0,1,4870.612,930.641Z" transform="translate(-4831.242 -908.167)" fill="#464157"/><g transform="translate(36.428 47.443)"><path d="M4885.867,1080.062a41.064,41.064,0,0,1,0-6.31l.26.016a41.93,41.93,0,0,0,0,6.243Z" transform="translate(-4885.729 -1073.752)" fill="#ad9f99"/></g><path d="M4877.982,1105.873s-2.446.292-3.256.494l.107,2.743,3.2-.342Z" transform="translate(-4839.293 -1052.826)" fill="#69737a"/><path d="M4870.439,943.375a55.188,55.188,0,0,0-2.713,14.5c-.3,7.721.513,9.716.513,9.716l3.015,2.713,1.009-3.526a45.89,45.89,0,0,1-1.264-18.5c.264-1.8.657-5.205.657-5.205Z" transform="translate(-4832.286 -918.429)" fill="#464157"/></g></g><g transform="translate(662.012 1545.893)"><path d="M264.995,173.6l2.276,12.76c4.724,6.457,7.226,11.053,13.406,10.4,7.752-.821,11.994-12.133,11.994-12.133l-1.506-1.426s-.259.372-.7.959c-1.489,2.017-5.027,6.577-7.146,7.42-3,1.193-6.566-.711-9.9-8.109C269.07,173.836,264.995,173.6,264.995,173.6Z" transform="translate(-235.624 -141.297)" fill="#0054ae"/><path d="M217.706,200.983c15.862,6.444,23.3.39,23.3.39.18-13.868-7.43-29.91-9.1-30.9a12.294,12.294,0,0,0-3.449-1.4,13.555,13.555,0,0,0-7.871.635,14.215,14.215,0,0,0-2.873,1.436C210.879,175.994,217.706,200.983,217.706,200.983Z" transform="translate(-202.165 -138.071)" fill="#007bff"/><path d="M225.668,267.427a7.587,7.587,0,0,0,5.027,2.309l.606.058q1.362.121,2.615.155a29.256,29.256,0,0,0,3.327-.087c4.383-.386,7.433-1.9,8.928-4.808a9.015,9.015,0,0,0,.811-2.387,12.993,12.993,0,0,0,.242-2.589,7.918,7.918,0,0,0-.538-3.385s-2.261,1.143-8.534,1.8a126.266,126.266,0,0,1-14.78.557C223.33,260.455,223.156,264.712,225.668,267.427Z" transform="translate(-207.937 -196.544)" fill="#424243"/><path d="M223.053,329.822l2.818-.947a59.911,59.911,0,0,1,2.615-21.26,137.792,137.792,0,0,0,4.664-19.4c.045-.255.084-.493.119-.712.171-1.053.251-1.652.251-1.652l-8.683-1.684s.036.535.064,1.527a133.7,133.7,0,0,1-1.7,24.058q-.2,1.266-.354,2.444C221.282,324.153,223.053,329.822,223.053,329.822Z" transform="translate(-207.17 -214.813)" fill="#424243"/><path d="M257.537,322.875l2.454-1.146a64.113,64.113,0,0,1,2.924-21.137,179.881,179.881,0,0,0,5.417-23.269c.119-.715.212-1.275.271-1.649l.084-.528-9.42,2s.119,1.51.135,4.187c0,.258,0,.525,0,.8a128.376,128.376,0,0,1-1.781,20.6C255.563,315.087,257.537,322.875,257.537,322.875Z" transform="translate(-230.099 -208.813)" fill="#424243"/><path d="M232.3,169.707a10.11,10.11,0,0,0,3.507,4.184,2.583,2.583,0,0,1,1.069-1.649s.825.776,1.227,1.166l1.849,17.568,2.619,2.805,1.568-3.665-4.87-17.591.242-1.382s1.665,1.259,1.958,2.1a5.681,5.681,0,0,0-1.3-4.174A13.555,13.555,0,0,0,232.3,169.707Z" transform="translate(-213.886 -138.071)" fill="#0054ae"/><path d="M342.1,201.315s-.981.941-1.032,1.4a2.051,2.051,0,0,0,2.186,2.067C345.419,204.73,342.1,201.315,342.1,201.315Z" transform="translate(-286.2 -159.724)" fill="#fff"/><path d="M354.692,193.311c-.218-1.19-4.482-2.723-4.482-2.723a9.264,9.264,0,0,1,3.82.4s1.206-.28.226-1.135c-.7-.607-4.188-.771-6.1-.812-.754-.017-1.261-.017-1.261-.017a5.069,5.069,0,0,0,1.307-4.46c-.281-.754-1.114-.344-1.114-.344.417,2.72-1.995,3.5-3.519,4.835a2.689,2.689,0,0,0-.618,3.353,2.8,2.8,0,0,0,1.942,1.3c3.958.594,5.3,2.494,5.3,2.494s.645.4.783-.159-2.262-2.735-2.262-2.735c1.165,0,3.54,2.031,3.54,2.031s.824.691.871-.385c.045-1.043-2.958-2.567-3.146-2.659,3.112.616,4.008,1.751,4.008,1.751S354.91,194.5,354.692,193.311Z" transform="translate(-287.229 -148.283)" fill="#eebd9b"/><path d="M354.718,198.791c-.942,2.651-2.24,2.111-2.24,2.111.888-.272.98-2.128.98-2.128S353.964,198.774,354.718,198.791Z" transform="translate(-293.79 -158.035)" fill="#d7a387"/><path d="M247.452,257.391s-6.321,2.9-22.706,2.291v1.127s15.314,2.134,22.955-2.375Z" transform="translate(-208.863 -197.008)" fill="#272425"/><path d="M265.99,262.289l.124,1.008a.562.562,0,0,1-.479.626l-3.04.432a.563.563,0,0,1-.638-.494l-.116-1.033a.562.562,0,0,1,.484-.62l3.031-.407A.563.563,0,0,1,265.99,262.289Z" transform="translate(-233.525 -199.937)" fill="#6d6e6f"/><path d="M243.251,263.987a7,7,0,0,0,0,2.2h-.859a6.239,6.239,0,0,1,0-2.2Z" transform="translate(-220.524 -201.394)" fill="#424243"/><path d="M283.848,259.378a6.986,6.986,0,0,1,.411,2.162l.844-.161a6.23,6.23,0,0,0-.411-2.162Z" transform="translate(-248.159 -198.223)" fill="#424243"/><path d="M229.066,268.808a6.059,6.059,0,0,1-1.771,4.128,6.153,6.153,0,0,1-1.047-4.451A10.136,10.136,0,0,0,229.066,268.808Z" transform="translate(-209.842 -204.385)" fill="#383838"/><path d="M234.436,202.738a12.91,12.91,0,0,0-5.2,1.058l.848,4.732a1.351,1.351,0,0,0,1.072,1.088l2.132.414,1.42-.911a1.351,1.351,0,0,0,.6-1.368Z" transform="translate(-211.845 -160.668)" fill="#0054ae"/><path d="M234.078,155.828a16.092,16.092,0,0,0,5.607.944,8.93,8.93,0,0,0,1.163-.171c1.366-.367-1.33-1.2-.676-6.068l-5.585-2.573s.032.148.077.409c.074.435.19,1.175.264,2.039C235.083,152.24,235.057,154.633,234.078,155.828Z" transform="translate(-215.068 -124.25)" fill="#d7a387"/><path d="M235.6,147.96s.032.148.077.409c.074.435.19,1.175.264,2.039,1.234,2.293,3.308,5.337,5.92,6.193,1.366-.367-1.33-1.2-.676-6.068Z" transform="translate(-216.077 -124.25)" fill="#b9836a"/><path d="M264.995,173.6s6.854,7.766,7.536,13.614c0,0,2.189,6.931,7.3,7.175s10.659-8.27,10.659-8.27a2.554,2.554,0,0,1,0-1.827.226.226,0,0,0-.018-.131c-1.489,2.017-5.027,6.577-7.146,7.42-3,1.193-6.566-.711-9.9-8.109C269.07,173.836,264.995,173.6,264.995,173.6Z" transform="translate(-235.624 -141.297)" fill="#007bff"/><path d="M235.491,203.928a10.272,10.272,0,0,0-4.577.8l-.161-.72a7.9,7.9,0,0,1,4.562-1.052Z" transform="translate(-212.857 -160.812)" fill="#007bff"/><path d="M235.943,206.244a12.756,12.756,0,0,0-4.51.913s.376,3.932,1.127,4.308a11.567,11.567,0,0,0,2.12.671s1.662-1.006,1.865-1.584S235.943,206.244,235.943,206.244Z" transform="translate(-213.309 -163.002)" fill="#007bff"/><path d="M264.92,269.215s.831,5.339-1.953,8.941l.29-.046s2.662-2.955,2-9.013Z" transform="translate(-234.276 -204.792)" fill="#383838"/><path d="M269.826,268.413a16.8,16.8,0,0,1,0,4.469,2.621,2.621,0,0,1-1.915,1.469l-.158.342a2.592,2.592,0,0,0,2.292-1.812,15.619,15.619,0,0,0,0-4.63Z" transform="translate(-237.458 -204.23)" fill="#383838"/><path d="M223.053,323.406l2.818-.947a59.911,59.911,0,0,1,2.615-21.259,137.8,137.8,0,0,0,4.664-19.4,29.255,29.255,0,0,0,3.327-.087,128.38,128.38,0,0,1-1.781,20.6c-2.061,12.357-.087,20.145-.087,20.145l2.454-1.146a64.113,64.113,0,0,1,2.924-21.137,179.887,179.887,0,0,0,5.417-23.269,9.022,9.022,0,0,0,.811-2.387c-.167.239-.348.487-.541.738a14.065,14.065,0,0,1-6.969,5.153,17.855,17.855,0,0,1-2.232.5,15.152,15.152,0,0,1-3.2.177,10.315,10.315,0,0,1-4.338-1.057,6.037,6.037,0,0,0,1.6,1.614,2.9,2.9,0,0,0,1.32.474A5.963,5.963,0,0,1,229.414,284a4.88,4.88,0,0,0,2.09-.654s-1.15,20.145-7.862,22.129a5.549,5.549,0,0,0-.8.306C221.282,317.738,223.053,323.406,223.053,323.406Z" transform="translate(-207.17 -208.397)" fill="#383838"/><g transform="translate(0 79.402)"><g transform="translate(7.268)"><path d="M206.681,318.513h-1.052v-2.087A1.229,1.229,0,0,0,204.4,315.2H201.32a1.229,1.229,0,0,0-1.227,1.227v2.087H199.04v-2.087a2.282,2.282,0,0,1,2.28-2.279H204.4a2.282,2.282,0,0,1,2.28,2.279Z" transform="translate(-199.04 -314.146)" fill="#6d6e6f"/></g><g transform="translate(6.819)"><path d="M205.34,318.513h-1.052v-2.087a1.229,1.229,0,0,0-1.228-1.227H199.98a1.229,1.229,0,0,0-1.228,1.227v2.087H197.7v-2.087a2.282,2.282,0,0,1,2.28-2.279h3.081a2.282,2.282,0,0,1,2.279,2.279Z" transform="translate(-197.7 -314.146)" fill="#7f7f81"/></g><rect width="17.497" height="15.873" rx="3.412" transform="translate(3.651 4.128)" fill="#38281b"/><rect width="17.497" height="15.871" rx="3.407" transform="translate(0 4.128)" fill="#573b1c"/><path d="M231.574,326.464a1.143,1.143,0,0,1,1.144,1.143v12.675h.3V327.607a1.44,1.44,0,0,0-.563-1.143Z" transform="translate(-213.403 -322.336)" fill="#b8babb"/><path d="M196.5,341.29V329.417a1.437,1.437,0,0,0-1.437-1.437H180.771a14.411,14.411,0,0,0,5.294,9.227A23.672,23.672,0,0,0,196.5,341.29Z" transform="translate(-179.625 -323.344)" fill="#6b4825"/></g><path d="M200.2,300.221s-1.469,4-1.023,5.165c.561,1.47,2.231,1.357,4.9,1.446.275.009.771-.838.553-1-.116-.089-.444-.364-.41-.606a.642.642,0,0,1,.793-.508l.383.092c.52-1.712.627-1.766-2.6-5.031Z" transform="translate(-191.81 -225.188)" fill="#eebd9b"/><path d="M186.775,198.246c0,9.366,2.534,15.617,4.454,19q.377.662.712,1.179l2.606-1.176c-2.435-5.791-7.932-22.245,3.356-31.73a23.068,23.068,0,0,0,1.256-9.626A25.859,25.859,0,0,0,186.775,198.246Z" transform="translate(-183.617 -142.825)" fill="#0054ae"/><path d="M204.3,298.477l-.765-1.28-2.806,1.084.176,1.374S203.2,299.734,204.3,298.477Z" transform="translate(-192.893 -223.475)" fill="#fff"/><path d="M186.775,198.246c0,9.366,2.534,15.617,4.454,19a5.779,5.779,0,0,0,1.562-.7,37.288,37.288,0,0,1-1.887-19.385c1.871-10.7,6.609-12.815,6.609-12.815,1.366-2.844,1.646-8.451,1.646-8.451A25.859,25.859,0,0,0,186.775,198.246Z" transform="translate(-183.617 -142.825)" fill="#007bff"/><path d="M238.864,170.234c.512.467,1,.879,1.43,1.237a27.378,27.378,0,0,0,2.374,1.778c.016.084.035.18.051.283.609,3.372,2.309,17.366,2.309,17.366l2.512,3.06,1.353-3.488c-.966-6.013-5.259-17.324-5.259-17.324a7.9,7.9,0,0,0,.512-1.556v0a6.973,6.973,0,0,0,.171-1.906,2.116,2.116,0,0,1-.174.68c-.544,1.233-2.187,1.018-3.5.6A11.791,11.791,0,0,1,238.864,170.234Z" transform="translate(-218.25 -138.691)" fill="#fff"/><path d="M243.131,172.819A27.382,27.382,0,0,0,245.5,174.6c.016.084.035.18.051.284a1.706,1.706,0,0,0,.432.216c.284.019.483-.6.483-.6a1.214,1.214,0,0,1-.824.1l-1.008-.889a1.941,1.941,0,0,1,.209-.6c.129-.174,1.018.093,1.018.093a2.5,2.5,0,0,1,.544-.525c.2-.084.573.258.573.258v-1.227l0,0c-.544,1.233-2.187,1.018-3.5.6Z" transform="translate(-221.087 -140.039)" fill="#3a6395"/><path d="M233.615,165.942c1.3-.309,4.834,2.617,4.834,2.617a8.446,8.446,0,0,0,.671-2.507s.5-.307,1.78,1.716a4.952,4.952,0,0,1,.516,2.72c-.818-1.784-2.035-2.355-2.276-1.858a2.8,2.8,0,0,1-.51.725,6.241,6.241,0,0,1-.845-.557c-.255-.206-1.313.368-2.019,1.951,0,0-3.043-1.655-3.519-2.971C232.247,167.778,233.058,166.074,233.615,165.942Z" transform="translate(-213.85 -136.19)" fill="#007bff"/><path d="M256.736,410.961c.339-.979,2-.382,2-.382a1.7,1.7,0,0,1,1.523-1.073c.018,1.511,1.731,2.208,4.446,3.274,2.077.815,2.061,1.9,2.061,1.9-3.156.788-8.221-.709-8.221-.709s.01.477-2.138.262a4.762,4.762,0,0,1,.417-3.076S256.786,411.085,256.736,410.961Z" transform="translate(-229.852 -298.147)" fill="#272425"/><path d="M222.116,414.808c.339-.979,2-.382,2-.382a1.7,1.7,0,0,1,1.523-1.074c.018,1.511,1.731,2.208,4.446,3.274,2.077.815,2.061,1.9,2.061,1.9-3.156.788-8.221-.709-8.221-.709s.01.477-2.138.262a4.763,4.763,0,0,1,.417-3.077S222.166,414.931,222.116,414.808Z" transform="translate(-206.834 -300.704)" fill="#272425"/><g transform="translate(12.928 0)"><path d="M264.778,104.092s.6,4.014-.3,6.6-1.494-5.657-1.494-5.657Z" transform="translate(-247.213 -95.083)" fill="#263238"/><g transform="translate(16.102 14.753)"><path d="M263.977,122.452s3.251-3.152,2.9.668-2.86,3.92-2.86,3.92Z" transform="translate(-263.977 -121.23)" fill="#d7a387"/><path d="M265.833,124.673c1.186-2.287,1.583-.4,1.583-.4-.316-.969-1-.136-1.375.894.27-.041.592.035.493.695,0,0-.067-.664-.607-.34-.015.055-.031.109-.045.164-.288,1.183.223.773.078,1.636C265.492,127.674,265.141,126.008,265.833,124.673Z" transform="translate(-264.952 -122.768)" fill="#b9836a"/></g><path d="M222.575,97.946c0,11.134,4.9,17.717,10.776,18.245a8.456,8.456,0,0,0,.992.033c1.849-.045,3.961-4.622,4.013-10.863.036-4.283-.4-10.013-5.72-12.1-.287-.113-.586-.216-.9-.306C226.082,91.334,222.575,94.87,222.575,97.946Z" transform="translate(-220.347 -87.406)" fill="#d7a387"/><path d="M230.3,99.881c0,9.446,3.526,15.62,8.187,17.6a8.463,8.463,0,0,0,.992.033c1.849-.045,3.961-4.622,4.013-10.863.036-4.283-.4-10.013-5.72-12.1C233.12,94,230.3,97.124,230.3,99.881Z" transform="translate(-225.485 -88.694)" fill="#eebd9b"/><g transform="translate(10.685 21.277)"><path d="M250.739,143.762a3.118,3.118,0,0,1-2.858-2.194,2.633,2.633,0,0,1-.056-.868s1,.973,4.934,1.312c.216.02.442.036.674.05C253.433,142.062,253.359,143.911,250.739,143.762Z" transform="translate(-247.812 -140.7)" fill="#8d2e1d"/><path d="M252.759,142.012l-.1.429a6.176,6.176,0,0,1-4.774-.874,2.633,2.633,0,0,1-.056-.868S248.82,141.673,252.759,142.012Z" transform="translate(-247.812 -140.7)" fill="#fff"/><path d="M252.137,146.7s.726-.473.791-.052-1.336.847-2.037.164S251.29,145.964,252.137,146.7Z" transform="translate(-249.711 -144.37)" fill="#d43a74"/></g><g transform="translate(0 16.386)"><path d="M219.942,127.068s-4.966-2.736-3.851,1.014a4.636,4.636,0,0,0,4.559,3.546Z" transform="translate(-215.928 -126.105)" fill="#d7a387"/><path d="M220.23,129.337c-2-2.128-2.229-.2-2.229-.2.27-1,1.341-.256,2.027.722-.376-.009-.8.106-.558.749,0,0-.019-.667.773-.411.03.052.061.1.089.157.591,1.14-.176.795.165,1.633C221.2,132.275,221.4,130.578,220.23,129.337Z" transform="translate(-217.306 -127.588)" fill="#b9836a"/></g><path d="M241.07,113.4s-2.194-1.409-3.442.725c0,0,.966-1.127,3.341-.423Z" transform="translate(-230.356 -100.967)" fill="#263238"/><path d="M257.346,112.014a1.868,1.868,0,0,1,3,.425s-.934-1.038-2.881-.133Z" transform="translate(-243.466 -99.954)" fill="#263238"/><path d="M216.359,87.017a5.9,5.9,0,0,1,1.12-2.451c.565-.7,1.428-.984,1.92-1.712a7.2,7.2,0,0,1,.815-.966l.159-.162c2.537-2.554,5.954-5.128,9.768-4.39a9.5,9.5,0,0,1,1.531.449,5.259,5.259,0,0,1,1.761.988,4.491,4.491,0,0,1,.74.93,5.3,5.3,0,0,1,.854,3.671,3.561,3.561,0,0,1-1.3,2.166,2.6,2.6,0,0,1-.214,1.539c-.356.672-.706.231-1.243-.09-2.406-1.438-5.646-2.677-8.413-1.65-.7.258-.752.435-.791,1.125a7.867,7.867,0,0,1-.377,2.022,8.581,8.581,0,0,1-2.471,3.8l.705,4.431c-1.649-2.9-3.247-3.168-3.247-3.168a10.038,10.038,0,0,1-.976-2.107A8.283,8.283,0,0,1,216.359,87.017Z" transform="translate(-216.105 -77.208)" fill="#263238"/><path d="M257.657,128.162a.324.324,0,0,1,.014.193c-.042.119-.2.146-.323.112a1.4,1.4,0,0,1-.533-.408c-.216-.205-.4-.187-.689-.211a.922.922,0,0,1-.224-.038.464.464,0,0,1-.3-.365.539.539,0,0,1,.1-.356.9.9,0,0,0,.121-.437,6.3,6.3,0,0,0-.07-1.16c-.046-.352-.236-1.341.376-.912.395.277.7,1.329.885,1.769A15.223,15.223,0,0,1,257.657,128.162Z" transform="translate(-242.302 -108.635)" fill="#c26f50"/><path d="M260.247,85.548A3.39,3.39,0,0,0,260,82.573a2.206,2.206,0,0,1,.167,1.515,4.915,4.915,0,0,0-1.419-2.576,5.231,5.231,0,0,1,.581,1.954,5.1,5.1,0,0,0-2.611-2.918,4.822,4.822,0,0,1,1.043,1.727,5.049,5.049,0,0,0-2.336-1.714,9.466,9.466,0,0,1,1.787,1.806,3.191,3.191,0,0,1,.592,2.407,3.951,3.951,0,0,0-1.01-1.678,2.634,2.634,0,0,1,.429,2.2,2.161,2.161,0,0,1-1.589,1.531,7.281,7.281,0,0,0,1.888.38l-.863.234c.383-.1.922.157,1.335.1a2.514,2.514,0,0,0,.879-.373A3.387,3.387,0,0,0,260.247,85.548Z" transform="translate(-242.186 -79.429)" fill="#f0f0f0" opacity="0.18"/><path d="M230.585,90.214q-.449.384-.867.8a4.158,4.158,0,0,1,.737-1.429,5.356,5.356,0,0,0-1.215,1.1,8.012,8.012,0,0,1,1.114-1.563,7.343,7.343,0,0,0-1.986,2.081.339.339,0,0,1,.444.007c.031.03.062.069.106.072a.145.145,0,0,0,.089-.036l.295-.207a.693.693,0,0,0-.117.438l.346-.133a.538.538,0,0,1-.017.225.339.339,0,0,0,.15-.1c.013.1.027.2.04.294C229.635,91.276,230.312,90.544,230.585,90.214Z" transform="translate(-224.198 -85.13)" fill="#f0f0f0" opacity="0.18"/><path d="M258.507,103.571a1.367,1.367,0,0,1-.979.719,1.564,1.564,0,0,0,.759-1.145,1.635,1.635,0,0,0-.434-1.282A1.144,1.144,0,0,1,258.507,103.571Z" transform="translate(-243.587 -93.6)" fill="#263238"/><path d="M234.545,91.215a7.244,7.244,0,0,0-.947,1.71l1.38-1.274a5.292,5.292,0,0,0-.866,1.556l.713-.509a1.809,1.809,0,0,0-.4.7l.5-.365-.2.378,1.134-.773-1.636,1.514a2.515,2.515,0,0,1,.147-.638,1.5,1.5,0,0,0-.319.33.237.237,0,0,1,0-.247l-.276.2-.012-.333-.237.182-.021-.335c.009.14-.479.448-.588.51A5.189,5.189,0,0,1,234.545,91.215Z" transform="translate(-227.224 -86.521)" fill="#f0f0f0" opacity="0.18"/><g transform="translate(8.621 14.408)"><path d="M242.368,122.094a.509.509,0,0,1-.037.107.325.325,0,0,1-.242.194c-.287.033-.287-.478-.315-.662-.042-.27-.313-1.614.129-1.529.23.044.356.417.4.615a4.073,4.073,0,0,1,.09,1.067A1.139,1.139,0,0,1,242.368,122.094Z" transform="translate(-241.654 -120.201)" fill="#424243"/><g transform="translate(0.136 0.407)"><ellipse cx="0.131" cy="0.131" rx="0.131" ry="0.131" transform="translate(0)" fill="#fff"/><path d="M242.843,122.289a.04.04,0,1,0,.04-.041A.04.04,0,0,0,242.843,122.289Z" transform="translate(-242.581 -121.969)" fill="#fff"/></g></g><g transform="translate(14.799 13.717)"><path d="M260.8,120.032a.544.544,0,0,1-.036.107.324.324,0,0,1-.242.194c-.287.033-.287-.478-.315-.662-.042-.269-.313-1.614.129-1.529.23.044.356.417.4.615a4.076,4.076,0,0,1,.09,1.067A1.137,1.137,0,0,1,260.8,120.032Z" transform="translate(-260.087 -118.139)" fill="#424243"/><g transform="translate(0.029 0.39)"><ellipse cx="0.131" cy="0.131" rx="0.131" ry="0.131" transform="translate(0)" fill="#fff"/><ellipse cx="0.04" cy="0.04" rx="0.04" ry="0.04" transform="translate(0.262 0.279)" fill="#fff"/></g></g><path d="M248.678,91.081a.952.952,0,0,0-.151-.806,2.83,2.83,0,0,0-.6-.6,1.615,1.615,0,0,1,.206.663,1.654,1.654,0,0,0-.926-.93,3.253,3.253,0,0,0-1.322-.222,2.313,2.313,0,0,1,.828.5,1.844,1.844,0,0,0-1.372.014,5.461,5.461,0,0,0-1.214.7,2.771,2.771,0,0,1,.955-.182,5.879,5.879,0,0,0-2.493,1.751,3.69,3.69,0,0,1,2.508-.319,6.388,6.388,0,0,1,.746.364,4.751,4.751,0,0,0,1.262.428,2.546,2.546,0,0,0,1.036.013,1.33,1.33,0,0,0,.844-.566.907.907,0,0,0-.007-.984" transform="translate(-233.655 -85.175)" fill="#f0f0f0" opacity="0.18"/><path d="M220.665,106.637a10.251,10.251,0,0,0,.8-2.872,6.845,6.845,0,0,0-1.3,4.1,7.012,7.012,0,0,1-1.58-4.3,4.087,4.087,0,0,1,2.376-3.713l-.8,1.493a9.688,9.688,0,0,1,2.219-1.4,16.87,16.87,0,0,0-.7,2.209c.061-.253.511-.65.655-.885.206-.334.351-.693.529-1.038.788.943.29,2.079-.1,3.042A10.885,10.885,0,0,1,220.665,106.637Z" transform="translate(-217.691 -92.264)" fill="#f0f0f0" opacity="0.18"/></g></g><g transform="translate(964.809 1548.689)"><g transform="translate(0 106.697)"><path d="M1003.459,1612.891s-2.915,4.941-4.146,5.75c-1.671,1.1-.624,2.2.169,2.2s4.845.291,5.738-.723,1.336-4.05,2.17-4.844,1.591-3.724-.4-4.718C1004.8,1609.469,1003.459,1612.891,1003.459,1612.891Z" transform="translate(-998.423 -1610.346)" fill="#e55353"/></g><g transform="translate(2.267 106.653)"><path d="M1003.393,1610.3s-3.17,6.2-3.745,7.058,1.085.854,2.11.448,3.7-4.522,3.985-5.316a4.45,4.45,0,0,0,.079-1.936Z" transform="translate(-999.53 -1610.305)" fill="#3b3b40"/></g><g transform="translate(8.503 110.183)"><path d="M999.739,1613.559l-.77,5.933-.408.018.127-4.268Z" transform="translate(-998.561 -1613.559)" fill="#e55353"/></g><g transform="translate(28.124 100.874)"><path d="M977.375,1608.527s-.7,5.695-1.5,6.926c-1.094,1.672.308,2.27,1.036,1.953s4.557-1.668,4.972-2.954-.393-4.246.051-5.306-.029-4.05-2.256-4.164C977.233,1604.86,977.375,1608.527,977.375,1608.527Z" transform="translate(-975.467 -1604.978)" fill="#e55353"/></g><g transform="translate(29.369 100.88)"><path d="M977.667,1605.717s-.429,6.953-.614,7.968,1.335.349,2.115-.434,1.582-5.621,1.531-6.462a4.441,4.441,0,0,0-.7-1.805Z" transform="translate(-977.038 -1604.984)" fill="#3b3b40"/></g><g transform="translate(34.373 103.432)"><path d="M974.292,1607.336l1.663,5.75-.367.18L974,1609.3Z" transform="translate(-974 -1607.336)" fill="#e55353"/></g><g transform="translate(2.213 19.551)"><path d="M996.08,1564.288c.094-.461,3.616-7.283,4.25-9.338s1.18-3.939,1.5-4.752c.022-.053.056-.146.1-.272.217-.6.684-1.953,1.169-3.21.034-.088.067-.176.1-.263l.049-.481c.341-.868,0-1.375,0-2.069a2.085,2.085,0,0,1,.109-.692.067.067,0,0,1,.01-.028,15.546,15.546,0,0,0,.76-2.766c.2-1.907,1.227-10.395,1.227-10.395s-3.337,1.728-3.708,3.062c-.563,2.023-1.137,5.033-1.279,5.96s-1.595,8.633-1.9,10.2a20.475,20.475,0,0,1-1.085,3.932c-.434,1.036-3.335,10.278-3.514,11.105S995.986,1564.751,996.08,1564.288Z" transform="translate(-992.788 -1530.022)" fill="#eea886"/><path d="M1005.439,1560.716a17.211,17.211,0,0,0,.29,2.208,30.581,30.581,0,0,1-.44,4.4c-.077.365-.286.108-.371-.156-.049-.151-.078-1.363-.193-2.023-.1-.554-.217-.777-.342-.622a11.592,11.592,0,0,0-.6,3.278c.047.967-.514,3.082-.955,2.692s-.951-4.47-.614-5.918a19.416,19.416,0,0,1,1.162-3.2Z" transform="translate(-1002.104 -1527.415)" fill="#eea886"/></g><g transform="translate(5.631 48.224)"><path d="M1002.2,1569.415c-.145.7-1.074,3.636-2.115,6.9h0c-.949,2.973-1.99,6.217-2.615,8.286-.233.773-.408,1.381-.5,1.751-.6,2.451.074,6.292.292,9.507s-4.448,21.215-4.448,21.215c-.817.381-2.351-2.194-2.351-2.194.6-1.144.515-21.448.187-22.7a19.026,19.026,0,0,1-.217-6.1,5.293,5.293,0,0,0,.109-1.093c.027-1.719-.325-4.557-.543-7.675-.272-3.921,1.252-13.67,1.469-14.538.021-.08.052-.193.092-.331.4-1.367,1.694-5.249,1.694-5.249a12.825,12.825,0,0,1,6.064-.621,4.507,4.507,0,0,1,3.557,3.052C1004.161,1563.167,1002.389,1568.5,1002.2,1569.415Z" transform="translate(-989.97 -1556.45)" fill="#3b3b40"/></g><g transform="translate(14.843 45.489)"><path d="M995.194,1609.8l-2.653.933c-.45-2.177-11.221-17.417-11.879-19.1a24.651,24.651,0,0,1-1.357-6.154c0-.217-.015-.575-.045-1.044-.116-1.816-.449-5.24-.925-7.906-.089-.5-.182-.968-.281-1.4-.527-2.3-.62-10.154-.625-14.772,0-2.056.011-3.472.011-3.472s.046-.037.131-.1c.994-.752,7.363-5.332,9.584-1.05a12.876,12.876,0,0,1,1.2,3.613c.713,3.882.014,8.253-.562,12.236-.491,3.408-1.433,8.223-1.7,11.8a8.925,8.925,0,0,0,.348,4.329c1.253,2.179,2.478,4.022,5.011,11.708C992.273,1601.916,995.194,1609.8,995.194,1609.8Z" transform="translate(-977.428 -1553.929)" fill="#3b3b40"/></g><g transform="translate(13.185 0)"><path d="M982.063,1520.8s-1.385-8.961,6.036-8.8,7.323,4.6,7.191,8.994-2.976,4.067.231,10.185-2.779,6.118-2.779,6.118l-4.645-6.382Z" transform="translate(-981.961 -1512.001)" fill="#3c4145"/></g><g transform="translate(13.272 0.756)"><path d="M989.723,1512.8s-5.026.794-5.224,7.936,1.356,8.664,5.75,7.176,5.787-8.962,5.886-10.119S996.5,1511.943,989.723,1512.8Z" transform="translate(-984.482 -1512.698)" fill="#eea886"/></g><g transform="translate(7.229 18.214)"><path d="M1002.4,1536.28c.019,2.46-2.808,8.339-3.244,10.154s-1.126,2.4-.543,4.719,2.387,10.184,2.308,10.874-16.2,3.233-18.631,2.761c0,0,2.973-11.1,3.191-12.368a56.419,56.419,0,0,0-.374-7.378c-.109-1.343-1.469-4.231-1.423-5.581a8.07,8.07,0,0,1,1.664-4.021c.292-.455.6-.917.9-1.367a25.934,25.934,0,0,1,2.487-3.255,7.941,7.941,0,0,1,1-.8h0a4.649,4.649,0,0,1,1.031-.542l4.32-.69s2.692.977,4.242,1.337C999.327,1530.125,1002.35,1530.566,1002.4,1536.28Z" transform="translate(-982.285 -1528.789)" fill="#f54242"/></g><g transform="translate(9.864 19.445)"><path d="M998.769,1529.925l-2.5,3.946-2.311,3.642c0-.019.158-.571.42-2.17.05-.3.109-.644.161-1.026a2.982,2.982,0,0,1,.072-.336h0c.99-2.278,4.048-4,4.16-4.057Z" transform="translate(-993.954 -1529.924)" fill="#f54242"/></g><g transform="translate(15.411 12.651)"><path d="M993.766,1523.766c-.434.822-.9,5.93-.9,5.93s-6.148,2.324-5.518,1.009a5.02,5.02,0,0,0,.374-2.037,9.456,9.456,0,0,0-.068-1.24c-.015-.135-.028-.217-.028-.217S994.2,1522.945,993.766,1523.766Z" transform="translate(-987.307 -1523.661)" fill="#eea886"/></g><path d="M989.015,1529.478s-2.9,4.454-1.916,4.843,6.292-.52,8.545-4.75A7.951,7.951,0,0,0,989.015,1529.478Z" transform="translate(-973.307 -1510.574)" fill="#eea886"/><path d="M994.2,1533.958h0a5.18,5.18,0,0,0-.244,1.39l.9-1.367s1.619-2.318,2.17-2.922a9.274,9.274,0,0,1,1.315-1.131S995.171,1531.456,994.2,1533.958Z" transform="translate(-983.677 -1510.479)" fill="#f54242"/><g transform="translate(13.288 0.636)"><path d="M987.282,1517.938s2.579,4.2,4.928,5.853,1.158,2.976,1.158,2.976,6.125-12.9.3-13.789-9.4-.959-9.562,7.771C984.107,1520.748,986.752,1517.871,987.282,1517.938Z" transform="translate(-984.107 -1512.587)" fill="#3c4145"/></g><path d="M994.874,1528.994s-7.676,4.444-9.078,8.952c0,0-1.094-2.561,2.195-7.906,0,0-.712-1.564-2.32,1.579a48.045,48.045,0,0,0-4.233,5.908c-.465.961-1.3,4.8,3.033,5.71,0,0,3.479,3.543,6.81-2.269s1.84-8.915,5.762-10.928c0,0,2.1,12.911.894,16.795,0,0,.743,9.246.743,12.287,0,1.161,4.359,1.977,3.08-7.207-.231-1.661-.257-8.052-.257-8.052S1003.983,1525.7,994.874,1528.994Z" transform="translate(-973.318 -1510.592)" fill="#6969a8"/><g transform="translate(15.762 15.89)"><path d="M993.23,1526.647c-.944,1.392-3.437,1.766-3.437,1.766h0a9.865,9.865,0,0,0-.068-1.24A7.03,7.03,0,0,0,993.23,1526.647Z" transform="translate(-989.725 -1526.647)" fill="#a77860"/></g><path d="M986.781,1538.319l9.688-.8a.747.747,0,0,1,.805.681v.007l1.2,16.049a.746.746,0,0,1-.667.8l-9.3.958a.745.745,0,0,1-.818-.665v0l-1.588-16.2a.747.747,0,0,1,.666-.817Z" transform="translate(-975.275 -1509.834)" fill="#2f4563"/><path d="M998.23,1548.339s-1.836.307-2.007.28-.9-1.216-1.736-1.43a17.234,17.234,0,0,1-2.15-.542c-.259-.162-.326.663.477,1s1.01.788-.5,1.092c-.836.168-3.963-.181-3.7.347.152.31,3.165.532,3.165.532a19.9,19.9,0,0,0-3.363.181c-.217.387,3.043.524,3.18.511,0,0-2.795.161-2.821.411-.03.311,2.8.179,2.774.23,0,0-2.221.153-2.2.343.029.249,1.984.279,2.363.234s4.208-.481,4.852-.608,1.726-.2,1.726-.2Z" transform="translate(-977.578 -1509.06)" fill="#eea886"/><path d="M988.49,1547.288a33.029,33.029,0,0,1-3.505,1c-1.688.357.056,2.38.056,2.38s2.924-.27,4.329-.407C990.05,1550.189,988.49,1547.288,988.49,1547.288Z" transform="translate(-964.333 -1509.004)" fill="#eea886"/><path d="M984.019,1558.179s-1.054-11.32-.862-15.967C983.157,1542.212,985.153,1553.064,984.019,1558.179Z" transform="translate(-957.949 -1509.435)" fill="#424272"/><path d="M1002.927,1579.526c-.491,4.688,2.942,11.2,2.671,16.112,0,0-7.168,1.354-11.224,2.041-1.1.186-2.286.366-3.54.524-2.17.273-6.69-1.415-9.085-1.363.027-2.364.7-7.685.479-11.975-.271-5.394-.23-7.548,1.8-19.781.021-.111,1.614-5.294,1.654-5.484,2.4-1.588,4.34,1.221,6.981.715,1.25-.3,2.506-.53,3.7-.715a64.991,64.991,0,0,1,7.415-.693C1005.548,1565.906,1003.5,1574.047,1002.927,1579.526Z" transform="translate(-977.827 -1508.016)" fill="#f54242"/><g transform="translate(14.758 19.636)"><path d="M991.916,1534.093s-.694-4.682-4.123-3.906c-3.3.741-.207,6.88.035,7.605s2.683,6.663,2.895,7.44c.669,2.459.042,2.517-.966,3.1-2.973,1.712-9.085,1.6-9.79,2.07a1.085,1.085,0,0,0,.521,1.987c1.541.066,10.346-.759,11.575-.883,1.193-.116,3.562-.217,2.939-4.448C994.583,1544.2,991.916,1534.093,991.916,1534.093Z" transform="translate(-979.482 -1530.1)" fill="#eea886"/></g><path d="M983.189,1537.4a34.742,34.742,0,0,1,5.113-1.638s-.794-6.336-4.665-5.664S983.189,1537.4,983.189,1537.4Z" transform="translate(-960.428 -1510.468)" fill="#f54242"/><path d="M998.755,1532.425s-3.375,4.024-2.407,7.133.561-.291.561-.291A21.37,21.37,0,0,1,998.755,1532.425Z" transform="translate(-986.483 -1510.266)" fill="#424272"/><path d="M991.737,1530.022s-1.965.589-3.567,8.129l-1.488.307S989.386,1531.334,991.737,1530.022Z" transform="translate(-969.168 -1510.47)" fill="#424272"/><path d="M996.606,1529.924s-7.36,4.585-7.96,8.959l2.932-.243A27.113,27.113,0,0,1,996.606,1529.924Z" transform="translate(-976.168 -1510.479)" fill="#7373d8"/></g><g transform="translate(854.593 1546.519)"><g transform="translate(0 0.008)"><g transform="translate(58.704 57.297)"><path d="M1062.348,1565.2l5.963-.8a1.11,1.11,0,0,0,.951-1.245l-.506-3.758a1.11,1.11,0,0,0-1.245-.95l-5.963.8a1.11,1.11,0,0,0-.95,1.246l.506,3.758A1.109,1.109,0,0,0,1062.348,1565.2Zm5.26-6.021a.366.366,0,0,1,.409.314l.5,3.758a.365.365,0,0,1-.312.409l-5.962.8a.364.364,0,0,1-.408-.314l-.507-3.759a.365.365,0,0,1,.313-.408Z" transform="translate(-1060.587 -1558.438)" fill="#0e1e2b"/></g><g transform="translate(60.135 53.722)"><path d="M1067.485,1560.828a2.157,2.157,0,0,0,.185-.665s-.047-.419-.063-.718a1.844,1.844,0,0,1,0-.232,3.946,3.946,0,0,0,.017-1.263,26.215,26.215,0,0,0-1.185-2.807l-1.384.234-1.327.036a26.663,26.663,0,0,0-1.135,3.755c0,.05.011.1.019.148a5.028,5.028,0,0,0,.388.963c.025.083.331.893.575.977a.846.846,0,0,0,.817-.091,2.023,2.023,0,0,0,1.111.015,1.257,1.257,0,0,0,1.095-.18S1067.245,1561.139,1067.485,1560.828Z" transform="translate(-1062.591 -1555.143)" fill="#eea886"/></g><g transform="translate(50.424 18.108)"><path d="M1065.928,1532.118c.232.358,1.1,2.368,2.016,4.513h0l.452,1.066.362.846.381.888c.512,1.194.945,2.189,1.166,2.638a51.689,51.689,0,0,1,1.661,6.762c.216.909.9,9.77.9,9.77s4.607.411,4.5.051-1.052-9.943-1.282-11.393c-.3-1.905-1.65-7.076-1.8-7.463s-3.222-8.534-3.611-9.922a14.122,14.122,0,0,0-2.593-5.637,3.884,3.884,0,0,0-4.688-1.683C1061.173,1523.876,1065.447,1531.385,1065.928,1532.118Z" transform="translate(-1062.758 -1522.317)" fill="#5b94e2"/></g><g transform="translate(52.045 60.544)"><rect width="16.17" height="22.569" transform="translate(2.156 19.034) rotate(-97.661)" fill="#665955"/></g><g transform="translate(52.044 60.544)"><rect width="9.373" height="22.569" transform="translate(1.25 12.298) rotate(-97.661)" fill="#877671"/></g><path d="M1079.628,1521.364a14.535,14.535,0,0,1,0-3.7s-5.522,2.552-4.565,3.244a1.737,1.737,0,0,1,.542.942,11.086,11.086,0,0,1,.235,2.956l-1.826,2.13C1072.4,1529.157,1079.766,1522.1,1079.628,1521.364Z" transform="translate(-1026.558 -1504.603)" fill="#eea886"/><g transform="translate(64.703 97.186)"><path d="M1057.093,1596.9s-.576,1.968-1.12,4.406-2.748,4.166-3.072,4.589-1.777,2.117-.564,2.369,6.328-2.821,7.764-4.637c0,0,.877-1.735.992-1.833s.8.447.8.447l1.308-.814a6.471,6.471,0,0,0,.76-.594c.205-.217-.218-1.482-.285-1.607-.076-.14-2.216-3.2-3.641-3.893S1057.093,1596.9,1057.093,1596.9Z" transform="translate(-1051.863 -1595.204)" fill="#34395c"/></g><g transform="translate(25.821 107.809)"><path d="M1096.266,1605.338s-1.612,1.273-3.475,2.95-4.593,1.84-5.095,2-2.63.72-1.84,1.6,6.571,1.265,8.756.6c0,0,1.705-.916,1.851-.932s.353.809.353.809l1.5.075a6.214,6.214,0,0,0,.94-.055c.287-.061.687-1.3.731-1.464s.175-3.84-.518-5.2S1096.266,1605.338,1096.266,1605.338Z" transform="translate(-1085.683 -1604.996)" fill="#3c4169"/></g><g transform="translate(68.418 93.805)"><path d="M1055.424,1593.977a33.689,33.689,0,0,1,1.585,3.423c.085.51,2.453.6,2.987-1.542,0,0-1.734-3.673-1.671-3.767S1055.424,1593.977,1055.424,1593.977Z" transform="translate(-1055.424 -1592.088)" fill="#eea886"/></g><g transform="translate(52.721 51.785)"><path d="M1055.848,1565.447s.159.6.411,1.549c.164.616.369,1.381.594,2.225,1.032,3.857,2.526,9.389,2.812,10.17a27.845,27.845,0,0,0,2.87,5.027c.327.211,8.559,15.032,8.805,15.723,0,0,3.635-1.452,4.325-2.583,0,0-5.438-16.205-7.749-19.1-2.231-2.785-1.563-18.943-3.509-23.894S1054.706,1561.169,1055.848,1565.447Z" transform="translate(-1055.734 -1553.357)" fill="#34395c"/></g><g transform="translate(36.298 104.712)"><path d="M1086.207,1602.141a34.475,34.475,0,0,1-.8,3.668c-.237.461,1.546,1.867,3.224.429,0,0,.831-3.952.935-3.995S1086.207,1602.141,1086.207,1602.141Z" transform="translate(-1085.387 -1602.141)" fill="#eea886"/></g><g transform="translate(36.823 48.101)"><path d="M1076.482,1555.815s-5.256,18-5.788,20.661.152,4.792-.181,5.917-4.146,25.777-4.146,25.777,3.84,1.519,5.367.523c0,0,4.191-16.433,5.17-19.161.919-2.561.992-7.484,2.169-10.791.824-2.317,12.211-20.626,11.561-26.779S1076.482,1555.815,1076.482,1555.815Z" transform="translate(-1066.367 -1549.962)" fill="#393d63"/></g><path d="M1078.13,1506.366a6.213,6.213,0,0,0-6.366,5.876,15.009,15.009,0,0,0,.531,2.326c.347,1.02-.489,4.08-.245,4.224a6.6,6.6,0,0,0,1.244.306s1.163,3.285,2.326,3.223a9.659,9.659,0,0,0,7.5-5.278C1085.082,1512.861,1085.544,1506.515,1078.13,1506.366Z" transform="translate(-1029.097 -1505.563)" fill="#eea886"/><path d="M1071.4,1512.3a16.511,16.511,0,0,0,6,2.272c2.964.326,4.938,3.322,4.938,3.322s4.34-5.771.584-10.232S1070.594,1506.66,1071.4,1512.3Z" transform="translate(-1028.73 -1505.626)" fill="#3b3b40"/><path d="M1068.424,1557.274c.912,2.028-.779,8.516-1.346,11.684-1.253,5.741-1.52,6.549-2.307,9.382-.671,2.97-1.16,3.214-.958,7.089,1.7,5.41,2.443,5.576,5.181,6.82,2.367,2.243,7.052.747,11.411,1.495,5.106.5,17.065-2.115,10.088-10.088,0,0,.307-9.045-4.237-26.382-.91-3.477-5.574-9.434-4.84-14s1.3-17.557-4.675-22.2c0,0-9.436,8.839-10.66,11.77s3.28,13.742,2.913,16.939S1067.431,1555.06,1068.424,1557.274Z" transform="translate(-1023.677 -1504.314)" fill="#5089cc"/><path d="M1074.517,1520.839a1.725,1.725,0,0,1,.542.942,9.524,9.524,0,0,0,3.228-3.269A9.881,9.881,0,0,1,1074.517,1520.839Z" transform="translate(-1026.012 -1504.532)" fill="#a77860"/><path d="M1069.311,1538.9l.434.812.455.852c.2-2.45.3-8.42.3-8.42a27.1,27.1,0,0,1-.529,2.707C1069.716,1535.718,1069.363,1538.484,1069.311,1538.9Z" transform="translate(-1011.576 -1501.374)" fill="#3e6499"/><path d="M1125.58,1549.089l-49.4,42.345.505.56,49.968-41.291Z" transform="translate(-1076.178 -1501.935)" fill="#161616"/><path d="M1074.977,1543.674c.168.328.721,1.4,1.459,2.824h0c1.2.529,2.033-13.91-2.085-16.244,0,0,1.39,8.9,1.349,9.4S1074.977,1543.674,1074.977,1543.674Z" transform="translate(-1024.963 -1503.535)" fill="#3e6499"/><path d="M1064.3,1505.633s7.7-.6,7.357,8.773,1.23,11.832,4.636,16.077.419,9.537-2.883,6.812a21.938,21.938,0,0,1-7.161-15.461A112.633,112.633,0,0,0,1064.3,1505.633Z" transform="translate(-1014.431 -1505.626)" fill="#3b3b40"/><g transform="translate(40.475 49.738)"><path d="M1085.71,1557.158a2.206,2.206,0,0,0,.1-.7s-.107-.422-.163-.729a1.985,1.985,0,0,1-.034-.238,4.1,4.1,0,0,0-.156-1.3,27.674,27.674,0,0,0-1.6-2.718l-1.388.432-1.357.218a27.515,27.515,0,0,0-.649,4.009,1.432,1.432,0,0,0,.041.149,5.192,5.192,0,0,0,.53.935c.038.082.462.871.724.923a.872.872,0,0,0,.829-.2,2.09,2.09,0,0,0,1.142-.137,1.3,1.3,0,0,0,1.1-.334S1085.507,1557.511,1085.71,1557.158Z" transform="translate(-1080.464 -1551.471)" fill="#eea886"/></g><g transform="translate(41.106 17.916)"><path d="M1078.953,1522.234a6.661,6.661,0,0,0-1.712,4.1c.066,2.174,1.386,4.55,1.7,5.427s2.362,9.9,2.286,10.225c-.169.649-1.414,1.684-4.694,5.477a75.925,75.925,0,0,1-6.132,7.088l3.68,1.025s12.364-9.562,11.94-12.648c-.455-3.3-1.226-13.245-1.226-13.245S1084.153,1521.155,1078.953,1522.234Z" transform="translate(-1070.405 -1522.14)" fill="#5b94e2"/></g><path d="M1074.961,1513.8a.91.91,0,0,1,1.572-.693c.958.759-.224,3.51-1,3.264S1074.961,1514.387,1074.961,1513.8Z" transform="translate(-1025.073 -1505.015)" fill="#eea886"/><path d="M1081.751,1517a2.853,2.853,0,0,1,1.278-2.679l-1.854.146-.076,1.192S1081.141,1516.889,1081.751,1517Z" transform="translate(-1037.895 -1504.887)" fill="#b5826b"/><path d="M1082.768,1512.816l-7.572.933a.306.306,0,0,0-.253.4l1.051,3.139.309-.166-.273-2.2,6.737-1.708s1.741.987,1.773,1.976A2.22,2.22,0,0,0,1082.768,1512.816Z" transform="translate(-1032.724 -1505.015)" fill="#161616"/></g><path d="M1071.918,1515.066s.053,7.938-2.148,10.379-6.644,9.766-5.186,11.928a2.921,2.921,0,0,0,5.186-.575,27.642,27.642,0,0,0,1.488-4.882s-2.1-9.04,2.555-7.943c2.939.693,4.658,5.889,4.658,5.889l7.646,2.484s-4.741-6.488-5.441-12.738,1.23-14.27-7.45-13.98-7.871,6.137-7.871,6.137Z" transform="translate(-1022.753 -1505.619)" fill="#393d63"/><path d="M1072.769,1508l-.217.441-.486.071.352.343-.083.484.435-.229.435.229-.083-.484.352-.343-.486-.071Z" transform="translate(-1018.539 -1505.417)" fill="#fff" opacity="0.8"/><path d="M1075.245,1509.568l-.217.441-.486.071.352.343-.083.484.435-.229.435.229-.083-.484.352-.343-.486-.071Z" transform="translate(-1023.7 -1505.283)" fill="#fff" opacity="0.8"/><path d="M1075.893,1506.763l-.217.441-.486.071.352.343-.083.484.435-.229.435.229-.083-.484.352-.343-.486-.071Z" transform="translate(-1025.052 -1505.522)" fill="#fff" opacity="0.8"/><path d="M1080.067,1507.594l-.217.44-.486.071.352.343-.083.484.435-.229.435.229-.083-.484.352-.343-.486-.071Z" transform="translate(-1033.754 -1505.451)" fill="#fff" opacity="0.8"/><path d="M1079.227,1510.487l-.217.441-.486.071.352.343-.083.484.435-.229.435.229-.083-.484.352-.343-.486-.071Z" transform="translate(-1032.003 -1505.205)" fill="#fff" opacity="0.8"/><path d="M1075.406,1512.816l-.217.441-.486.071.352.343-.083.484.435-.229.435.229-.083-.484.352-.343-.486-.071Z" transform="translate(-1024.035 -1505.007)" fill="#fff" opacity="0.8"/><path d="M1072.121,1512.316l-.218.441-.486.071.352.343-.083.484.435-.229.435.229-.083-.484.352-.343-.486-.071Z" transform="translate(-1017.187 -1505.05)" fill="#fff" opacity="0.8"/><path d="M1070.472,1510.487l.109.333.243.053-.176.259.041.366-.217-.173-.217.173.042-.366-.176-.259.243-.053Z" transform="translate(-1013.779 -1505.205)" fill="#fff" opacity="0.5"/><path d="M1070.312,1515.175l.109.333.243.053-.176.259.042.365-.218-.172-.217.172.041-.365-.176-.259.243-.053Z" transform="translate(-1013.444 -1504.807)" fill="#fff" opacity="0.5"/><path d="M1069.987,1519.552l.109.333.243.053-.176.259.041.366-.217-.173-.217.173.041-.366-.176-.259.243-.053Z" transform="translate(-1012.768 -1504.435)" fill="#fff" opacity="0.5"/><path d="M1068.246,1524.181l.109.333.243.053-.176.259.042.366-.217-.173-.217.173.041-.366-.176-.259.243-.053Z" transform="translate(-1009.138 -1504.042)" fill="#fff" opacity="0.5"/><path d="M1066.631,1527.662l.109.333.243.053-.176.259.041.366-.217-.172-.217.172.042-.366-.176-.259.243-.053Z" transform="translate(-1005.77 -1503.747)" fill="#fff" opacity="0.5"/><path d="M1072.942,1506.155l.185.3-.115.22.311.032.254.267.007-.277.272-.056-.307-.2-.085-.3-.2.152Z" transform="translate(-1019.871 -1505.575)" fill="#fff" opacity="0.7"/><path d="M1077.921,1506.389l.344.064.085.234.234-.208.368-.007-.2-.193.143-.238-.357.089-.28-.141-.021.248Z" transform="translate(-1030.37 -1505.587)" fill="#fff" opacity="0.7"/><path d="M1082.5,1511.332l.111-.332.244-.052-.174-.26.044-.365-.219.171-.216-.174.039.366-.178.258.243.055Z" transform="translate(-1038.866 -1505.22)" fill="#fff" opacity="0.7"/><path d="M1073.418,1516.795l-.217.44-.486.071.352.343-.083.484.435-.229.435.229-.083-.484.352-.343-.486-.071Z" transform="translate(-1019.891 -1504.67)" fill="#fff" opacity="0.8"/><path d="M1075.56,1515.489l-.217.44-.486.071.352.343-.083.484.435-.229.435.229-.083-.484.352-.343-.486-.071Z" transform="translate(-1024.356 -1504.781)" fill="#fff" opacity="0.8"/><path d="M1075.893,1520.254l-.217.44-.486.071.352.343-.083.484.435-.229.435.229-.083-.484.352-.343-.486-.071Z" transform="translate(-1025.052 -1504.376)" fill="#fff" opacity="0.8"/><path d="M1072.468,1520.565l-.217.44-.486.071.352.343-.083.484.435-.229.435.229-.083-.484.352-.343-.486-.071Z" transform="translate(-1017.91 -1504.35)" fill="#fff" opacity="0.8"/><path d="M1071.109,1524.03l-.217.44-.486.071.352.343-.083.484.435-.229.435.229-.083-.484.352-.343-.486-.071Z" transform="translate(-1015.077 -1504.055)" fill="#fff" opacity="0.8"/><path d="M1080.524,1526.208l-.218.441-.486.071.352.343-.083.484.435-.229.435.229-.083-.484.352-.343-.486-.071Z" transform="translate(-1034.707 -1503.87)" fill="#fff" opacity="0.8"/><path d="M1081.631,1529.851l-.218.44-.486.071.352.343-.083.484.435-.229.435.229-.083-.484.352-.343-.486-.071Z" transform="translate(-1037.015 -1503.561)" fill="#fff" opacity="0.8"/><path d="M1081.172,1533.172l-.217.441-.486.071.352.343-.083.484.435-.229.435.229-.083-.484.352-.343-.486-.071Z" transform="translate(-1036.059 -1503.279)" fill="#fff" opacity="0.8"/><path d="M1079.053,1529.941l-.164.332-.366.053.265.258-.062.364.327-.172.327.172-.063-.364.265-.258-.366-.053Z" transform="translate(-1031.655 -1503.553)" fill="#fff" opacity="0.8"/><path d="M1083.733,1532.331l-.13.264-.292.042.211.206-.05.29.261-.137.261.137-.05-.29.211-.206-.292-.042Z" transform="translate(-1041.422 -1503.35)" fill="#fff" opacity="0.6"/></g><g transform="translate(793.024 1489)"><g transform="translate(0 0)"><path d="M3294.832,1626.925l41.869,38.762,30.141-1.2-57.7-53.1-1.725,1.875-10.859,11.8Z" transform="translate(-3147.529 -1475.015)" fill="#28c76f"/><rect width="6.638" height="16.036" transform="translate(155.008 133.747) rotate(42.649)" fill="#008454"/><circle cx="64.693" cy="64.693" r="64.693" transform="translate(91.489 182.978) rotate(-135)" fill="#b8b8b8" opacity="0.2"/><path d="M3744.062,733.147a76.892,76.892,0,1,1-76.891,76.892A76.892,76.892,0,0,1,3744.062,733.147Zm0,149.2c35.368,0,71.526-30.688,71.526-72.308s-36.158-71.089-71.526-71.089-71.264,29.773-71.264,71.089S3708.693,882.347,3744.062,882.347Z" transform="translate(-3652.574 -718.549)" fill="#28c76f"/></g></g><g transform="translate(-5318.53 496.946)"><g transform="translate(6055.2 1070.17)"><g transform="translate(10.567 29.959)"><path d="M48.261,252.057h.566v-1.725h-.566a2.584,2.584,0,0,1-2.571-2.3l-3.235-27.32a4.624,4.624,0,0,0-4.571-4.077l-3.466-.012-.006,1.726,3.467.012a2.9,2.9,0,0,1,2.863,2.554l3.234,27.312A4.3,4.3,0,0,0,48.261,252.057Z" transform="translate(-26.53 -216.116)" fill="#989898"/><path d="M77.646,280.262h1.725v-26.55H49.324v12.681h1.725V255.437h26.6Z" transform="translate(-27.889 -219.496)" fill="#989898"/><path d="M48.15,223.69,50.6,245.14a2.276,2.276,0,0,0,2.261,2.018H75.277a3.873,3.873,0,0,1,3.873,3.873v.039H49.744a3.373,3.373,0,0,1-3.35-2.981l-3.2-27.255,1.132-.144A3.413,3.413,0,0,1,48.15,223.69Z" transform="translate(-27.33 -216.484)" fill="#827566"/><g transform="translate(46.374 50.468)"><g transform="translate(0 0)"><ellipse cx="5.926" cy="5.926" rx="5.926" ry="5.926" transform="translate(0 2.723) rotate(-13.283)" fill="#989898"/><path d="M84.086,276.97a4.519,4.519,0,1,1-4.519,4.519,4.523,4.523,0,0,1,4.519-4.519Zm0-1.763a6.282,6.282,0,1,0,6.282,6.282,6.282,6.282,0,0,0-6.282-6.282Z" transform="translate(-76.957 -274.36)" fill="#100f0f"/></g><path d="M83.668,281.071a2,2,0,0,0,2.825,2.825A2,2,0,0,0,83.668,281.071Z" transform="translate(-77.952 -275.355)" fill="#3c3b3b"/></g><g transform="translate(1.398 24.623)"><path d="M47.53,261.791a4.729,4.729,0,1,0,6.241,2.4A4.729,4.729,0,0,0,47.53,261.791Z" transform="translate(-29.262 -245.925)" fill="#989898"/><rect width="37.482" height="1.223" transform="matrix(0.359, -0.933, 0.933, 0.359, 12.929, 37.441)" fill="#989898"/><rect width="1.223" height="37.482" transform="translate(12.059 3.291) rotate(-23.962)" fill="#989898"/><rect width="1.223" height="37.482" transform="matrix(0.359, -0.933, 0.933, 0.359, 2.518, 14.011)" fill="#989898"/><rect width="37.482" height="1.223" transform="matrix(0.914, -0.406, 0.406, 0.914, 2.854, 27.221)" fill="#989898"/><path d="M38.805,245.43a19.768,19.768,0,1,1-10.038,26.092A19.79,19.79,0,0,1,38.805,245.43Zm1.1,2.477a17.058,17.058,0,1,0,22.515,8.662A17.077,17.077,0,0,0,39.906,247.907Z" transform="translate(-26.645 -243.308)" fill="#989898"/><path d="M39.513,282.257A20.181,20.181,0,1,0,54,244.587a20.373,20.373,0,0,0-5.406-1.267,20.184,20.184,0,0,0-9.086,38.938Zm-9.868-25.419a18.337,18.337,0,1,1,10.528,23.7A18.359,18.359,0,0,1,29.645,256.838Z" transform="translate(-26.572 -243.234)" fill="#564e4e"/><path d="M49.106,264.69a2.092,2.092,0,0,0,1.7,3.821A2.092,2.092,0,0,0,49.106,264.69Z" transform="translate(-29.739 -246.398)" fill="#3c3b3b"/></g><rect width="9.934" height="2.875" rx="1.137" transform="translate(0)" fill="#6b6052"/></g><path d="M32.815,220.688,36.2,248.022h16.1V220.688Z" transform="translate(-15.818 -186.527)" fill="#827566"/><g transform="translate(21.058 0)"><g transform="matrix(0.978, -0.208, 0.208, 0.978, -1180.39, -1474.83)"><g transform="translate(882.045 1734.926)"><path d="M4999.154,1043.119s1.182.761,1.86.336a4.5,4.5,0,0,1,1.9-.428c.415-.021,1.664-.562,1.7-.038s-2.017.99-2.428,1.173,1.4,1.065,1.6,1.486-1.426,3.329-2.6,2.58-1.924-2.32-2.156-2.411a8.5,8.5,0,0,1-.872-.511Z" transform="translate(-4998.154 -1042.761)" fill="#ffc990"/></g><g transform="translate(857.966 1710.841)"><path d="M5018.38,904.716a6.449,6.449,0,0,1,3.963,1.64c1.435,1.537,2.152,4.066,2.528,4.885s5.124,8.4,5.4,8.575,5.1,4.065,7.286,6.149a38.444,38.444,0,0,0,6.448,4.407l-1.605,2.255s-12.948-6.9-14.588-9.429-8.371-9.395-8.371-9.395S5014.075,907.517,5018.38,904.716Z" transform="translate(-5016.708 -904.716)" fill="#ffc990"/></g><g transform="translate(885.132 1737.574)"><path d="M4986.252,1057.937a30.956,30.956,0,0,1,3.514,2.889c.087.36-.061.537-.391.314s-3.382-2.348-3.382-2.348,3.554,3.675,3.689,3.954c.08.163-.186.524-.375.421s-3.917-3.544-3.917-3.544,3.312,3.437,3.355,3.7a.329.329,0,0,1-.552.266c-.263-.238-3.517-3.255-3.517-3.255s2.253,2.654,2.157,2.9c-.059.152-.274.474-.834-.229s-2.055-2.222-2.055-2.222Z" transform="translate(-4983.945 -1057.937)" fill="#ffc990"/></g></g><path d="M61.429,214.066l.121,1.984.047.777a8.668,8.668,0,0,1-.923.232c-1.607.39-4.223,1.148-5.873.755l.017-8.08c-.043-2.677.5-5.217,1.451-5.285C62.254,207.866,60.95,208.034,61.429,214.066Z" transform="translate(-158.939 -103.817) rotate(-39)" fill="#ededed"/><path d="M56.888,236.717v12.768q5.579-.236,11.148-.7c.3-.025,2.361-.081,3.183-.215,1.653-2.217,3.306-4.735,4.96-7.207C70.427,238.134,63.528,236.839,56.888,236.717Z" transform="translate(-39.07 -187.988)" fill="#f2bf89"/><path d="M76.161,274c.138-.967.256-1.937.373-2.907.471-3.927.876-9.59,1.277-13.525.205-2.015.375-4.037.626-6.048a45.928,45.928,0,0,0,.618-6.811,2.833,2.833,0,0,0-.379-1.819,3.182,3.182,0,0,0-1.336-1.069c-2.332,1.846-4.628,3.708-6.881,5.311.2.031.339.034.358,0a14.094,14.094,0,0,0-.67,2,20.529,20.529,0,0,0-.406,6.864c.359,4.113,1.5,10.037,2.038,13.888a28.064,28.064,0,0,1,.274,3.141c.009.4.007.773-.008,1.145,0,.084-.005.166-.013.249-.008.146-.015.289-.03.434.666.127,3.128,1.106,3.745,1.2A7.078,7.078,0,0,0,76.161,274Z" transform="translate(-40.231 -188.453)" fill="#f2bf89"/><g transform="translate(30.751 83.854)"><g transform="translate(0.181)"><path d="M72.209,276.837c-.075-1.827,2.211-.586,3.494-1.473,2.359,4.563,8.893,6.581,8.9,6.578,1.023.027,1.971-.083,1.926.813-.033.633-.922,1.545-3.575,1.007-4.078-.583-5.424-1.3-7.894-.834-1.97.37-2.754.656-3.391-.255C70.663,281.243,72.135,279.508,72.209,276.837Z" transform="translate(-71.316 -275.364)" fill="#f2bf89"/></g><path d="M86.924,283.135c-.194,2-8.721.648-11.853.485-2-.1-2.987.3-3.617-.621-.717-1.02-.191-3.506.647-5.1,2.548,1.339,5.35,3.162,8.08,2.238.008,0,.017-.009.025-.009,2.425.926,4.334,1.629,4.342,1.632C85.9,282.27,87.009,282.248,86.924,283.135Z" transform="translate(-71.117 -275.595)" fill="#212121"/></g><path d="M56.888,236.867v11.147c2.478-.132,4.956-.29,7.431-.5.269-.023,2.106-.073,2.838-.193,1.474-1.977,2.948-4.222,4.423-6.427A35.166,35.166,0,0,0,56.888,236.867Z" transform="translate(-39.07 -188.002)" fill="#f2bf89"/><path d="M72.127,244.706c.008.242.008.475,0,.717a30.972,30.972,0,0,1-.268,3.455c-.113.882-.242,1.763-.354,2.644-.25,2-.414,4.026-.622,6.048-.2,1.961-.4,4.354-.613,6.747v.017c-.207,2.393-.424,4.794-.665,6.756-.086.778-.19,1.564-.294,2.341-.026.19-.052.38-.078.571a6.81,6.81,0,0,1-.414,2.047,19.535,19.535,0,0,1-1.987-.639l-.8-.276a9.123,9.123,0,0,0-.959-.285c.009-.077.009-.146.017-.225s.009-.147.009-.216a2.381,2.381,0,0,0,.008-.242c0-.061.009-.121.009-.19q.012-.466,0-.959a27.241,27.241,0,0,0-.268-3.145c-.536-3.844-1.685-9.771-2.039-13.883a22.164,22.164,0,0,1,.146-5.668c.044-.224.086-.449.13-.674.043-.173.086-.354.129-.527.035-.121.061-.242.1-.363.06-.233.138-.466.207-.7.112-.311.224-.622.354-.933-.017.043-.155.035-.354.008,1.5-1.072,3.049-2.263,4.6-3.49.778-.613,1.556-1.235,2.333-1.849.259.285.527.57.777.863l.234.285A2.883,2.883,0,0,1,72.127,244.706Z" transform="translate(-39.599 -188.451)" fill="#ffc990"/><g transform="translate(24.475 83.858)"><g transform="translate(0.16)"><path d="M79.633,282.85a.8.8,0,0,1-.165.424,1.452,1.452,0,0,1-.725.493,2.731,2.731,0,0,1-.441.112,1.686,1.686,0,0,1-.224.035,6.71,6.71,0,0,1-2.057-.146c-.906-.13-1.676-.268-2.349-.4-.285-.053-.544-.1-.8-.147-.6-.121-1.132-.224-1.632-.3l-.337-.052a8.135,8.135,0,0,0-2.661.044.56.56,0,0,0-.121.017c-1.97.371-2.756.656-3.386-.259-.717-1.02-.173-2.2.224-3.767a10.155,10.155,0,0,0,.251-1.235c.026-.2.044-.414.061-.631,0-.069.008-.13.008-.2-.035-.89.493-1.053,1.192-1.08a4.46,4.46,0,0,0,2.3-.389,8.675,8.675,0,0,0,.692,1.123,11.154,11.154,0,0,0,1.71,1.84l.19.164a15.061,15.061,0,0,0,1.952,1.4,20.559,20.559,0,0,0,4.354,2.048C78.691,281.969,79.675,281.96,79.633,282.85Z" transform="translate(-64.388 -275.368)" fill="#ffc990"/><path d="M79.633,282.85a.8.8,0,0,1-.165.424,1.452,1.452,0,0,1-.725.493,2.731,2.731,0,0,1-.441.112,1.686,1.686,0,0,1-.224.035,6.71,6.71,0,0,1-2.057-.146c-.906-.13-1.676-.268-2.349-.4-.285-.053-.544-.1-.8-.147-.6-.121-1.132-.224-1.632-.3l-.337-.052a8.135,8.135,0,0,0-2.661.044.56.56,0,0,0-.121.017c-1.97.371-2.756.656-3.386-.259-.717-1.02-.173-2.2.224-3.767a10.155,10.155,0,0,0,.251-1.235c.026-.2.044-.414.061-.631,0-.069.008-.13.008-.2-.035-.89.493-1.053,1.192-1.08a4.46,4.46,0,0,0,2.3-.389,8.675,8.675,0,0,0,.692,1.123,11.154,11.154,0,0,0,1.71,1.84l.19.164a15.061,15.061,0,0,0,1.952,1.4,20.559,20.559,0,0,0,4.354,2.048C78.691,281.969,79.675,281.96,79.633,282.85Z" transform="translate(-64.388 -275.368)" fill="#ffc990"/></g><path d="M80.023,283.132a.709.709,0,0,1-.225.441,2.12,2.12,0,0,1-.942.441,4.9,4.9,0,0,1-.57.095,1.691,1.691,0,0,1-.224.035c-2.652.294-7.317-.363-9.633-.509-.095-.009-.181-.017-.259-.017-2-.1-2.989.3-3.62-.614-.717-1.02-.19-3.508.648-5.106.009.008.026.008.035.017.311.164.631.337.942.51l.83.44a13.178,13.178,0,0,0,3.628,1.418c.1.017.19.034.285.043a4.987,4.987,0,0,0,2.359-.19c.008,0,.017-.009.025-.009,2.428.924,4.337,1.633,4.337,1.633C78.994,282.269,80.1,282.251,80.023,283.132Z" transform="translate(-64.212 -275.598)" fill="#212121"/></g><path d="M71.212,236.774a9.629,9.629,0,0,0-1.891.8,15.277,15.277,0,0,0-3.4,2.609,31.156,31.156,0,0,0-3.567,4.345c-.19.277-.372.536-.527.778-.216.311-.414.6-.588.855s-.336.51-.484.7c-.3.423-.5.656-.6.6-16.561.786-22.686,1.114-17.2-19.533-.294-.881-.674-2.1-1.089-3.456a.029.029,0,0,1-.008-.017c-.035-.1-.061-.19-.087-.294q-.13-.4-.259-.83v-.017c-.466-1.521-.942-3.127-1.356-4.562-.64-2.229-1.141-4.052-1.2-4.527-.328-2.255-1.114-5.166.363-7.3a3.97,3.97,0,0,1,.345-.432,65.352,65.352,0,0,1,6.4-2.454,27.8,27.8,0,0,1,7.024.086c1.866.674,2.928-.348,3.784.2,1.278,2.834,1.192,6.31,1.011,9.23-.052,1.158-.146,2.349-.267,3.559-.078.778-.156,1.563-.251,2.35v.025c-.061.493-.121.985-.19,1.469-.1.734-.2,1.469-.3,2.194-.112.743-.224,1.478-.345,2.195-.13.76-.259,1.511-.4,2.238.086.216.181.449.284.708.044.1.078.182.121.277.026.06.052.129.078.19a5.869,5.869,0,0,0,.864,1.451l.008.008c.1.113.19.216.294.328h.009c.095.1.19.19.294.276.069.07.138.13.216.2a12.574,12.574,0,0,0,2.635,1.555c.069.026.146.061.234.1.121.06.242.112.38.173.164.069.336.146.518.215v.009c1.123.466,2.445.976,4.009,1.59,1.469.579,3.145,1.252,5.071,2.082C71.169,236.757,71.187,236.766,71.212,236.774Z" transform="translate(-37.389 -184.994)" fill="#da3a34"/><g transform="translate(5.041 24.531)"><path d="M51.31,217.968a4.488,4.488,0,0,1-4.315,4.642c-2.383,0-4.012-1.194-4.16-4.189-.155-3.1,3.06-5.1,3.677-7.833C47.065,208.141,51.31,215.4,51.31,217.968Z" transform="translate(-42.829 -210.092)" fill="#da3a34"/><path d="M47.594,222.194c-2.516,0-4.234-1.25-4.392-4.383a4.423,4.423,0,0,1,.058-.924,4.712,4.712,0,0,0-.426,2.155c.148,2.995,1.777,4.189,4.16,4.189a4.28,4.28,0,0,0,3.8-2.437A4.4,4.4,0,0,1,47.594,222.194Z" transform="translate(-42.829 -210.711)" fill="#1d1d1b" opacity="0.2"/></g><g transform="translate(-843.729 -1691.961)"><g transform="translate(849.704 1691.676)"><path d="M5156.6,795c1.582-.557,7.4-1.923,8.765,5.51s-2.737,12.722-6.509,11.317-6.1-6.546-6.324-10.466A5.858,5.858,0,0,1,5156.6,795Z" transform="translate(-5152.519 -794.526)" fill="#ffc990"/></g><g transform="translate(848.917 1691.068)"><path d="M5167.567,797.9s.286-6.361-6.04-6.583-8.024,4.985-7.506,8.779a9.286,9.286,0,0,0,3.135,5.8s-.227-3.07,1-3.867,6.145-2.387,8.29-6.086A5.673,5.673,0,0,1,5167.567,797.9Z" transform="translate(-5153.934 -791.306)" fill="#252e3b"/></g><g transform="translate(846.372 1690.891)"><path d="M5202.528,796.464c-.833,2.533-3.3,4-5.518,3.268s-3.333-3.372-2.5-5.905,3.3-4,5.518-3.268S5203.361,793.931,5202.528,796.464Z" transform="translate(-5194.234 -790.372)" fill="#252e3b"/></g><g transform="translate(852.083 1704.328)"><path d="M5182.785,865.158a30.1,30.1,0,0,0-.349,4.766s-3.15,4.482-6.606-1.527a7.591,7.591,0,0,0,.36-5.852C5175.1,859.17,5182.785,865.158,5182.785,865.158Z" transform="translate(-5175.83 -861.513)" fill="#ffc990"/></g><g transform="translate(851.897 1699.854)"><path d="M5199.075,838.411a.976.976,0,0,0-1.443-.414c-.444.333-.7,1.331,0,2.626S5200.813,842.819,5199.075,838.411Z" transform="translate(-5197.197 -837.826)" fill="#ffc990"/></g><g transform="translate(853.139 1706.929)"><path d="M5182.165,877.4l-.11.962s-2.44.429-5.645-3.081A7.279,7.279,0,0,0,5182.165,877.4Z" transform="translate(-5176.41 -875.285)" fill="#a77860"/></g></g><g transform="translate(13.306 23.912)"><path d="M51.923,217.287a4.489,4.489,0,0,0,4.314,4.643c2.383,0,4.012-1.2,4.161-4.19.155-3.1-3.06-5.1-3.678-7.833C56.167,207.46,51.923,214.722,51.923,217.287Z" transform="translate(-51.923 -209.411)" fill="#da3a34"/><path d="M55.69,221.514c2.515,0,4.234-1.251,4.392-4.384a4.485,4.485,0,0,0-.058-.924,4.712,4.712,0,0,1,.426,2.155c-.149,2.995-1.778,4.19-4.161,4.19a4.28,4.28,0,0,1-3.8-2.438A4.4,4.4,0,0,0,55.69,221.514Z" transform="translate(-51.975 -210.03)" fill="#1d1d1b" opacity="0.2"/></g><path d="M48.8,209.675,44.1,204.883l1.871-1.531,4.933,3.816Z" transform="translate(-37.905 -184.947)" fill="#ededed"/><path d="M53.9,209.247l1.849-4.689-1.906-1.368-2.254,3.963Z" transform="translate(-38.587 -184.933)" fill="#ededed"/><path d="M37.283,209.694h0Z" transform="translate(-37.283 -185.525)" fill="#1d1d1b" opacity="0.2"/><path d="M51.39,279.774c4.054.056,7.781.886,11.815.459,1.232-.132,2.647.037,3.885,0,1.841-.063,3.758-.025,5.594.063,2.9.132,5.964-.095,8.842.207,1.5.157,3.048-.911,4.507-1.276a13.635,13.635,0,0,1-4.079-5.549,27.428,27.428,0,0,1-1.069-3.683c-.327-1.371-.647-2.734-.974-4.1a50.885,50.885,0,0,1-1.628-9.295c-.019-.415-.031-.823-.037-1.232v-.013c-.025-3.456.49-6.926.2-10.37a4.932,4.932,0,0,0-.415-1.841,4.689,4.689,0,0,0-1.288-1.458,24.081,24.081,0,0,0-5.833-3.237,98.125,98.125,0,0,0-10.018-3.62c-2.791,1.835-5.638,3.909-7.052,6.933-1.534,3.286-1.106,7.1-.9,10.722a132.628,132.628,0,0,1-.793,20.106c-.151,1.515-.307,3.017-.471,4.488-.095.873-.183,1.74-.276,2.6C51.4,279.7,51.4,279.736,51.39,279.774Z" transform="translate(-38.569 -187.815)" fill="#1d3b54"/><path d="M51.39,281.789c4.054.056,7.781.886,11.815.459,1.232-.132,2.647.037,3.885,0,1.841-.063,3.758-.025,5.594.063,2.9.132,5.964-.094,8.842.207,1.5.157,3.048-.911,4.507-1.276a13.636,13.636,0,0,1-4.079-5.55,27.427,27.427,0,0,1-1.069-3.683c-.327-1.371-.647-2.734-.974-4.1a50.886,50.886,0,0,1-1.628-9.295c-.019-.415-.031-.823-.037-1.232v-.013c-.025-.145-.051-.283-.075-.427-.773,6.819,1.7,13.563,2.161,20.408a2.263,2.263,0,0,1-.214,1.389,1.567,1.567,0,0,1-2.055.314,4.107,4.107,0,0,1-1.427-1.76,5.933,5.933,0,0,0-1.27-1.892c-.628,1.037.176,2.772-.867,3.395a1.637,1.637,0,0,1-1.791-.359,6.336,6.336,0,0,1-2.036-4.613c-.114-1.722.157-3.457.157-5.186a16.32,16.32,0,0,0-1.666-7.089,27,27,0,0,1-.854,7.435,12.442,12.442,0,0,1-2.955,6.159,11.25,11.25,0,0,1-3.092,2.017c-3.545,1.7-7.46,2.565-10.86,4.526C51.4,281.72,51.4,281.752,51.39,281.789Z" transform="translate(-38.569 -189.831)" fill="#1d1d1b" opacity="0.2"/><path d="M51.708,278.582a54.4,54.4,0,0,1,5.575-2.967,18.321,18.321,0,0,0,2.577-1.251c2.8-1.785,4.016-5.2,4.9-8.4a23.914,23.914,0,0,0,.691-3.093c.2-1.439.157-2.891.258-4.336a45.3,45.3,0,0,1,1.27-7.14,18.926,18.926,0,0,0-2.816,7.033c-.214,1.188-.314,2.389-.56,3.57a14.5,14.5,0,0,1-4.763,7.97,47.2,47.2,0,0,1-6.637,4.11c-.006.006-.019.013-.025.019C52.028,275.609,51.872,277.11,51.708,278.582Z" transform="translate(-38.598 -189.325)" fill="#1d1d1b" opacity="0.2"/><path d="M38.628,28.48c-.127.836,4.283-.105,8.92,16.151.091.318.375,1.359.375,1.359s2.92,4.229,4.732,1.208,1.913-3.927,1.913-3.927.808-.964.388-5.506c-.163-.794.015-3.452,0-4.528s-.1-5.665-1.441-6.938a1.126,1.126,0,0,0-.784-.161,1.031,1.031,0,0,0-.78.537s1.1,7.836-.515,12.606c-.022.075-.534,3.038-.534,3.038a38.807,38.807,0,0,0-2.979-8.459c-1.511-2.961-3.869-5.474-6.372-6.348-.115-.046-.776-.146-.776-.146S38.755,27.644,38.628,28.48Z" transform="translate(-34.986 -7.644)" fill="#0b5b73"/><path d="M46.988,33.249c-.833-.578,1.047,1.695,2.679,5.295a70.884,70.884,0,0,1,2.926,8.277,35.924,35.924,0,0,0-1.833-7.643A16.3,16.3,0,0,0,46.988,33.249Z" transform="translate(-38.446 -10.257)" fill="#0e4e61"/><path d="M5640.439,1254.046c.243,3.356.857,3.516-1.146,9.67,0,.012-.717,1.321-1.176-1.433" transform="translate(-5621.576 -1225.637)" fill="#fff" opacity="0.13"/><path d="M5641.342,1256.444c.326-1.952.093,3.774-1.544,6.064.008,0-.273.308-.273.308l-.514-1.736A14.306,14.306,0,0,0,5641.342,1256.444Z" transform="translate(-5622.963 -1226.212)" fill="#0e4e61"/></g><path d="M38.32,221.518c4.073,8.064-.365,13.739,1.508,22.287a15.906,15.906,0,0,0,.635,2.909,3.126,3.126,0,0,0,.88,1.308,2.514,2.514,0,0,0,1.691.572c5.443,0,7.611-.578,13.048-.572,1.942.006,4.174.44,6.109.572A17.779,17.779,0,0,1,67.9,249.8l.207.075c.6-1.716-.5-3.658-2.049-4.62a12.164,12.164,0,0,0-5.229-1.37c-1.873-.2-3.74-.409-5.612-.61-.811-.088-1.628-.176-2.439-.308a14.381,14.381,0,0,1-2.9-.742,7.031,7.031,0,0,1-4-3.495c-1.037-2.344-.239-4.991-.063-7.586.747.364,1.5.729,2.249,1.088a25.958,25.958,0,0,1,4.721,2.708c.081.063.163.126.238.189,1.157.942,2.125,2.087,3.249,3.06a7.193,7.193,0,0,0,3.929,1.955,3.585,3.585,0,0,0,3.664-1.98.645.645,0,0,0,.063-.264.754.754,0,0,0-.207-.4,7.594,7.594,0,0,0-2.96-2.1,3.957,3.957,0,0,1-1.942-1.238,14.817,14.817,0,0,0-2.69-1.8c-1.118-.629-2.23-1.263-3.343-1.892q-3.007-1.705-6.015-3.406a12.06,12.06,0,0,0-1.729-.861c-.22-.629-.472-1.257-.716-1.873q-.736-1.828-1.459-3.652H38.036A3.222,3.222,0,0,0,38.32,221.518Z" transform="translate(-16.293 -186.527)" fill="#1d1d1b" opacity="0.2"/><g transform="translate(0 29.959)"><g transform="translate(-759.67 -1740.075)"><g transform="translate(793.321 1748.561)"><path d="M5254.262,1166.438v-4.183a1.224,1.224,0,0,0-1.222-1.222h-6.634a1.223,1.223,0,0,0-1.222,1.222v4.183a1.223,1.223,0,0,0,1.222,1.222h6.634A1.223,1.223,0,0,0,5254.262,1166.438Zm-1.222-4.585a.4.4,0,0,1,.4.4v4.183a.4.4,0,0,1-.4.4h-6.634a.4.4,0,0,1-.4-.4v-4.183a.4.4,0,0,1,.4-.4Z" transform="translate(-5245.185 -1161.033)" fill="#0e1e2b"/></g><g transform="translate(785.415 1753.393)"><rect width="24.889" height="17.832" transform="translate(0 0)" fill="#54281a"/></g><g transform="translate(785.415 1753.393)"><rect width="24.889" height="10.336" transform="translate(0 0)" fill="#873f2b"/></g></g><path d="M36.635,252.057H37.2v-1.725h-.566a2.584,2.584,0,0,1-2.571-2.3l-3.235-27.32a4.624,4.624,0,0,0-4.571-4.077l-3.466-.012-.006,1.726,3.467.012a2.9,2.9,0,0,1,2.863,2.554l3.234,27.312A4.3,4.3,0,0,0,36.635,252.057Z" transform="translate(-14.904 -216.116)" fill="#c6c6c6"/><path d="M66.02,280.262h1.725v-26.55H37.7v12.681h1.725V255.437h26.6Z" transform="translate(-16.263 -219.496)" fill="#c6c6c6"/><path d="M36.524,223.69l2.448,21.449a2.276,2.276,0,0,0,2.261,2.018H63.651a3.873,3.873,0,0,1,3.873,3.873v.039H38.118a3.373,3.373,0,0,1-3.35-2.981l-3.2-27.255,1.132-.144A3.413,3.413,0,0,1,36.524,223.69Z" transform="translate(-15.704 -216.484)" fill="#827566"/><g transform="translate(46.374 52.806)"><g transform="translate(0 0)"><ellipse cx="6.617" cy="6.617" rx="6.617" ry="6.617" transform="translate(0 3.04) rotate(-13.283)" fill="#c6c6c6"/><path d="M73.192,277.176a5.046,5.046,0,1,1-5.045,5.045,5.051,5.051,0,0,1,5.045-5.045Zm0-1.969a7.014,7.014,0,1,0,7.015,7.014,7.014,7.014,0,0,0-7.015-7.014Z" transform="translate(-65.232 -274.261)" fill="#323031"/></g><path d="M72.1,281.131a2.232,2.232,0,0,0,3.155,3.155A2.232,2.232,0,0,0,72.1,281.131Z" transform="translate(-65.72 -274.749)" fill="#706f6f"/></g><g transform="translate(0.756 24.693)"><rect width="39.996" height="1.305" transform="matrix(0.359, -0.933, 0.933, 0.359, 13.796, 39.952)" fill="#c6c6c6"/><rect width="1.305" height="39.996" transform="translate(12.867 3.512) rotate(-23.962)" fill="#c6c6c6"/><rect width="1.305" height="39.996" transform="matrix(0.359, -0.933, 0.933, 0.359, 2.687, 14.95)" fill="#c6c6c6"/><rect width="39.996" height="1.305" transform="matrix(0.914, -0.406, 0.406, 0.914, 3.045, 29.046)" fill="#c6c6c6"/><path d="M27.967,245.544a21.094,21.094,0,1,1-10.711,27.842A21.118,21.118,0,0,1,27.967,245.544Zm1.174,2.643a18.2,18.2,0,1,0,24.025,9.243A18.222,18.222,0,0,0,29.141,248.187Z" transform="translate(-14.991 -243.279)" fill="#c6c6c6"/><path d="M28.755,284.875a21.535,21.535,0,1,0,15.464-40.2,21.74,21.74,0,0,0-5.769-1.352,21.538,21.538,0,0,0-9.695,41.55ZM18.225,257.75A19.567,19.567,0,1,1,29.46,283.036,19.59,19.59,0,0,1,18.225,257.75Z" transform="translate(-14.946 -243.235)" fill="#262123"/><path d="M36.092,261.818a5.046,5.046,0,1,0,6.659,2.563A5.046,5.046,0,0,0,36.092,261.818Z" transform="translate(-16.599 -244.889)" fill="#c6c6c6"/><path d="M37.559,264.7a2.232,2.232,0,0,0,1.811,4.077A2.232,2.232,0,0,0,37.559,264.7Z" transform="translate(-16.893 -245.179)" fill="#706f6f"/></g><rect width="9.934" height="2.875" rx="1.137" fill="#827566"/></g><g transform="translate(21.591 21.508)"><path d="M60.628,235.016a.766.766,0,0,1-.582-.913v0a.654.654,0,0,1,.784-.494,6.734,6.734,0,0,0,3.1.87c.55-.008,1.327.156.591.87a1.8,1.8,0,0,1-1.427.162Z" transform="translate(-39.888 -209.211)" fill="#ffc990"/><path d="M58.439,232.422l-.052.077-1.641,2.4-.838-.484c.008-.009,0-.009,0-.009H55.9l-.224-.129L42.5,226.633a3.271,3.271,0,0,1-.328-.484.029.029,0,0,1-.008-.017,2.192,2.192,0,0,1-.337-.993.625.625,0,0,1-.009-.13v-.017a2.724,2.724,0,0,1,.631-1.615l.035-.044a2.832,2.832,0,0,1,1.192-.933,2.68,2.68,0,0,1,.51-.155,2.894,2.894,0,0,1,1.054-.035h.008a2.638,2.638,0,0,1,.924.329.011.011,0,0,1,.017,0,2.407,2.407,0,0,1,.32.207l.752.6.354.294.009.009,10.16,8.233.008.008.432.354Z" transform="translate(-38.229 -208.171)" fill="#ffc990"/><g transform="translate(16.092 23.577)"><path d="M65.826,237.513l-.095-.095L64.28,235.95v-.009l-.017-.017-.2-.2-.035-.026-.121-.129a.361.361,0,0,0-.095-.069c0-.009,0-.009-.009-.009a.726.726,0,0,0-.518-.086.467.467,0,0,0-.138.052.541.541,0,0,0-.165.121h-.008l-.017.017a.7.7,0,0,0,.043.993.009.009,0,0,1,.009.009v.008l.372.294a.008.008,0,0,1,.008.009l.19.155.942.761.571.457c.008.009.017.018.025.018a.742.742,0,0,0,.234.155.683.683,0,0,0,.6-.07.517.517,0,0,0,.1-.146C66.2,237.98,66.077,237.739,65.826,237.513Z" transform="translate(-56.231 -232.952)" fill="#ffc990"/><path d="M65.273,238.567a1,1,0,0,0-.147-.122l-.138-.112-.484-.38-.959-.769-.268-.207c0-.009,0-.009-.009-.009s-.008-.017-.016-.025l-.268-.208c-.017-.008-.035-.025-.052-.025a.009.009,0,0,0-.009-.009.676.676,0,0,0-.855.147v.008a.822.822,0,0,0-.086.138.632.632,0,0,0-.06.415.41.41,0,0,0,.06.173.634.634,0,0,0,.234.294l.1.069,2.125,1.321.044.026a.662.662,0,0,0,.855.009.463.463,0,0,0,.121-.216A.528.528,0,0,0,65.273,238.567Z" transform="translate(-56.152 -233.063)" fill="#ffc990"/><path d="M64.354,239.355a1.076,1.076,0,0,0-.276-.233l-1.5-1h-.008l-.657-.44c-.008,0-.008-.009-.017-.009a.635.635,0,0,0-.838.19l-.008.008a.676.676,0,0,0,.224.951l.19.1,1.607.821h.008a.677.677,0,0,1,.1.06l.364.182a.624.624,0,0,0,.812-.061A.4.4,0,0,0,64.354,239.355Z" transform="translate(-56.063 -233.153)" fill="#ffc990"/><path d="M63.093,239.883a.67.67,0,0,0-.1-.06h-.008l-1.374-.8H61.59l-.656-.38-.06-.035a.622.622,0,0,0-.277-.069.593.593,0,0,0-.518.3.627.627,0,0,0,.121.777.049.049,0,0,0,.044.026.4.4,0,0,0,.1.077l2.2.933a.589.589,0,0,0,.752-.113C63.534,240.289,63.353,240.038,63.093,239.883Z" transform="translate(-55.978 -233.24)" fill="#ffc990"/><path d="M63.624,235.705V235.7l-.017-.017a.932.932,0,0,0-.077-.086H63.52l-.113-.112-.035-.026-.164-.146-.052-.052c0-.009,0-.009-.009-.009a7.046,7.046,0,0,0-1.062-.95c-.1-.07-.207-.138-.311-.2a6.619,6.619,0,0,0-2.3-.89.808.808,0,0,1-.129-.026h-.009a.037.037,0,0,1-.025-.008l-.044-.035-.441-.432H56.617l-.968.95-.043.035a.1.1,0,0,0,.008.155l1.538,1.521h.009s.008,0,0,.009c.008.008.017.008.017.025a.069.069,0,0,1,0,.1,3.339,3.339,0,0,0,.311.873c.035.06.069.121.1.19a9.932,9.932,0,0,0,1.97,2.324l.182.173a.188.188,0,0,0,.052.035.049.049,0,0,0,.044.026.583.583,0,0,0,.725-.121l.009-.009a.573.573,0,0,0,.043-.725l.069.06a.648.648,0,0,0,.285.147.464.464,0,0,0,.215.025H61.2a.625.625,0,0,0,.424-.2l.009-.018a.6.6,0,0,0,.1-.691.555.555,0,0,0-.121-.19l.112.1a.706.706,0,0,0,.346.181h.008a.667.667,0,0,0,.588-.2l.008-.009a.515.515,0,0,0,.1-.138.578.578,0,0,0,.017-.519.339.339,0,0,0-.069-.146.008.008,0,0,0-.008-.009.124.124,0,0,0-.026-.034c0-.009,0-.009-.009-.009s-.008-.017-.016-.025l-.044-.044a.672.672,0,0,0,.89.025.212.212,0,0,0,.052-.043l.008-.009A.627.627,0,0,0,63.624,235.705Z" transform="translate(-55.575 -232.708)" fill="#ffc990"/><path d="M65.826,237.513l-.095-.095L64.28,235.95v-.009l-.017-.017-.2-.2-.035-.026-.121-.129a.361.361,0,0,0-.095-.069c0-.009,0-.009-.009-.009a.726.726,0,0,0-.518-.086.467.467,0,0,0-.138.052.541.541,0,0,0-.165.121h-.008l-.017.017a.7.7,0,0,0,.043.993.009.009,0,0,1,.009.009v.008l.372.294a.008.008,0,0,1,.008.009l.19.155.942.761.571.457c.008.009.017.018.025.018a.742.742,0,0,0,.234.155.683.683,0,0,0,.6-.07.517.517,0,0,0,.1-.146C66.2,237.98,66.077,237.739,65.826,237.513Z" transform="translate(-56.231 -232.952)" fill="#f0bd87"/><path d="M65.273,238.567a1,1,0,0,0-.147-.122l-.138-.112-.484-.38-.959-.769-.268-.207c0-.009,0-.009-.009-.009s-.008-.017-.016-.025l-.268-.208c-.017-.008-.035-.025-.052-.025a.009.009,0,0,0-.009-.009.676.676,0,0,0-.855.147v.008a.822.822,0,0,0-.086.138.632.632,0,0,0-.06.415.41.41,0,0,0,.06.173.634.634,0,0,0,.234.294l.1.069,2.125,1.321.044.026a.662.662,0,0,0,.855.009.463.463,0,0,0,.121-.216A.528.528,0,0,0,65.273,238.567Z" transform="translate(-56.152 -233.063)" fill="#f0bd87"/><path d="M64.354,239.355a1.076,1.076,0,0,0-.276-.233l-1.5-1h-.008l-.657-.44c-.008,0-.008-.009-.017-.009a.635.635,0,0,0-.838.19l-.008.008a.676.676,0,0,0,.224.951l.19.1,1.607.821h.008a.677.677,0,0,1,.1.06l.364.182a.624.624,0,0,0,.812-.061A.4.4,0,0,0,64.354,239.355Z" transform="translate(-56.063 -233.153)" fill="#f0bd87"/><path d="M63.093,239.883a.67.67,0,0,0-.1-.06h-.008l-1.374-.8H61.59l-.656-.38-.06-.035a.622.622,0,0,0-.277-.069.593.593,0,0,0-.518.3.627.627,0,0,0,.121.777.049.049,0,0,0,.044.026.4.4,0,0,0,.1.077l2.2.933a.589.589,0,0,0,.752-.113C63.534,240.289,63.353,240.038,63.093,239.883Z" transform="translate(-55.978 -233.24)" fill="#f0bd87"/><path d="M63.624,235.705V235.7l-.017-.017a.932.932,0,0,0-.077-.086H63.52l-.113-.112-.035-.026-.164-.146-.052-.052c0-.009,0-.009-.009-.009a7.046,7.046,0,0,0-1.062-.95c-.1-.07-.207-.138-.311-.2a6.619,6.619,0,0,0-2.3-.89.808.808,0,0,1-.129-.026h-.009a.037.037,0,0,1-.025-.008l-.044-.035-.441-.432H56.617l-.968.95-.043.035a.1.1,0,0,0,.008.155l1.538,1.521h.009s.008,0,0,.009c.008.008.017.008.017.025a.069.069,0,0,1,0,.1,3.339,3.339,0,0,0,.311.873c.035.06.069.121.1.19a9.932,9.932,0,0,0,1.97,2.324l.182.173a.188.188,0,0,0,.052.035.049.049,0,0,0,.044.026.583.583,0,0,0,.725-.121l.009-.009a.573.573,0,0,0,.043-.725l.069.06a.648.648,0,0,0,.285.147.464.464,0,0,0,.215.025H61.2a.625.625,0,0,0,.424-.2l.009-.018a.6.6,0,0,0,.1-.691.555.555,0,0,0-.121-.19l.112.1a.706.706,0,0,0,.346.181h.008a.667.667,0,0,0,.588-.2l.008-.009a.515.515,0,0,0,.1-.138.578.578,0,0,0,.017-.519.339.339,0,0,0-.069-.146.008.008,0,0,0-.008-.009.124.124,0,0,0-.026-.034c0-.009,0-.009-.009-.009s-.008-.017-.016-.025l-.044-.044a.672.672,0,0,0,.89.025.212.212,0,0,0,.052-.043l.008-.009A.627.627,0,0,0,63.624,235.705Z" transform="translate(-55.575 -232.708)" fill="#ffc990"/></g><path d="M47.831,226.056l-.587-.061-.665-.061-4.64-.423-.052-.009-.2-.691L40.315,220.1h.009a7.635,7.635,0,0,0,2.349-.19,3.939,3.939,0,0,0,.631-.155.049.049,0,0,0,.035-.009,11.746,11.746,0,0,0,1.6-.587c.389-.173.769-.372,1.141-.579l.881,3.75.165.691.077.337Z" transform="translate(-38.092 -207.844)" fill="#ffc990"/><path d="M45.855,217.505c-.372.207-.752.406-1.141.579a11.746,11.746,0,0,1-1.6.587.049.049,0,0,1-.035.009,3.944,3.944,0,0,1-.631.155,7.636,7.636,0,0,1-2.349.19h-.009l-2.108-7.2a5.422,5.422,0,0,1,1.192-4.812h.008a1,1,0,0,1,.424-.25,14.071,14.071,0,0,1,4.993,6.358,17.514,17.514,0,0,1,.613,1.693l.458,1.935Z" transform="translate(-37.869 -206.767)" fill="#ededed"/></g></g></g></g></svg>