<svg xmlns="http://www.w3.org/2000/svg" width="183.788" height="38" viewBox="0 0 183.788 38"><path d="M.75,4.849H7.789V2.681H3.352V.362H7V-1.806H3.352V-3.841h4.27V-6.009H.75ZM9.073,1.53h4.12V-.288H9.073Zm5.754,3.319h6.822V2.681h-4.22v-8.69h-2.6Zm11.675.2a5.344,5.344,0,0,0,2.986-.934l-.834-1.551a3.6,3.6,0,0,1-1.785.517A1.907,1.907,0,0,1,24.8,1.48h4.887a6.016,6.016,0,0,0,.1-1.134c0-2.252-1.168-3.986-3.569-3.986A4.076,4.076,0,0,0,22.3.7,4.041,4.041,0,0,0,26.5,5.049Zm-1.735-5.3a1.527,1.527,0,0,1,1.518-1.434c.934,0,1.3.617,1.3,1.434Zm8.256,5.3a3.469,3.469,0,0,0,2.368-1.034h.067l.183.834h2.1V.145c0-2.6-1.2-3.786-3.336-3.786a6.745,6.745,0,0,0-3.569,1.084l.9,1.668a4.434,4.434,0,0,1,2.168-.7A1.091,1.091,0,0,1,35.175-.505c-3.269.334-4.62,1.284-4.62,3.036A2.4,2.4,0,0,0,33.024,5.049Zm.884-2c-.567,0-.884-.234-.884-.717,0-.584.5-1.034,2.152-1.251V2.4A1.727,1.727,0,0,1,33.908,3.048Zm5.521,1.8H42V.112a2.033,2.033,0,0,1,1.8-1.5,3.307,3.307,0,0,1,.851.1l.484-2.185a2.164,2.164,0,0,0-1-.167A2.768,2.768,0,0,0,41.78-2.006h-.067L41.53-3.441h-2.1Zm6.421,0h2.569V-.705a2.071,2.071,0,0,1,1.451-.751c.667,0,.967.35.967,1.5v4.8h2.585V-.288c0-2.068-.767-3.352-2.569-3.352A3.734,3.734,0,0,0,48.2-2.406h-.067l-.183-1.034h-2.1Zm9.257,0h2.569V-3.441H55.107Zm1.284-9.457a1.32,1.32,0,0,0,1.451-1.334A1.317,1.317,0,0,0,56.391-7.26,1.317,1.317,0,0,0,54.94-5.942,1.32,1.32,0,0,0,56.391-4.608Zm3.052,9.457h2.569V-.705a2.071,2.071,0,0,1,1.451-.751c.667,0,.967.35.967,1.5v4.8h2.585V-.288c0-2.068-.767-3.352-2.569-3.352A3.734,3.734,0,0,0,61.8-2.406h-.067l-.183-1.034h-2.1ZM71.669,8.335c2.885,0,4.7-1.234,4.7-2.986,0-1.5-1.151-2.118-3.2-2.118H71.853c-.884,0-1.218-.183-1.218-.584A.667.667,0,0,1,70.9,2.08a3.821,3.821,0,0,0,.984.15c1.835,0,3.3-.851,3.3-2.785a2.174,2.174,0,0,0-.25-1.017h1.3V-3.441H73.187a4.017,4.017,0,0,0-1.3-.2c-1.8,0-3.469.984-3.469,3A2.616,2.616,0,0,0,69.534,1.5v.067a2.06,2.06,0,0,0-.917,1.568,1.624,1.624,0,0,0,.751,1.418v.067A1.843,1.843,0,0,0,68.2,6.25C68.2,7.734,69.751,8.335,71.669,8.335ZM71.886.679c-.6,0-1.051-.45-1.051-1.318,0-.851.434-1.284,1.051-1.284s1.051.434,1.051,1.284C72.937.229,72.5.679,71.886.679Zm.2,6.054c-1.067,0-1.768-.3-1.768-.9a.971.971,0,0,1,.4-.734,4.54,4.54,0,0,0,1.168.1h.8c.784,0,1.218.1,1.218.6C73.9,6.333,73.137,6.734,72.086,6.734Zm8.456-1.885h2.6v-3.6h1.284c2.285,0,4.27-1.134,4.27-3.736,0-2.669-1.951-3.519-4.337-3.519H80.542Zm2.6-5.654V-3.958h1.067c1.268,0,1.951.384,1.951,1.468s-.6,1.685-1.885,1.685Zm9.223,5.854a3.437,3.437,0,0,0,1.284-.217l-.3-1.9a1.029,1.029,0,0,1-.3.033c-.2,0-.467-.167-.467-.7V-6.81H90.016V2.164C90.016,3.9,90.6,5.049,92.368,5.049Zm4.253,0a3.469,3.469,0,0,0,2.368-1.034h.067l.183.834h2.1V.145c0-2.6-1.2-3.786-3.336-3.786a6.745,6.745,0,0,0-3.569,1.084l.9,1.668a4.434,4.434,0,0,1,2.168-.7A1.091,1.091,0,0,1,98.773-.505c-3.269.334-4.62,1.284-4.62,3.036A2.4,2.4,0,0,0,96.621,5.049Zm.884-2c-.567,0-.884-.234-.884-.717,0-.584.5-1.034,2.152-1.251V2.4A1.727,1.727,0,0,1,97.5,3.048Zm8.456,2a5.231,5.231,0,0,0,1.885-.334l-.4-1.8a2.245,2.245,0,0,1-.767.117c-.617,0-1.051-.35-1.051-1.284V-1.422h1.951V-3.441h-1.951V-5.976h-2.135l-.3,2.535-1.268.083v1.935h1.117v3.2C103.042,3.731,103.893,5.049,105.961,5.049Zm3.019-.2h2.585V-1.422h1.468V-3.441h-1.468v-.417c0-.817.35-1.134.917-1.134a2.877,2.877,0,0,1,.834.117L113.8-6.71a4.614,4.614,0,0,0-1.685-.3c-2.318,0-3.136,1.484-3.136,3.236v.35l-1.1.067v1.935h1.1Zm8.44.2A4.085,4.085,0,0,0,121.489.7a4.07,4.07,0,1,0-8.123,0A4.082,4.082,0,0,0,117.42,5.049Zm0-2.085C116.452,2.964,116,2.08,116,.7c0-1.368.45-2.268,1.418-2.268s1.418.9,1.418,2.268C118.837,2.08,118.387,2.964,117.42,2.964Zm5.371,1.885h2.569V.112a2.033,2.033,0,0,1,1.8-1.5,3.307,3.307,0,0,1,.851.1l.484-2.185a2.164,2.164,0,0,0-1-.167,2.768,2.768,0,0,0-2.352,1.635h-.067l-.183-1.434h-2.1Zm6.421,0h2.569V-.705a2.078,2.078,0,0,1,1.334-.751c.667,0,.967.35.967,1.5v4.8h2.585V-.705A2.041,2.041,0,0,1,138-1.456c.65,0,.967.35.967,1.5v4.8h2.569V-.288c0-2.068-.8-3.352-2.6-3.352a3.6,3.6,0,0,0-2.585,1.368,2.291,2.291,0,0,0-2.285-1.368,3.429,3.429,0,0,0-2.5,1.234H131.5l-.183-1.034h-2.1Z" transform="translate(42.25 26.901)" fill="#008454"/><g transform="translate(-220.507 -134.114)"><g transform="translate(231.488 134.114)"><path d="M269.162,136.093a10.637,10.637,0,0,0-1.066-.745,8.021,8.021,0,0,0-4.208-1.234,8.228,8.228,0,0,0-3.216.68,11.7,11.7,0,0,0-3.292,2.171,11.41,11.41,0,0,0-1.248,1.326,1.49,1.49,0,0,0,2.355,1.825h0l.006-.007a9.879,9.879,0,0,1,1.726-1.629,7.893,7.893,0,0,1,1.7-.974,5.218,5.218,0,0,1,1.966-.406,5,5,0,0,1,2.587.758A4.192,4.192,0,0,1,269.162,136.093Z" transform="translate(-255.822 -134.114)" fill="#5262aa"/><path d="M295.12,160.554c-.143-.4-.314-.8-.51-1.21a4.208,4.208,0,0,1-2.315,2.16l.025.064a6.971,6.971,0,0,1,.449,2.374,5.4,5.4,0,0,1-.67,2.609,9.538,9.538,0,0,1-2.691,2.938c-.517.392-1.03.732-1.486,1.025-.229.147-.443.282-.641.41s-.38.248-.556.378a1.491,1.491,0,0,0,1.773,2.4c.1-.077.318-.219.586-.389.473-.3,1.12-.707,1.819-1.217a13.915,13.915,0,0,0,3.184-3.109,9.171,9.171,0,0,0,1.189-2.269,8.306,8.306,0,0,0,.472-2.774A9.95,9.95,0,0,0,295.12,160.554Z" transform="translate(-276.7 -151.482)" fill="#5262aa"/><path d="M291.49,144.808a3.2,3.2,0,1,0,2.639-1.4h0A3.191,3.191,0,0,0,291.49,144.808Z" transform="translate(-280.015 -140.514)" fill="#5262aa"/></g><g transform="translate(236.259 144.618)"><path d="M283.024,207.191a6.178,6.178,0,0,1-1.872.307,5.452,5.452,0,0,1-2.5-.618,9.964,9.964,0,0,1-2.96-2.484c-.4-.476-.76-.948-1.069-1.369-.155-.211-.3-.409-.433-.592s-.263-.351-.4-.514a1.49,1.49,0,1,0-2.272,1.929c.081.1.229.291.408.537.317.433.742,1.026,1.268,1.667a14.378,14.378,0,0,0,3.123,2.911,9.419,9.419,0,0,0,2.2,1.085,8.268,8.268,0,0,0,2.638.432,9.5,9.5,0,0,0,3.583-.738c.214-.087.43-.185.647-.288A4.212,4.212,0,0,1,283.024,207.191Z" transform="translate(-271.165 -190.933)" fill="#3fb192"/><path d="M326.442,172.675a11.488,11.488,0,0,0-2.435-3.362,11.623,11.623,0,0,0-1.48-1.237,1.491,1.491,0,0,0-1.663,2.475h0l.037.026a10.044,10.044,0,0,1,1.875,1.806,7.46,7.46,0,0,1,1.03,1.694,5.01,5.01,0,0,1,.423,1.976,5.262,5.262,0,0,1-.735,2.605c-.082.147-.176.3-.276.451a4.193,4.193,0,0,1,1.6,2.822,11.836,11.836,0,0,0,1.269-1.814,8.265,8.265,0,0,0,1.116-4.064A8.07,8.07,0,0,0,326.442,172.675Z" transform="translate(-304.959 -167.823)" fill="#3fb192"/><path d="M316.565,205.1a3.2,3.2,0,1,0-2.451,5.685,3.171,3.171,0,0,0,3.666-2.874c.008-.1.014-.192.014-.289A3.2,3.2,0,0,0,316.565,205.1Z" transform="translate(-298.889 -193.013)" fill="#3fb192"/></g><g transform="translate(227.733 149.811)"><path d="M247.025,196.365a6.211,6.211,0,0,1-.3-1.876,5.477,5.477,0,0,1,.621-2.505,9.968,9.968,0,0,1,2.484-2.961c.476-.405.947-.76,1.368-1.069.21-.155.408-.3.592-.433s.351-.263.513-.4a1.491,1.491,0,0,0-1.92-2.28c-.095.081-.291.229-.537.408-.433.316-1.025.742-1.665,1.267a14.379,14.379,0,0,0-2.911,3.124,9.463,9.463,0,0,0-1.086,2.2,8.318,8.318,0,0,0-.436,2.643,9.558,9.558,0,0,0,.729,3.592c.086.215.183.432.286.649A4.213,4.213,0,0,1,247.025,196.365Z" transform="translate(-243.745 -184.489)" fill="#f8a500"/><path d="M270.377,239.837a12.316,12.316,0,0,0,4.6-3.915,1.489,1.489,0,0,0-2.466-1.671h0l-.026.037a10.047,10.047,0,0,1-1.806,1.875,7.449,7.449,0,0,1-1.692,1.03,4.981,4.981,0,0,1-1.973.42,5.235,5.235,0,0,1-2.6-.742c-.146-.083-.3-.177-.449-.277a4.179,4.179,0,0,1-2.819,1.6,11.855,11.855,0,0,0,1.808,1.276,8.219,8.219,0,0,0,4.054,1.126A8.02,8.02,0,0,0,270.377,239.837Z" transform="translate(-255.734 -218.294)" fill="#f8a500"/><path d="M255,229.888a3.194,3.194,0,1,0-2.807,1.212c.1.009.191.015.289.015A3.186,3.186,0,0,0,255,229.888Z" transform="translate(-247.566 -212.175)" fill="#f8a500"/></g><g transform="translate(220.507 141.649)"><path d="M261.522,165.609c-.077-.1-.218-.32-.387-.591-.3-.477-.7-1.129-1.209-1.835a13.867,13.867,0,0,0-3.1-3.212,9.116,9.116,0,0,0-2.269-1.2,8.264,8.264,0,0,0-2.778-.476,9.934,9.934,0,0,0-3.364.62c-.193.069-.388.147-.585.228a4.213,4.213,0,0,1,2.034,2.44,6.713,6.713,0,0,1,1.914-.3,5.358,5.358,0,0,1,2.612.675,9.5,9.5,0,0,1,2.929,2.713c.39.521.727,1.038,1.018,1.5.146.231.281.447.407.647s.246.383.376.561a1.49,1.49,0,1,0,2.4-1.765Z" transform="translate(-239.334 -158.295)" fill="#e62c59"/><path d="M226.468,186.138h0l-.007-.006a9.858,9.858,0,0,1-1.611-1.729,7.918,7.918,0,0,1-.963-1.7,5.268,5.268,0,0,1-.4-1.965,5.05,5.05,0,0,1,.8-2.674c.078-.128.164-.259.257-.391a4.2,4.2,0,0,1-1.635-2.727,11.113,11.113,0,0,0-1.163,1.563,8.053,8.053,0,0,0-1.24,4.229,8.3,8.3,0,0,0,.671,3.211,11.755,11.755,0,0,0,2.146,3.293,11.422,11.422,0,0,0,1.311,1.251,1.491,1.491,0,0,0,1.832-2.351Z" transform="translate(-220.507 -169.755)" fill="#e62c59"/><path d="M235.42,162.785a3.194,3.194,0,0,0-4.162,2.965c0,.029,0,.058,0,.088a3.2,3.2,0,1,0,4.167-3.053Z" transform="translate(-227.912 -161.282)" fill="#e62c59"/></g></g><g transform="translate(-76.694 -250.734)"><path d="M121.072,277.691a2.763,2.763,0,0,1,0-2.069l.007-.018a2.756,2.756,0,0,1,5.091,0l.007.018q.026.064.049.13l.11.317h-4.178a2.291,2.291,0,0,0,0,1.177h5.354l.013-.1a3.931,3.931,0,1,0-3.9,3.444,3.919,3.919,0,0,0,2.779-1.151l.082-.082-.832-.833-.082.082a2.749,2.749,0,0,1-1.051.657l-.025.009a2.757,2.757,0,0,1-3.416-1.56l-.007-.019Z" transform="translate(0 -13.83)" fill="#008454" fill-rule="evenodd"/><path d="M401.643,280.326v-1.306a2.763,2.763,0,0,1-1.869.353l-.038-.006a2.754,2.754,0,0,1,.038-5.425,2.77,2.77,0,0,1,.908,0l.035.006a2.754,2.754,0,0,1,2.264,2.71v3.931h1.177v-3.931a3.932,3.932,0,0,0-3.444-3.9,3.979,3.979,0,0,0-.974,0,3.931,3.931,0,1,0,1.9,7.57Z" transform="translate(-230.563 -13.83)" fill="#008454" fill-rule="evenodd"/><path d="M248.381,282.789h1.178v-6.132a2.754,2.754,0,0,1,2.3-2.716,2.768,2.768,0,0,1,.908,0l.036.006a2.754,2.754,0,0,1-.944,5.426l-.038-.006a2.735,2.735,0,0,1-.923-.347v1.306a3.917,3.917,0,0,0,.928.232,3.931,3.931,0,1,0-3.444-3.9v6.132Z" transform="translate(-107.267 -13.83)" fill="#008454" fill-rule="evenodd"/><path d="M382.916,258.892v7.865h1.178v-7.865Zm.589-2.758a.747.747,0,1,0,.747.747.747.747,0,0,0-.747-.747Z" transform="translate(-219.277)" fill="#008454" fill-rule="evenodd"/><path d="M172.441,280.6h1.177v-4.648a2.047,2.047,0,0,1,4.095,0V280.6h1.178v-4.648a2.047,2.047,0,1,1,4.095,0V280.6h1.178v-4.648a3.222,3.222,0,0,0-5.612-2.163.336.336,0,0,1-.5,0,3.222,3.222,0,0,0-5.612,2.163V280.6Z" transform="translate(-43.967 -13.83)" fill="#008454" fill-rule="evenodd"/><path d="M304.573,272.756a3.931,3.931,0,1,0,.974,0,3.978,3.978,0,0,0-.974,0Zm.977,1.191a2.754,2.754,0,0,1-.944,5.426l-.038-.006a2.754,2.754,0,0,1,.038-5.425,2.768,2.768,0,0,1,.908,0l.036.006Z" transform="translate(-151.235 -13.83)" fill="#008454" fill-rule="evenodd"/><path d="M353.876,280.6h1.177v-3.865c0-.026,0-.051,0-.077a2.786,2.786,0,0,1,.037-.454,2.754,2.754,0,0,1,2.716-2.3h.116v-1.177h-.116a3.928,3.928,0,0,0-3.931,3.931c0,.027,0,.054,0,.078V280.6Z" transform="translate(-195.203 -13.83)" fill="#008454" fill-rule="evenodd"/></g></svg>