<svg xmlns="http://www.w3.org/2000/svg" xmlns:xlink="http://www.w3.org/1999/xlink" width="546" height="354" viewBox="0 0 546 354"><defs><clipPath id="a"><path d="M107.742,21.938a19.01,19.01,0,0,0-28.4-16.53A50.3,50.3,0,0,0,56.065,0c-14.7,0-27.455,5.674-33.783,13.976a15.967,15.967,0,1,0-6.315,30.632,16.091,16.091,0,0,0,2.159-.149A19.01,19.01,0,0,0,47.8,58.34,26.933,26.933,0,0,0,94.084,40.182,19.018,19.018,0,0,0,107.742,21.938Z" transform="translate(18.343 0) rotate(16)" fill="#f6f6f6"/></clipPath><clipPath id="b"><rect width="46.088" height="46.088" fill="#008454"/></clipPath><clipPath id="c"><path d="M0,38.477C.093,32.8,7.4,21.06,15.912,18.506c3.616-9.3,11.421-15.114,22.006-15.114,4.293,0,10.744,2.377,14.271,4.285A24.86,24.86,0,0,1,70.188,0C81.693,0,89.529,11.182,87.7,22.528c5.124-1.1,15.189,5.275,15.189,19.032s2.7,27.921-18.795,22.785c-2.453,11.182-6.426,20.4-18.354,20.4-9.622,0-18.449-4.1-22.605-12.081-1.552-3.474-7.3-5-11.018-4.765h-6.47l-7.67-1.362C7.471,58.977.965,57.846,0,38.477Z" fill="#edf2ef"/></clipPath></defs><g transform="translate(-147.489 -742.513)"><path d="M1599.116,292.932h47.632c25.636,0,46.611,22.839,46.611,50.753h0c0,27.914-20.974,50.754-46.611,50.754H1243.987c-41.512,0-75.476-36.984-75.476-82.184h0c0-45.2,33.964-82.183,75.476-82.183h0c17.551,0,31.912-15.637,31.912-34.749h0c0-19.113-14.361-34.75-31.912-34.75h-38.408c-18.249,0-33.177-16.257-33.177-36.128h0c0-19.871,14.93-36.128,33.177-36.128h48.567c7.1,0,12.916-6.33,12.916-14.066h0c0-7.736-5.812-14.065-12.916-14.065h-8.561c-4.9,0-8.914-4.368-8.914-9.707h0c0-5.339,4.013-9.708,8.914-9.708h56.179c11.831,0,13.149,15.22,43.033,15.22h69.3c6.4,0,11.633,5.7,11.633,12.666h0c0,6.965-5.235,12.665-11.633,12.665h-11.17c-9.27,0-16.854,8.26-16.854,18.353h0c0,10.093,7.584,18.353,16.854,18.353h33.622c45.4,0,51.811,12.919,59.762,38.614s49.247,27.766,49.247,27.766h56.466c13.97,0,25.4,12.446,25.4,27.658h0c0,15.213-11.429,27.658-25.4,27.658h-2.907c-13.437,0-24.431,11.972-24.431,26.6h0c0,14.631,10.994,26.6,24.431,26.6ZM1220.568,60.184c4.923,0,8.915-4.345,8.915-9.707s-3.992-9.708-8.915-9.708-8.914,4.346-8.914,9.708S1215.644,60.184,1220.568,60.184Z" transform="translate(-1021.022 701.742)" fill="#eaefee" fill-rule="evenodd" opacity="0.6"/><g transform="translate(182.161 772)"><g transform="translate(0 15.891)"><path d="M-330.214,88.517l.65,5.045a5.654,5.654,0,0,1-4.037-1.593,1.52,1.52,0,0,1-.289-1.569C-333.479,89.223-331.817,88.713-330.214,88.517Z" transform="translate(742.709 199.817)" fill="none"/><g transform="translate(293.282 58.798) rotate(-14)"><path d="M120.241,25.561a21.972,21.972,0,0,0-21.818-21.7,23.536,23.536,0,0,0-11.5,3.113A51.426,51.426,0,0,0,61.2.009C48.909-.264,33.115,5.567,25.978,15.678a13.226,13.226,0,0,0-7.917-.88C8.114,14.8,0,22.637,0,33.377S7.308,52.7,17.255,52.7a28.921,28.921,0,0,0,3.192-.206c1.024,11.76,12.024,19.893,20.43,19.366,4.5,0,9.066-.922,12.515-3.479A29.073,29.073,0,0,0,75.343,77.9c16.565,0,29.285-12.828,29.627-30.624C113.872,44.455,120.241,36.084,120.241,25.561Z" transform="translate(21.471 0) rotate(16)" fill="#fff" stroke="#28c76f" stroke-width="0.5"/><g transform="translate(4.186 4.441)"><path d="M113.5,23.112A20.026,20.026,0,0,0,83.581,5.7,52.984,52.984,0,0,0,59.063,0C43.574,0,30.139,5.977,23.473,14.723a16.821,16.821,0,1,0-6.653,32.27,16.953,16.953,0,0,0,2.275-.157A20.027,20.027,0,0,0,50.356,61.46,28.373,28.373,0,0,0,99.115,42.33,20.035,20.035,0,0,0,113.5,23.112Z" transform="translate(19.324 0) rotate(16)" fill="#f2f2f2"/><g transform="translate(3.598 1.148)" clip-path="url(#a)"><g transform="translate(20.567 22.992) rotate(7)"><path d="M39.669,0H3.823A3.827,3.827,0,0,0,0,3.823V31.854a3.827,3.827,0,0,0,3.823,3.823H17.136l-1.274,2.548H14.1a1.274,1.274,0,1,0,0,2.548h15.29a1.274,1.274,0,0,0,0-2.548H27.63l-1.274-2.548H39.669a3.827,3.827,0,0,0,3.823-3.823V3.823A3.827,3.827,0,0,0,39.669,0Zm2.189,31.3L1.6,31.308V3.9A2.154,2.154,0,0,1,3.924,1.513L39.742,1.44a2.17,2.17,0,0,1,2.246,2.47Z" transform="translate(0)" fill="#28c76f"/><path d="M14.113,1.494V13.943L13.386,13l-.139-.428-.129-.408-.189-.707q-.05-.11-.1-.214t-.1-.214l-.637-1.056-.528-.807q-.1-.11-.214-.244a2.474,2.474,0,0,0-.264-.264A3.938,3.938,0,0,1,9.82,9.91a3.7,3.7,0,0,1-.832.378,3.019,3.019,0,0,1-.911.139l-.518-.03a1.455,1.455,0,0,1-.588-.179q-.508-.2-.916-.393A4.708,4.708,0,0,1,5.328,9.4a6.957,6.957,0,0,1-.742-.8q-.453-.548-1.041-1.394a6.785,6.785,0,0,1-.533-1Q2.719,5.567,2.38,4.6T1.823,2.888Q1.6,2.141,1.494,1.733l1.076.418.847,2.34q.08.209.2.463a4.354,4.354,0,0,0,.319.553l-.01-.01.528.747-.01-.02a11.186,11.186,0,0,0,1.046.921,7.773,7.773,0,0,0,.866.583l-.01-.01a5.128,5.128,0,0,0,.866.264,4.473,4.473,0,0,0,.926.095,2.3,2.3,0,0,0,.827-.134,1.567,1.567,0,0,0,.578-.373A1.489,1.489,0,0,0,9.88,7a2.255,2.255,0,0,0,.11-.717A3.778,3.778,0,0,0,9.9,5.478a2.928,2.928,0,0,0-.234-.687,1.64,1.64,0,0,0-.344-.478.592.592,0,0,0-.4-.179q-.09,0-.309.309a3.082,3.082,0,0,1-.6.652.94.94,0,0,1-.563.224,3.635,3.635,0,0,1-.822-.085,1.692,1.692,0,0,1-.622-.274l.01.01a1.4,1.4,0,0,1-.737-1.275,3.767,3.767,0,0,1,.289-1.1.817.817,0,0,1,.254-.339,1.618,1.618,0,0,1,.388-.229A2.028,2.028,0,0,1,6.668,1.9a2.935,2.935,0,0,1,.473-.04,4.27,4.27,0,0,1,2.639.9l.349.369.428.5a3.412,3.412,0,0,1,.448.662,4.306,4.306,0,0,1,.309.767,5.692,5.692,0,0,1,.179.832,6.191,6.191,0,0,1,.06.857q.159.289.289.513t.254.433q.124.209.254.433t.3.513V1.494H1.464L0,0H15.527l1.484,1.494Z" transform="translate(3.555 9.361) rotate(-22)" fill="#008454"/><path d="M7.095,7.064l.134.32a1.141,1.141,0,0,1,.129.129,1.141,1.141,0,0,0,.129.129q.134.052.258.108T8,7.858h-.01l.474.124a3.292,3.292,0,0,1,1.846,1.464l-.01-.01a3.926,3.926,0,0,1,.773,2.258l-.031.217a2.708,2.708,0,0,1-.227,1.005,3.453,3.453,0,0,1-.639.975,5,5,0,0,1-1.047.856,6.481,6.481,0,0,1-1.449.66,1.579,1.579,0,0,0,.129.113,1.579,1.579,0,0,1,.129.113q.969.588,1.7,1.114a12.252,12.252,0,0,1,1.186.949l1.918,1.774.412,1.774-.227.1a14.9,14.9,0,0,0-2.052-1.9A22.941,22.941,0,0,0,8.466,17.82q-.732-.412-1.32-.7t-1.021-.459q-.433-.175-1.083-.382t-1.557-.454L1.774,12.261q.588.33,1.109.577a7.8,7.8,0,0,0,.975.392l-.01-.01.918.175.9.072a2.969,2.969,0,0,0,1.176-.175l1.124-.423a4.316,4.316,0,0,0,.454-.356,9.145,9.145,0,0,0,.67-.665l-.01.021A.884.884,0,0,0,9.24,11.3a2.192,2.192,0,0,0-.057-.48,2.109,2.109,0,0,0-.191-.51,1.1,1.1,0,0,0-.619-.6,1.684,1.684,0,0,0-.7-.217,1.617,1.617,0,0,0-.392.052,1.823,1.823,0,0,1-.139.665,2.286,2.286,0,0,1-.376.593l-.516.516a2.312,2.312,0,0,1-1.964.459,2.349,2.349,0,0,1-.552-.2,1.188,1.188,0,0,1-.505-.846l.01.01A1.607,1.607,0,0,1,3.568,9.5l.309-.433L4.3,8.569a2.652,2.652,0,0,1,.469-.294A5.894,5.894,0,0,1,5.62,7.93a1.6,1.6,0,0,0,.361-.124,1.126,1.126,0,0,0-.309-.4h.01L5.3,7.064H1.5L0,5.517H8.425l.227-.031.588-.031a.882.882,0,0,0,.325-.165,1.174,1.174,0,0,0,.284-.33l-.01.031a.57.57,0,0,1,.052-.113.57.57,0,0,0,.052-.113q-.031-.155-.629-.382a2.941,2.941,0,0,0-.675-.18,4.7,4.7,0,0,0-.645-.046l-1.031.021H6.208l-.588.1a1.937,1.937,0,0,0-.516.041H4.733a5.869,5.869,0,0,1-1.624-.232,3.439,3.439,0,0,1-1.418-.8V3.3a1.939,1.939,0,0,1-.335-.366,3.069,3.069,0,0,1-.469-.98,1.89,1.89,0,0,1-.072-.5,2.13,2.13,0,0,1,.036-.423,1.66,1.66,0,0,1,.1-.32A1.387,1.387,0,0,1,1.072.433,1.532,1.532,0,0,1,1.279.155L1.485.062,1.887,0h.247l.485.124a2.145,2.145,0,0,0-.6.541,1.028,1.028,0,0,0-.211.552l.072.505a1.4,1.4,0,0,0,.217.155q.165.1.361.217l.732.227.351.031L5.27,2.2l2.207-.062a3.655,3.655,0,0,1,2.073.516,3.107,3.107,0,0,1,.629.443,2.927,2.927,0,0,1,.474.567l-.01-.01a2.947,2.947,0,0,1,.526,1.712l-.01.155H12.87l1.537,1.547Z" transform="translate(29.082 5.026) rotate(25)" fill="#008454"/><path d="M5.655.834v.322a.062.062,0,0,0,.019,0,.062.062,0,0,1,.019,0,1.674,1.674,0,0,1,.714.181,3.442,3.442,0,0,1,.748.492,2.96,2.96,0,0,1,.728.956A2.716,2.716,0,0,1,8.14,3.959a1.409,1.409,0,0,1-.095.523,1.315,1.315,0,0,1-.253.411,1.162,1.162,0,0,1-.367.27,1.033,1.033,0,0,1-.442.1,1.012,1.012,0,0,1-.773-.395l-.15-.256-.033-.245.033-.228a.8.8,0,0,1,.07-.175.916.916,0,0,1,.1-.142l.228-.211.417-.067a.86.86,0,0,1,.589.228l.017.022q-.011-.1-.031-.209a1.628,1.628,0,0,0-.047-.2,1.322,1.322,0,0,0-.406-.606,1.963,1.963,0,0,0-.234-.2A2.621,2.621,0,0,0,6.5,2.413a1.758,1.758,0,0,0-.373-.136,1.69,1.69,0,0,0-.4-.047l-.089.006V7.673l-.389-.406-.206-.6A1.332,1.332,0,0,0,4.854,6.3q-.145-.211-.373-.484a2.532,2.532,0,0,0-.823-.778l-.345-.2.006.006Q3.208,4.8,3.1,4.748t-.22-.095a2.9,2.9,0,0,0-.823-.183l-.99-1.223q.284-.211.612-.442t.712-.47q.345-.211.642-.375t.553-.275q.234-.106.548-.225t.714-.253V.834h-4L0,0H8.3l.812.834ZM4.826,2.285a3.51,3.51,0,0,0-.375.133,3.416,3.416,0,0,0-.32.156l-.7.395q-.111.078-.225.153t-.22.153q-.05.033-.083.058l-.061.047-.061.047L2.7,3.492q.167.072.311.139a1.474,1.474,0,0,1,.245.139H3.247l.106.067.106.072.145.1.172.133q.145.117.311.27a2.457,2.457,0,0,1,.311.348L4.6,5.04q.111.153.222.314Z" transform="matrix(0.978, 0.208, -0.208, 0.978, 11.215, 20.47)" fill="#008454"/></g></g><g transform="translate(76.752 22.582) rotate(31)"><rect width="45.361" height="45.361" fill="none"/><g transform="translate(5.671 5.67)"><path d="M33.015,22.117a2.864,2.864,0,0,1-.076-.978c-.016-1.223.23-2.506-.915-3.429.151-.173.237-.268.319-.367a1.991,1.991,0,0,0-.535-3.2.916.916,0,0,1-.517-.811,14.09,14.09,0,0,0-8.468-12A25.807,25.807,0,0,0,18.648.137c-.19-.052-.382-.092-.574-.137H15.947C15.3.12,14.648.227,14,.362A14.431,14.431,0,0,0,2.723,13.334a.876.876,0,0,1-.511.808,2,2,0,0,0-.539,3.2c.083.1.17.194.251.286-.964,1.1-.861,2.407-.858,3.707a3.718,3.718,0,0,1-.346,1.223C.5,23.153.242,23.733,0,24.32v1.329a.567.567,0,0,1,.108.161,4.832,4.832,0,0,0,3.91,3.864.983.983,0,0,1,.508.363,1.814,1.814,0,0,0,1.6.779c.575-.017,1.152.006,1.727-.008a1.655,1.655,0,0,0,1.692-1.676q.022-4.152,0-8.3a1.647,1.647,0,0,0-1.7-1.669c-.465-.013-.931.022-1.394-.007a1.931,1.931,0,0,0-1.994.9.49.49,0,0,1-.25.2c-.682.231-1.368.449-2.074.678-.008-.158-.023-.331-.025-.5,0-.31-.021-.622.006-.93a1.915,1.915,0,0,1,1.364-1.461,2.263,2.263,0,0,0,1.781-1.764,1.8,1.8,0,0,0-.91-1.984c-.7-.378-.682-.856-.565-1.463.05-.26.061-.528.11-.789a13.326,13.326,0,0,1,26.4,1.244c.024.331.053.606-.344.818a2.074,2.074,0,0,0-1.2,2.169,2.307,2.307,0,0,0,1.981,1.793.939.939,0,0,1,.5.23,2.775,2.775,0,0,1,.622,2.633c-.68-.224-1.327-.429-1.968-.653a.724.724,0,0,1-.357-.258,1.834,1.834,0,0,0-1.816-.855c-.508.029-1.018,0-1.528.005a1.668,1.668,0,0,0-1.715,1.721q-.014,4.085,0,8.171a1.66,1.66,0,0,0,1.744,1.758c.813.011,1.626,0,2.507,0,0,.261,0,.544,0,.827-.006,1.02-.326,1.338-1.357,1.341-1.262,0-2.524,0-3.786,0H20.661c.021-.249.043-.423.05-.6a1.742,1.742,0,0,0-1.979-2.059c-.908,0-1.816-.017-2.723.005a1.7,1.7,0,0,0-1.642,1.6,2.074,2.074,0,0,0,1.182,2.1H28.041a2.567,2.567,0,0,0,1.71-2.927c-.012-.109.012-.222-.006-.33-.128-.742.143-1.072.914-1.3a4.622,4.622,0,0,0,3.2-3.4c.041-.143.1-.279.158-.418V24.32C33.681,23.587,33.31,22.867,33.015,22.117ZM5.921,20.179c.619.008,1.239.02,1.857-.005.538-.022.76.192.752.738-.019,1.371-.006,2.742-.006,4.113,0,1.327-.016,2.653.008,3.979.01.562-.179.82-.766.791-.617-.03-1.238-.011-1.857,0a.527.527,0,0,1-.611-.6q0-4.212,0-8.424C5.3,20.342,5.516,20.174,5.921,20.179Zm-1.68,1.148V28.6a3.432,3.432,0,0,1-3.192-3.329A3.562,3.562,0,0,1,4.241,21.327Zm.031-5.373A1.006,1.006,0,0,1,3.2,17.029a1.082,1.082,0,0,1-.055-2.164A1.014,1.014,0,0,1,4.272,15.954Zm26.521,1.073a1,1,0,0,1-1.044-1.1A1.021,1.021,0,0,1,30.9,14.866,1,1,0,0,1,31.911,16,1,1,0,0,1,30.792,17.027ZM19.015,32.982c-.485-.019-.971,0-1.456,0-.507,0-1.015-.012-1.522,0-.616.017-.643-.379-.644-.838,0-.438.035-.805.61-.8,1.015.008,2.03.014,3.045,0,.613-.009.644.372.65.835C19.7,32.664,19.6,33.005,19.015,32.982Zm9.062-3.191c-.641-.009-1.283-.014-1.924,0-.485.009-.666-.22-.662-.689.013-1.371,0-2.742,0-4.113,0-1.349.017-2.7-.008-4.046-.011-.582.224-.8.789-.768.6.028,1.194.014,1.791,0,.433-.007.661.164.661.622q-.006,4.178,0,8.358C28.728,29.6,28.515,29.8,28.076,29.791Zm1.7-1.137v-7.3a3.478,3.478,0,0,1,3.193,3.295A3.61,3.61,0,0,1,29.778,28.654Z" transform="translate(0 0)" fill="#008555"/><path d="M15.739,7.846A8.024,8.024,0,0,0,7.929,0,8.013,8.013,0,0,0,0,7.809a8.021,8.021,0,0,0,7.809,7.93A8.012,8.012,0,0,0,15.739,7.846ZM.763,7.814A6.976,6.976,0,0,1,7.836.763a6.969,6.969,0,0,1,7.14,7.073,6.975,6.975,0,0,1-7.163,7.141A6.969,6.969,0,0,1,.763,7.814Z" transform="translate(9.141 5.382)" fill="#008555"/><path d="M1.054,0H0V1.06H1.054Z" transform="translate(14.054 24.721)" fill="#008555"/><path d="M0,1.061H1.035V0H0Z" transform="translate(16.505 24.722)" fill="#008555"/><path d="M1.042,1.061V0H0V1.061Z" transform="translate(18.92 24.735)" fill="#008555"/><path d="M7.618,3.629,2.049.2A1.344,1.344,0,0,0,0,1.347V8.2A1.345,1.345,0,0,0,2.049,9.347L7.618,5.919A1.344,1.344,0,0,0,7.618,3.629Z" transform="translate(13.568 8.501)" fill="#008555"/></g></g></g></g><g transform="translate(0 49.359)"><path d="M-305.262,24.762h-60.863a7.753,7.753,0,0,0-7.748,7.752V68.176a7.753,7.753,0,0,0,7.748,7.752h43.171L-306.6,87.537V75.929h1.337a7.753,7.753,0,0,0,7.752-7.752V32.514A7.753,7.753,0,0,0-305.262,24.762Z" transform="translate(387.16 -2.477)" fill="#fff" stroke="#28c76f" stroke-width="0.5"/><path d="M-309.488,24.946-366,25.49a7.149,7.149,0,0,0-7.265,7.023L-373.559,63a7.149,7.149,0,0,0,7.264,7.023h42.216l11.483,7.272V70.023l3.339-.082c4.013,0,6.746-3.608,6.746-7.486l.289-30.486A7.15,7.15,0,0,0-309.488,24.946Z" transform="translate(389.254 0.416)" fill="#f2f2f2"/><path d="M543.063,168.264c0-1.756.005-3.295,0-4.833-.006-1.366-.24-1.6-1.58-1.606-3.976,0-7.953,0-11.93,0-1.76,0-2.535-.773-2.536-2.522q-.006-10.464,0-20.928c0-1.691.772-2.448,2.487-2.449q18.754,0,37.509,0c1.716,0,2.483.755,2.484,2.45q.008,10.515,0,21.029a2.149,2.149,0,0,1-2.437,2.418c-3.943.008-7.886-.019-11.828.026a4.1,4.1,0,0,0-1.89.5c-3.05,1.717-6.064,3.5-9.091,5.26C543.932,167.791,543.608,167.963,543.063,168.264Zm-1.538-11.682a7.048,7.048,0,0,0,.707,0,7.535,7.535,0,0,0,4.659-2.183,1.01,1.01,0,1,0-1.347-1.5c-.234.192-.462.394-.706.573a5.741,5.741,0,0,1-6.709.029,5.639,5.639,0,0,1-2.1-6.271,5.71,5.71,0,0,1,9.383-2.494,1,1,0,0,0,1.593-.006c.472-.546.259-1.069-.222-1.5a9.844,9.844,0,0,0-1.019-.825,7.747,7.747,0,1,0-4.24,14.186Zm15.511.027a7.363,7.363,0,0,0,5.29-2.138,1.435,1.435,0,0,0,.327-1.215,1.255,1.255,0,0,0-1-.6c-.334,0-.69.363-1,.611a5.707,5.707,0,1,1-.048-8.831c.628.5,1.267,1.136,1.963.244s-.191-1.366-.721-1.889a2.1,2.1,0,0,0-.242-.183,7.749,7.749,0,0,0-11.932,8.719A7.687,7.687,0,0,0,557.036,156.61Z" transform="translate(-527.012 -135.923)" fill="#28c76f"/><g transform="translate(27.664 25.362)" clip-path="url(#b)"><g transform="translate(5.283 5.282)"><path d="M32.266.3H4.206A4.207,4.207,0,0,0,0,4.506v20.54a4.207,4.207,0,0,0,4.206,4.206H17.395V34.1H11.288a.841.841,0,0,0,0,1.682h14.3a.841.841,0,0,0,0-1.682h-6.51V29.252H32.266a4.207,4.207,0,0,0,4.206-4.206V4.506A4.207,4.207,0,0,0,32.266.3Zm2.523,24.746a2.531,2.531,0,0,1-2.523,2.523H4.206a2.531,2.531,0,0,1-2.523-2.523V4.506A2.531,2.531,0,0,1,4.206,1.983H32.274A2.53,2.53,0,0,1,34.8,4.506v20.54Zm0,0" transform="translate(0 -0.301)" fill="#008454"/><path d="M3558.794-350.486l2,8.009,1.449-2.743,2.779,2.857,1.729-1.681-2.779-2.857,2.779-1.372Z" transform="translate(-3534.456 367.487)" fill="#008454"/><path d="M-4694.984-2787.363v13.575l8.785-6.812-8.785-6.764" transform="translate(4710.537 2794.735)" fill="#008454"/></g></g></g><g transform="translate(72.522 114.539)"><g transform="translate(0 0)"><g transform="translate(0 51.791)"><path d="M-427.414,97.836c-1.577-2.305-6.307-7.98-5.164-10.536,2.462-5.5,22.056-9.466,40.16,11.815" transform="translate(487.288 26.383)" fill="#0e77ff"/><path d="M-351.461,157.6c-19.592,2.5-42.722,4.529-61.269-6.08-12.29-7.028-2.2-16.9,8.787-16.475-13.867-1.666-31.47-12.528-35.336-26.818a6.12,6.12,0,0,1,4.368-7.422c1.331-.358,7.338.689,8.664.548-11.86-4.018-34.8-29.765-25.038-42.445,8.917-11.586,24.954,6.354,32.086,10.638-4.044-6.419-5.477-17.467,3.819-17.934,13.314-.666,25.964,28.729,31.687,37.785.243-3.777-.06-13.778,3.3-15.548,7.216-3.809,31.42,8.33,32.95,46.139C-347.177,126.634-345.144,147.343-351.461,157.6Z" transform="translate(453.644 -24.087)" fill="#28c76f"/><path d="M-395.093,152.353c-13.776-7.722-29.6-17.428-36.472-33.076-4.548-10.366,6.631-11.907,13.494-6.4-8.119-7.675-14.256-23.033-9.938-34.055a4.895,4.895,0,0,1,6.341-2.689c1.026.4,4.386,3.937,5.3,4.477-5.707-8.228-8.187-35.691,4.122-39.192,11.244-3.2,13.006,15.966,15.551,22.114.457-6.051,4.8-13.831,10.99-9.706,8.873,5.91,3,30.82,2.37,39.362,1.955-2.31,6.521-8.878,9.521-8.419,6.451.989,16.222,20.313-.8,45.332C-377.6,134.5-386.149,148.774-395.093,152.353Z" transform="translate(487.502 -41.061)" fill="#008454"/><path d="M-370.568,129.043c-3.4-15.423-6.67-33.7.446-49.232,4.717-10.291,13.3-2.968,13.755,5.819.331-11.165,7.719-25.965,18.822-30.068a4.894,4.894,0,0,1,6.226,2.945c.379,1.036-.024,5.895.183,6.941,2.349-9.735,21.213-29.849,32.011-22.986,9.865,6.273-3.271,20.331-6.171,26.32,4.822-3.683,13.518-5.615,14.557,1.754,1.485,10.557-21.018,22.74-27.821,27.946,3.026-.076,10.97-1.034,12.62,1.512,3.55,5.474-4.381,25.623-34.384,29.551C-345.6,130.236-361.948,133.343-370.568,129.043Z" transform="translate(555.234 -31.978)" fill="#eaefee" opacity="0.5"/></g><g transform="matrix(0.94, 0.342, -0.342, 0.94, 116.749, 0)"><path d="M21.13,0a56.485,56.485,0,0,1,4.153,13.337c.723,4.477.971,9.038,2.083,13.434a57.884,57.884,0,0,0,4.391,11.168,2.4,2.4,0,0,1,.324,1.036,2.33,2.33,0,0,1-1.193,1.676A32.323,32.323,0,0,1,0,44.33" transform="translate(43.078 16.991)" fill="#18394e"/><ellipse cx="8.623" cy="10.722" rx="8.623" ry="10.722" transform="translate(55.747 25.989)" fill="#98c7ad"/><path d="M16.037,9.568c-.815,4.584-1.488,9.784,1.357,13.468.624.807,1.436,1.6,1.48,2.616.057,1.337-1.219,2.318-2.415,2.916a19.062,19.062,0,0,1-15.06.781,2.475,2.475,0,0,1-1.083-.66c-.608-.754-.217-1.861.157-2.754A33.185,33.185,0,0,0,.209,0" transform="translate(30.824 50.487)" fill="#e8a17e"/><path d="M10.212,3.477a27.257,27.257,0,0,0-.966,9.612.413.413,0,0,1-.057.324c-.1.112-.287.068-.431.016a13.314,13.314,0,0,1-3.052-1.4A13.6,13.6,0,0,1,1.5,7.289,14.041,14.041,0,0,1,.041,0" transform="translate(37.057 55.243)" fill="#d88d6c"/><path d="M36.535,0c3.266,3.647,4.028,8.839,4.456,13.718a56.353,56.353,0,0,1,0,12.912,23.548,23.548,0,0,1-4.871,11.813,18.081,18.081,0,0,1-4.067,3.6,10.4,10.4,0,0,1-3.414,1.522c-2.329.5-4.736-.17-7-.9-5.161-1.673-10.476-3.937-13.664-8.328C3.822,28.612,1.078,13.549,0,6.56" transform="translate(21.33 17.615)" fill="#e8a17e"/><path d="M37.8.426A35.042,35.042,0,0,1,20.684,8.448a60.3,60.3,0,0,1-11.069.538,19,19,0,0,1-4.127-.4A7.562,7.562,0,0,1,.826,5.443,5.1,5.1,0,0,1,.752,0" transform="translate(26.571 21.63)" fill="#d88d6c"/><path d="M22.7,2.969c9.2-4.448,22.529-3.527,29.228.305S61.4,10.537,64.9,18.526c.209.478,1.418,3.415,1.235,3.9a1.408,1.408,0,0,1-.9.937c-8.273,3.156-15.546,3.725-24.388,4.164a30.749,30.749,0,0,1-8.8-.546c-4.057,13.585-1.942,23.323,4.811,35.788-4.4,1.853-21.49,2.919-29.624-3.381a19.51,19.51,0,0,1-5.289-5.876C-1.288,47.612.1,40.332,1.86,33.834A65.52,65.52,0,0,1,7.027,19.755C10.679,12.981,15.639,6.021,22.7,2.969" transform="translate(0 0)" fill="#18394e"/><path d="M12.927,0c-.591,1.759-1.271,3.379-2.887,4.377a5.979,5.979,0,0,1-5.469.1C2.846,3.7,1.207,1.746,0,.33A51.883,51.883,0,0,0,12.927,0" transform="translate(41.596 48.876)" fill="#fff"/><path d="M1.43,0,3.92,7.627,0,7.945" transform="translate(47.983 36.711)" fill="#d88d6c"/><circle cx="3.369" cy="3.369" r="3.369" transform="translate(32.028 39.484)" fill="#f27b53" opacity="0.45"/><circle cx="2.84" cy="2.84" r="2.84" transform="translate(56.801 38.703)" fill="#f27b53" opacity="0.45"/><g transform="translate(21.15 45.861)"><g transform="translate(23.254 8.825)"><ellipse cx="2.026" cy="2.592" rx="2.026" ry="2.592" transform="translate(0 4.034) rotate(-84.487)" fill="#7aa58d"/></g><g transform="translate(0 0)"><path d="M21.339,11.492a25.958,25.958,0,0,0,3.506.1L24.8,10.476C11.3,11.014.919.11.817,0L0,.765C.1.869,9.082,10.309,21.339,11.492Z" fill="#7aa58d"/></g></g><g transform="translate(12.706 0.55)"><g transform="translate(5.997 0)"><path d="M43.843,25.925c-1.005-7.565-4.691-15.9-10.729-20.177C27.7,1.918,20.468,1.673,14.508,4.132,9.37,6.249,5.971,10.972,4.3,16.475c-1.428,4.689-1.619,9.5-1.95,14.374-.11,1.608-2.451,1.619-2.342,0C.32,26.215.494,21.6,1.674,17.088c1.538-5.866,4.683-11.251,9.779-14.2A22.219,22.219,0,0,1,31.824,2.1c5.1,2.514,8.821,7.414,11.186,12.771A38.724,38.724,0,0,1,46.1,25.254c.211,1.585-2.044,2.269-2.256.671Z" transform="translate(0)" fill="#98c7ad"/></g><ellipse cx="8.623" cy="10.722" rx="8.623" ry="10.722" transform="translate(0 28.212)" fill="#98c7ad"/></g></g><g transform="translate(57.746 80.657)"><path d="M-377.454,52.623c-11.293.478-23.513,3.887-31.781,11.6a5.8,5.8,0,0,0-1.692,2.274,6.7,6.7,0,0,0,.433,4.093,83.527,83.527,0,0,1,.747,47.729c-1.154,4.065-2.624,8.082-3.02,12.288s.439,8.761,3.347,11.826a15.828,15.828,0,0,0,4.441,3.12c9.04,4.568,19.655,4.4,29.776,3.978,6.242-.258,12.544-.585,18.55-2.292s11.776-4.934,15.426-10c3.767-5.229,4.944-11.87,5.425-18.295,1.086-14.593-.893-29.228-1.167-43.857-.081-4.258.008-8.641,1.668-12.562-7.712-5.331-16.927-8.57-26.121-10.4a10.14,10.14,0,0,1-8.03,3.994,9.639,9.639,0,0,1-8-3.49" transform="translate(440.544 -52.119)" fill="#b5eec0"/><path d="M-409.89,108.74c.366-4.208-2.621-9.074-1.556-13.139,2.7-10.33,7.8-20.378,6.706-31.047a12.134,12.134,0,0,1,5.615,4.989,13.723,13.723,0,0,1,1.258,6.211c.047,4.263-.747,8.492-.916,12.752s.365,8.751,2.764,12.238c2.77,4.028,7.545,6.059,12.2,7.307a92.592,92.592,0,0,0,9.531,1.919,39.288,39.288,0,0,0,11.116.593,15.236,15.236,0,0,0,9.81-4.9c3.848-4.576,3.733-11.22,4.425-17.214A53.853,53.853,0,0,1-343.115,69.6a11.186,11.186,0,0,1,3.67-4.54l.013-.008c.572,10.685,6.756,21.905,6.022,32.564-.441,6.427-6.939,12.528-10.416,17.754-3.37,5.07-8.7,8.3-14.246,10s-11.369,2.031-17.13,2.292c-9.346.42-19.148.59-27.5-3.978a14.734,14.734,0,0,1-4.1-3.12C-409.482,117.5-410.255,112.946-409.89,108.74Z" transform="translate(442.449 -32.092)" fill="#28c76f"/><path d="M-369.6,54.992c-3.488,15.507-.483,33.8,3.391,49.219,1.151,4.579.909,9.6-.734,11.928-1.7,2.412-4.631,3.851-7.309,5.085a47.63,47.63,0,0,0-15.306,11.2,17.929,17.929,0,0,0-4.472,6.832,8.434,8.434,0,0,0,1.167,7.816,9.093,9.093,0,0,0,7.069,2.859,34.531,34.531,0,0,0,7.745-1.329,81.317,81.317,0,0,1,13.032-1.953c3.8-.258,7.66-.256,11.311-1.326a21.724,21.724,0,0,0,12.4-9.894,25.949,25.949,0,0,0,3.232-15.648,54.122,54.122,0,0,0-1.778-8.516c-3.12-11.612-7.419-21.777-11.359-33.136a60.32,60.32,0,0,0-7.416-13.914c-2.84-4.015-6.122-8.393-10.972-9.22" transform="translate(470.14 -47.492)" fill="#b5eec0"/><path d="M-392.549,88.085s10.38-2.577,14.264-.352,9.782,5.472,9.607,9.6l0,1.694s-27.828.812-30.089-1.694" transform="translate(463.244 3.781)" fill="#e8a17e"/><path d="M-383.783,54.545c-5.093.59-10.661,6.524-14.186,11.656s-5.923,10.933-8.294,16.689l-13.316,32.321a53.057,53.057,0,0,0-3.428,10.259,26.546,26.546,0,0,0-.149,8.949,14.424,14.424,0,0,0,2.639,6.79c2.146,2.731,5.534,4.119,8.779,5.354,6.85,2.6,13.878,5.046,21.19,5.55a81.893,81.893,0,0,0,8.659-.013c7.97-.29,15.976-.585,23.821-2.039a3.626,3.626,0,0,0,1.6-.577,3.712,3.712,0,0,0,.982-1.465l2.365-5.174a6.258,6.258,0,0,0,.807-3.033,5.792,5.792,0,0,0-2.2-3.532,34.908,34.908,0,0,0-9.385-6.2c-7.067-3.172-15.139-3.965-21.78-7.954a10.3,10.3,0,0,1-2.232-1.7c-2.449-2.6-2.3-6.785-.929-10.079s2.334-6.44,3.684-9.748c3-7.351,4.5-12.149,4.66-18.433.235-8.946-.436-19.138-3.292-27.62" transform="translate(423.464 -48.212)" fill="#b5eec0"/></g></g><g transform="translate(207.444 13.005)"><path d="M469.107,32.875c1.437,2.662,1.443,5.444.018,6.213s-3.751-.76-5.188-3.419-1.443-5.444-.015-6.213S467.67,30.216,469.107,32.875Z" transform="translate(-446.385 6.611)" fill="#212020"/><g transform="translate(0 0)"><path d="M472.991,112.273a13.285,13.285,0,0,0,3.487-.591c11.087-3.579,13.829-21.959,14.5-29.686.086-1.259.154-2.228.172-2.813.025-.394.025-.612.025-.612,2.348-3.083-18.4-42.882-19.424-42.322-6.148,4.287-8.758,11.737-7.425,21.159.006.194.015,12.411-.317,18.605-.009.422-.049.862-.065,1.3,0,0-.117.877-.252,2.342-.452,5.287-1.191,18.387,1.816,26.274C466.953,109.79,469.308,112.4,472.991,112.273Z" transform="translate(-445.527 21.125)" fill="#e9e7e7"/><path d="M498.015,53.247c-.058.046-14.9,1.589-16.143,2.7C468.27,68.255,470.3,87.9,457.5,109.329c6.751,3.869,10.629.51,16.076,4C479.93,105.918,507.576,81.871,498.015,53.247Z" transform="translate(-457.503 56.447)" fill="#ededed"/><path d="M469.5,160.915l13.438-.514,57.068-2.194c-.049-2.373.813-19.574,2.194-27.191V131c1.554-8.349,3.48-18.974,4.758-30.019.092-.929.2-1.856.308-2.782,2.2-21.227,1.68-43.359-8.9-53.188-.212-.212-.458-.422-.7-.646a.08.08,0,0,1-.065-.034C529.4,37.4,512.7,32.78,512.7,32.78l-29.628.194-3.511,2.462L471.832,40.9,468.6,43.212h-.034a1.025,1.025,0,0,0-.372.231c-2.8,2.308-.929,16.91.637,34.825.351,4.077.689,8.318.96,12.638a4.642,4.642,0,0,1,.018.5C470.924,112.811,458.634,151.689,469.5,160.915Z" transform="translate(-441.967 13.932)" fill="#fec757"/><path d="M498.432,46.013l-8.222-20.128A130.938,130.938,0,0,1,469.3,26.934s1.292,18.341,1.366,25.8C469.976,66.985,487.369,64.486,498.432,46.013Z" transform="translate(-432.993 -0.391)" fill="#f2c194"/><path d="M479.228,43.343l-8.281,10.989C469.6,51,467.741,45.4,468.387,41.82l6.468-7.038C474.385,38.869,474.908,42.02,479.228,43.343Z" transform="translate(-435.168 18.09)" fill="#ededed"/><path d="M471.821,50.144l10.5,11.992c7.068-7.035,14.371-19.978,16.186-26.717l-6.425-3.911C492.134,37.567,479.88,50.418,471.821,50.144Z" transform="translate(-427.761 11.289)" fill="#ededed"/><g transform="translate(13.738)"><path d="M462.545,46.18a24.877,24.877,0,0,0,.892,3.1c.175.486.372,1.009.585,1.511.015.037.034.052.034.071v.018c.5,1.126,1.062,2.274,1.714,3.456.28.24.578.465.84.655a18.224,18.224,0,0,0,1.542,1.123l1.662,9.1a2.487,2.487,0,0,0,3.237,1.914l2.225-.643c.492.763,1.8,3.022,2.819,4.791.742,1.3,1.323,2.326,1.323,2.326a17.731,17.731,0,0,0,2.142,2.634c2.4,2.406,5.742,4.179,8.866,1.859.191-.142.363-.28.554-.422a1.309,1.309,0,0,0,.258-.212c6.034-4.622,9.158-9.275,9.632-14.192.409-3.976-.945-8.13-3.884-12.574-.3-.468-.615-.917-.948-1.388a11.455,11.455,0,0,1,1.474-.985c.329-.212.677-.422,1.04-.634,2.813-1.622,6.25-3.422,6.724-5.742a3.046,3.046,0,0,0,.009-.975c-.816-4.961-1.908-6.678-4.41-11.121-12.675-19.433-22.35-9.767-29.693-5.311a21.139,21.139,0,0,0-6.712,7.1,18.468,18.468,0,0,0-2.486,8.9A20.607,20.607,0,0,0,462.545,46.18Z" transform="translate(-461.967 -16.437)" fill="#ffcfa1"/><path d="M507.814,52.409c-8.527,8.946-13.389-8.841-13.389-8.841s-7.779,1.785-9.841,2.828c2-18.417-5.7-28.142-20.87-13.546-3.963-1.086.76-9.173,10.524-12.835,10.869-4.08,20.652-3.471,27.917,5.582C506.724,31.29,514.627,42.793,507.814,52.409Z" transform="translate(-461.255 -17.6)" fill="#323031"/><path d="M470.822,32.021c1.437,2.662,1.443,5.444.015,6.213s-3.748-.76-5.185-3.422-1.443-5.441-.016-6.21S469.385,29.362,470.822,32.021Z" transform="translate(-456.56 4.837)" fill="#212020"/><rect width="20.965" height="1.595" transform="translate(12.409 35.61) rotate(-32.531)" fill="#212020"/><path d="M479.157,27.821c1.874,3.114,1.413,8.287-.622,9.515s-3.779-1.286-5.687-4.379c-1.262-2.046-3.1-4.807-1.256-6.8C473.2,24.408,476.406,23.254,479.157,27.821Z" transform="translate(-443.59 -3.026)" fill="#ffcfa1"/><path d="M464.893,33.109l-1.573-.265a3.738,3.738,0,0,1,5.361-2.723l-.714,1.425a2.145,2.145,0,0,0-3.074,1.563Z" transform="translate(-459.157 7.602)" fill="#212020"/></g><path d="M472.061,135.553l56-.366c-.548-21.612-1.766-64.133-3.659-87.028l-18.66-3.791L510.668,77C512.878,102.334,500.317,130.386,472.061,135.553Z" transform="translate(-427.262 38.001)" fill="#1d1d1b" opacity="0.1"/><g transform="translate(46.633 57.448)"><path d="M494.218,98.313s-10.924-35.072-11.426-41.189a22.373,22.373,0,0,1,5.967-16.546c4-4.453,9.395-5.911,14.023-2.182a23.466,23.466,0,0,1,7.6,12.217c3.576,15.774,10.484,44.716,10.4,45.294C511.6,91.171,494.218,98.313,494.218,98.313Z" transform="translate(-451.74 -36.269)" fill="#ededed"/><path d="M385.062,97.125l5.445,7.518c28.077-5.849,65.694,1.733,63.8-27.255-.585-36.266-20.757-16.219-26.939-8.507C419.652,81.169,382.613,74.848,385.062,97.125Z" transform="translate(-384.946 -8.001)" fill="#ededed"/></g></g></g><g transform="translate(78.033 110.927)"><rect width="126.58" height="3.149" rx="0.206" transform="translate(126.58 74.979) rotate(-180)" fill="#008454"/><path d="M-387.659,138.693h107.993l5.217-74.979h-105.83Z" transform="translate(458.694 -63.714)" fill="#008454"/><g transform="translate(74.707)"><path d="M-386.252,138.693h107.993l5.217-74.979H-378.872Z" transform="translate(386.252 -63.714)" fill="#f9fbff"/><circle cx="6.449" cy="6.449" r="6.449" transform="translate(50.156 31.041)" fill="#eaefee"/><path d="M-273.949,68.679l-4.31,61.956H-386.252l1.441-14.645C-327.969,108.641-288.818,80.915-273.949,68.679Z" transform="translate(386.252 -55.719)" fill="#eaefee"/></g></g><g transform="translate(326.419 98.409)"><g transform="translate(0 55.633)"><path d="M-340.06,95.643c2.018,2.488,5.785,3.945,10.04,4.023l.9,6.97h16.794l1.483-8.732c-5.1-.305-14.408-2.631-21.858-14.285-3.407.517-7.215,1.924-8.5,5.592A6.5,6.5,0,0,0-340.06,95.643Zm2.772-5.059c.642-1.83,3.227-2.624,5.72-2.926l1.013,7.847c-3.052-.164-5.279-1.24-6.281-2.475A2.388,2.388,0,0,1-337.287,90.584Z" transform="translate(341.6 -74.772)" fill="#f38a8a"/><path d="M-337.935,89.077c.2-.029.407-.068.606-.094l-1.015-7.876a.778.778,0,0,1,.77-.877h24.4a.869.869,0,0,1,.856,1.013l-3.757,22.119C-321.175,103.057-330.485,100.731-337.935,89.077Z" transform="translate(346.832 -80.23)" fill="#efcdcd"/></g><path d="M-329.574,111.281c2.425-1.29,4.738-5.936,5.694-8.085a8.085,8.085,0,0,0,.175-6.821c-.893-1.775-2.608-3-3.676-4.673a7.584,7.584,0,0,1-.932-5.9c.726-2.8,3.02-5.025,3.545-7.866.616-3.331-1.318-6.534-2.167-9.816a15.671,15.671,0,0,1,.436-9.2c-2.368,1.407-3.783,3.945-5.088,6.367-1.193,2.214-2.42,4.579-2.248,7.085a16.478,16.478,0,0,0,1.321,4.532c1,2.678,1.684,5.618.971,8.388-1.081,4.187-5.205,7.461-5.044,11.781.1,2.561,1.757,4.832,3.757,6.432,1.3,1.044,2.809,1.914,3.723,3.31s.945,3.579-.467,4.467" transform="translate(349.668 -58.919)" fill="#eaefee"/></g></g><g transform="translate(141.9 0)"><g transform="translate(0)"><path d="M0,51.69C0,38.475,9.935,27.2,23.919,22.754,27.7,12.47,37.152,5.18,48.217,5.18a24.85,24.85,0,0,1,12.4,3.311A25.33,25.33,0,0,1,79.429,0c12.027,0,22.149,8.613,25.153,20.321a24.864,24.864,0,0,1,3.763-.287c14.394,0,26.061,12.334,26.061,27.549s-11.667,27.549-26.061,27.549a24.745,24.745,0,0,1-8.612-1.543C97.168,85.956,86.747,95.213,74.278,95.213a25.928,25.928,0,0,1-23.13-14.847,43.2,43.2,0,0,1-11.058,2.183L29.177,98.286,25.309,81.043C10.6,76.925,0,65.339,0,51.69Z" transform="translate(0)" fill="#fff" stroke="#28c76f" stroke-width="0.5"/></g><g transform="translate(5.479 5.484)"><path d="M0,45.372c0-11.3,11.1-22.116,23.744-25.914A23.594,23.594,0,0,1,56.933,7.26,23.58,23.58,0,0,1,96.7,17.377a23.742,23.742,0,0,1,3.4-.245c13.019,0,25.893,10.312,24.845,28.24S103.776,69.585,92.768,65.6C91.72,78.286,80.141,84.294,68.863,84.294c-9.1,0-16.56-8.029-20.49-15.572-3.126,1-10.3,2.823-13.815,3.042L24.686,85.22l-3.5-14.745C7.882,66.954,0,57.043,0,45.372Z" transform="translate(0 0)" fill="#f2f2f2"/></g><g transform="translate(13.42 6.531)" clip-path="url(#c)"><g transform="translate(15.895 7.808)"><path d="M11.147,34.34c-2.985,0-5.97-.046-8.954.021C1.06,34.388.752,33.965.8,32.905c.074-1.489.007-2.984.022-4.476a4.837,4.837,0,0,1,4.691-5.161c.353-.039.852.206,1.011-.328.151-.5-.33-.637-.621-.882a9,9,0,0,1-1.955-2.115c-.675-1.1-1.078-2.277-2.553-2.865-1.43-.569-1.565-2.659-.607-4.012A2.477,2.477,0,0,0,.7,9.8,3.018,3.018,0,0,1,.013,7.859C.019,5.62.043,3.381,0,1.143-.016.283.291-.006,1.147,0,5.36.031,9.575-.03,13.787.045a21.112,21.112,0,0,0,3.221.044c2.27-.291,4.4,1.843,4.551,4.338.106,1.705.028,3.422.041,5.134a1.17,1.17,0,0,1-.533,1.126c-1,.6-.68,1.394-.227,2.1,1.408,2.2.915,3.937-1.505,4.857a1.154,1.154,0,0,0-.711.823,8.133,8.133,0,0,1-2.755,3.61c-.328.241-.709.453-.524.928.171.438.607.237.926.252,2.87.133,4.575,1.164,5.138,3.437.574,2.319.17,4.716.207,7.077.011.708-.664.563-1.118.565C17.379,34.347,14.263,34.342,11.147,34.34Z" fill="#3762cb"/><path d="M14.312.007c2.677,0,5.353-.01,8.03,0,2.52.012,3.916,1.371,3.936,3.895q.044,5.726,0,11.453c-.021,2.521-1.42,3.876-3.947,3.883-4.52.012-9.041.063-13.559-.022-1.9-.036-3.43.946-5.126,1.47-.793.245-1.538.649-2.334.88C.305,21.861-.2,21.31.071,20.292a1.091,1.091,0,0,1,.074-.252c2.334-4.175,2.246-8.73,2.1-13.3-.033-1.008-.033-2.019,0-3.027A3.585,3.585,0,0,1,6.018.014C8.783-.013,11.547.008,14.312.007Z" transform="translate(20.729 0.007)" fill="#3762cb"/><path d="M8.433,1.112a1.055,1.055,0,0,1-.159.387A16.55,16.55,0,0,1,4.516,4.329a.845.845,0,0,1-.744-.078Q2.106,3.086.5,1.843A.912.912,0,0,1,.207.469,1.051,1.051,0,0,1,1.822.3C2.5.8,3.137,1.519,4.064.73,5.291,1.6,6.092.545,7.05.1A1.012,1.012,0,0,1,8.433,1.112Z" transform="translate(62.593 20.171)" fill="#bdcdd6"/><path d="M8.428,3.252A1.051,1.051,0,0,1,6.941,4.276a5.5,5.5,0,0,0-2.724-.785,5.032,5.032,0,0,0-2.584.746,1,1,0,0,1-1.4-.273A.843.843,0,0,1,.372,2.681C1.466,1.812,2.6.992,3.729.167A.774.774,0,0,1,4.6.11,22.576,22.576,0,0,1,8.173,2.768,1.533,1.533,0,0,1,8.428,3.252Z" transform="translate(7.862 36.094)" fill="#bdcdd6"/><path d="M1.675.029c.95-.06,1.726-.1,1.926.689a3.2,3.2,0,0,1-.153,2.544c-.222.36-.711.618-1.018.361A19.606,19.606,0,0,1,.1,1.309C-.156,1,.119.563.439.275.891-.13,1.44.054,1.675.029Z" transform="translate(64.163 5.584)" fill="#bdcdd6"/><path d="M1.728,3.69c-.475.012-1.252.117-1.5-.649A3.15,3.15,0,0,1,.3.515c.44-.8,1.411-.635,1.833.249.122.255-.058.688.344.765.758.145,1.372.41,1.244,1.325C3.637,3.482,3.109,3.7,1.728,3.69Z" transform="translate(10.955 51.404)" fill="#bdcdd6"/><path d="M2.116,2.458c-.059.729.3,1.981-1.051,1.979S.06,3.189.013,2.323c-.021-.391-.013-.784,0-1.175C.042.428.4-.012,1.144,0c.727.012.939.528.969,1.15C2.132,1.542,2.116,1.934,2.116,2.458Z" transform="translate(11.029 46.106)" fill="#bdcdd6"/><path d="M.007,2C.071,1.3-.318.036,1,0c1.453-.039,1.041,1.285,1.1,2.175a8.159,8.159,0,0,1,0,1.172c-.047.645-.372,1.085-1.056,1.077S.043,3.982.01,3.33C-.009,2.94.007,2.549.007,2Z" transform="translate(11.038 40.666)" fill="#bdcdd6"/><path d="M2.116,2.366c-.095.74.364,2.01-1.028,2.036S.069,3.171.011,2.31c-.023-.348,0-.7,0-1.05C.009.554.3.019,1.043,0S2.107.5,2.116,1.211C2.12,1.561,2.116,1.912,2.116,2.366Z" transform="translate(65.761 10.106)" fill="#bdcdd6"/><path d="M2.154,2.166c-.116.89.357,2.245-1.126,2.2C-.3,4.323.036,3.043.047,2.184.059,1.3-.351-.043,1.147,0,2.526.042,2.03,1.334,2.154,2.166Z" transform="translate(65.74 15.646)" fill="#bdcdd6"/><path d="M1.841,2.14c-.554-.017-1.149.119-1.57-.4A.923.923,0,0,1,.362.349a3.313,3.313,0,0,1,2.952,0,.922.922,0,0,1,.1,1.386C2.99,2.254,2.4,2.124,1.841,2.14Z" transform="translate(59.45 5.557)" fill="#bdcdd6"/><path d="M1.841,2.14c-.554-.017-1.149.119-1.57-.4A.923.923,0,0,1,.362.349a3.313,3.313,0,0,1,2.952,0,.922.922,0,0,1,.1,1.386C2.99,2.254,2.4,2.124,1.841,2.14Z" transform="translate(53.979 5.557)" fill="#bdcdd6"/><path d="M1.841,2.14c-.554-.017-1.149.119-1.57-.4A.923.923,0,0,1,.362.349a3.313,3.313,0,0,1,2.952,0,.922.922,0,0,1,.1,1.386C2.99,2.254,2.4,2.124,1.841,2.14Z" transform="translate(48.507 5.557)" fill="#bdcdd6"/><path d="M1.79,0A4.444,4.444,0,0,1,2.826.065a.969.969,0,0,1,.805,1.162c-.27,1.128-1.228.861-2.026.9C.854,2.162.156,2.054.014,1.17A.98.98,0,0,1,.882.052,4.031,4.031,0,0,1,1.79.04Z" transform="translate(24.921 52.97)" fill="#bdcdd6"/><path d="M2.142,0A6.346,6.346,0,0,1,3.382.065c.65.163,1.136.559.964,1.162-.323,1.128-1.47.861-2.424.9-.9.036-1.735-.072-1.9-.956C-.1.572.38.186,1.055.052A5.768,5.768,0,0,1,2.142.04Z" transform="translate(19.45 52.97)" fill="#bdcdd6"/><path d="M1.548,0a3.334,3.334,0,0,1,.9.065.967.967,0,0,1,.7,1.162c-.234,1.128-1.062.861-1.752.9C.739,2.162.135,2.054.012,1.17A.962.962,0,0,1,.762.052,3.016,3.016,0,0,1,1.547.04Z" transform="translate(15.244 52.97)" fill="#bdcdd6"/><path d="M7.357.471c1.185,0,2.37-.01,3.555.006A4.52,4.52,0,0,0,12.588.2a6,6,0,0,1,3.146.015,1.091,1.091,0,0,1,.923,1.313A1.052,1.052,0,0,0,17.671,2.8a1.61,1.61,0,0,1,1.457,1.744,1.7,1.7,0,0,1-1.69,1.7c-.7.039-.874.459-1.068.959-1.283,3.319-3.5,4.922-6.819,4.93a6.809,6.809,0,0,1-6.76-4.826C2.56,6.7,2.33,6.3,1.541,6.22A1.667,1.667,0,0,1,0,4.526,1.525,1.525,0,0,1,1.335,2.838c.809-.143,1.143-.525,1.028-1.335S2.6.42,3.408.455C4.722.512,6.041.47,7.357.471Z" transform="translate(1.346 10.347)" fill="#f8cece"/><path d="M9.278,8.986c-2.721,0-5.442-.032-8.162.019C.248,9.02-.037,8.752,0,7.889.067,6.531-.008,5.168.03,3.809A3.582,3.582,0,0,1,2.774.233C3.714.009,4.784-.475,4.821,1.3c.014.7.762,1.015,1.493,1.017,1.8,0,3.6.009,5.4,0A1.479,1.479,0,0,0,13.4.854c.033-.745.374-.825.989-.837C17.1-.036,18.7,1.459,18.725,4.137c.01,1.273-.04,2.547.018,3.817.037.8-.231,1.061-1.04,1.049C14.895,8.96,12.086,8.986,9.278,8.986Z" transform="translate(1.859 24.288)" fill="#f8a6a6"/><path d="M6.862.015C8.7.015,10.549.054,12.391,0A1.6,1.6,0,0,1,14.225,1.74c.067,1.4.074,2.811,0,4.211a2.792,2.792,0,0,1-3.034,2.758q-4.476.012-8.953,0C.72,8.7.023,7.994.017,6.456c-.008-1.8.029-3.6-.016-5.4C-.019.25.273-.016,1.069,0,3,.043,4.931.015,6.862.015Z" transform="translate(1.054 1.053)" fill="#4670c5"/><path d="M.017,3.987c0-.918-.018-1.837,0-2.755C.049.067.515-.233,1.616.169A3.854,3.854,0,0,1,4.224,3.752c.039,1.311-.03,2.626.022,3.936.033.825-.3,1.1-1.08,1.033-.434-.038-.877.026-1.311-.013A1.81,1.81,0,0,1,.029,6.873C-.028,5.914.017,4.949.017,3.987Z" transform="translate(16.337 1.05)" fill="#4670c5"/><path d="M.115,0A8.67,8.67,0,0,0,6.6.006c.026.343.052.557.056.77.032,1.741.031,1.742-1.679,1.745-1.136,0-2.278-.074-3.406.021-1.182.1-1.736-.263-1.527-1.5C.093.744.086.441.115,0Z" transform="translate(7.576 23.031)" fill="#f5cdce"/><path d="M0,19.452c.274-.738.426-1.239.642-1.711A15.994,15.994,0,0,0,2.194,9.857C2.04,7.541,2.148,5.205,2.17,2.879A2.593,2.593,0,0,1,5.017.01q8.166-.022,16.332,0a2.408,2.408,0,0,1,2.7,2.659q.026,5.861,0,11.722a2.444,2.444,0,0,1-2.76,2.737c-4,.011-7.993.087-11.985-.029a14.191,14.191,0,0,0-6.493,1.274C1.986,18.755,1.107,19.032,0,19.452Z" transform="translate(21.849 1.065)" fill="#c8dbe6"/><path d="M1.59,1.462C1.583,2.093,1.6,2.815.7,2.74S.04,1.874.008,1.3C-.026.657.007-.074.869.006,1.7.083,1.581.855,1.59,1.462Z" transform="translate(14.219 12.562)" fill="#3b64ca"/><path d="M.01,1.44C-.024.689-.015,0,.747,0c.949,0,.826.829.833,1.475.007.579.028,1.256-.77,1.264C-.231,2.749.064,1.887.01,1.44Z" transform="translate(6.05 12.565)" fill="#3c64cb"/><path d="M2.063,1.559A2.2,2.2,0,0,1,.266.926C.056.7-.154.419.159.127.433-.129.58.131.792.3A1.97,1.97,0,0,0,3.425.322c.2-.152.368-.487.625-.225.3.308.141.671-.147.918A2.478,2.478,0,0,1,2.063,1.559Z" transform="translate(8.782 17.703)" fill="#4167cb"/><path d="M3.68,1.806A2,2,0,0,1,1.837,3.673,1.944,1.944,0,0,1,0,1.707,1.663,1.663,0,0,1,1.867,0,1.736,1.736,0,0,1,3.68,1.806Z" transform="translate(26.892 7.899)" fill="#695ef8"/><path d="M3.677,1.8A1.933,1.933,0,0,1,1.849,3.67,2,2,0,0,1,0,1.782,1.735,1.735,0,0,1,1.858,0,1.7,1.7,0,0,1,3.677,1.8Z" transform="translate(33.235 7.901)" fill="#695ef8"/><path d="M0,1.738A1.613,1.613,0,0,1,1.807,0,1.617,1.617,0,0,1,3.5,1.855a1.707,1.707,0,0,1-1.808,1.8A1.716,1.716,0,0,1,0,1.738Z" transform="translate(39.775 7.902)" fill="#695ef8"/><g transform="translate(29.08 26.137)"><path d="M10.948,34.479c-3.03,0-6.06-.035-9.088.019C.805,34.517.461,34.125.5,33.111c.076-1.8-.039-3.606.121-5.392A4.547,4.547,0,0,1,5.24,23.4c.431-.025,1.052.292,1.263-.346.2-.608-.437-.762-.761-1.084A10.879,10.879,0,0,1,4.309,20.44c-.848-1.259-1.444-2.587-2.988-3.384-1.438-.743-1.488-2.6-.485-3.922.642-.847,1.191-1.613-.254-2.213a.886.886,0,0,1-.464-.755C-.667,4.038,2.5-.016,8.178.091c1.631.031,3.35-.46,4.879.567.074.049.232-.006.345-.038a6.408,6.408,0,0,1,8.39,5.845c.054,1.1.015,2.195.026,3.292a1.193,1.193,0,0,1-.705,1.287c-1.077.427-.713,1.163-.31,1.775,1.532,2.325,1.146,3.744-1.445,4.924a1.226,1.226,0,0,0-.674.741,7.944,7.944,0,0,1-2.824,3.71c-.292.21-.579.43-.477.85.121.495.542.34.865.362,3.481.231,5.057,1.877,5.087,5.341.013,1.493-.045,2.988.018,4.478.042,1-.364,1.285-1.317,1.271C17.008,34.452,13.978,34.479,10.948,34.479Z" transform="translate(26.505)" fill="#3762cb"/><path d="M10.988,2.469c.527,0,1.057-.037,1.58.007A21.567,21.567,0,0,0,24.3.394c.556-.279,1.205-.69,1.814-.068.574.586.137,1.185-.114,1.7A20.028,20.028,0,0,0,24,12.59c.134,1.746.033,3.51.018,5.267A3.518,3.518,0,0,1,20.4,21.684q-8.363.088-16.727,0a3.5,3.5,0,0,1-3.654-3.8q-.038-5.861,0-11.722A3.467,3.467,0,0,1,3.744,2.475C6.158,2.442,8.573,2.468,10.988,2.469Z" transform="translate(0 12.771)" fill="#3862cb"/><path d="M11.528,0A4.15,4.15,0,0,0,15.7,2.383c.628-.042,1.025.094.939.844-.09.782.2,1.158,1.068,1.287a1.538,1.538,0,0,1,1.325,1.818A1.517,1.517,0,0,1,17.565,7.89c-.76.055-1.011.448-1.249,1.092a7.128,7.128,0,0,1-13.575.033A1.454,1.454,0,0,0,1.376,7.872,1.523,1.523,0,0,1,0,6.226a1.5,1.5,0,0,1,1.3-1.7c.958-.121,1.181-.585,1.1-1.4-.056-.583.226-.768.775-.743.656.03,1.314.006,1.971.006C8.782,2.391,8.927,2.337,11.528,0Z" transform="translate(27.936 8.72)" fill="#f8cece"/><path d="M9.411,9.022c-2.717,0-5.436-.042-8.151.022-1,.024-1.306-.315-1.255-1.28C.086,6.234-.05,4.7.156,3.169A3.729,3.729,0,0,1,4.455.052c.572.1.551.464.615.833A1.507,1.507,0,0,0,6.824,2.251c1.709-.033,3.419-.039,5.128,0C13,2.279,13.664,1.888,13.771.82c.064-.639.382-.749.95-.765a3.6,3.6,0,0,1,4,3.715c.04,1.357-.038,2.719.028,4.075.045.913-.258,1.214-1.183,1.2C14.847,8.988,12.129,9.022,9.411,9.022Z" transform="translate(28.038 24.408)" fill="#f8a6a6"/><path d="M4.217,9C3.21,9,2.2,8.949,1.2,9.02.244,9.088.049,8.687.015,7.8-.075,5.492.191,3.4,2.114,1.75A7.511,7.511,0,0,1,6.288.076,25.6,25.6,0,0,1,9.83.052c1.031.021,1.629.455,1.556,1.615-.066,1.046-.01,2.1-.015,3.15A4.127,4.127,0,0,1,7.237,9C6.23,9.023,5.223,9,4.217,9Z" transform="translate(27.67 1.018)" fill="#4670c5"/><path d="M0,3.75c0-.876-.011-1.752.005-2.627A1.087,1.087,0,0,1,1.324,0,5.921,5.921,0,0,1,6.879,5.857C6.784,8.895,6.862,8.9,3.86,8.9c-.394,0-.789.015-1.182,0A2.683,2.683,0,0,1,0,6.115C0,5.326,0,4.538,0,3.75Z" transform="translate(40.357 1.125)" fill="#4670c5"/><path d="M3.43,2.384c-.614,0-1.229,0-1.843,0C.206,2.381-.242,1.755.12.419.307-.272.693.1,1.028.193a8.983,8.983,0,0,0,4.8.022c.357-.095.971-.559.934.268-.03.655.595,1.729-.706,1.88A23.208,23.208,0,0,1,3.43,2.384Z" transform="translate(33.997 23.211)" fill="#f5ccce"/><path d="M24.044,0a7.3,7.3,0,0,1-.274.817c-1.838,3.591-2.11,7.432-1.887,11.371.084,1.487.029,2.982.009,4.474a2.522,2.522,0,0,1-2.652,2.784q-8.29.051-16.581,0A2.485,2.485,0,0,1,.012,16.68Q-.01,10.889.013,5.1C.023,3.234.9,2.352,2.763,2.342c3.6-.021,7.2-.152,10.789.036A18.394,18.394,0,0,0,22.324.66C22.8.443,23.3.282,24.044,0Z" transform="translate(1.073 13.981)" fill="#c8dbe6"/><path d="M2.353,1.875a2.542,2.542,0,0,1-2.12-.806C-.008.782-.128.427.2.137.477-.1.727.023.989.274A1.674,1.674,0,0,0,3.531.287C3.837,0,4.091-.148,4.4.205s.093.68-.146.934A2.431,2.431,0,0,1,2.353,1.875Z" transform="translate(35.188 17.642)" fill="#3c65ca"/><path d="M1.674,1.421c-.041.616-.049,1.368-.854,1.359S-.04,2.024.016,1.408C.07.812-.091-.071.908,0,1.737.068,1.639.824,1.674,1.421Z" transform="translate(40.718 12.671)" fill="#4167ca"/><path d="M0,1.477C.043.8-.052.039.807,0c.934-.041.784.759.791,1.346s.141,1.4-.728,1.426C.034,2.8.064,2.016,0,1.477Z" transform="translate(32.521 12.672)" fill="#4167cb"/><path d="M4.288,3.67c.332-1.823.765-2.082,2.485-1.979,1.419.085,2.872-.156,4.266.045,1,.144,1.486.078,1.882-.932A1.391,1.391,0,0,1,14.951.2a1.415,1.415,0,0,1,.887,1.829,58.674,58.674,0,0,0-2.175,8.494c-.33,1.43-1.431,2.66-1.173,4.3.059.375-.333.581-.735.582q-2.567,0-5.134,0c-.715,0-.952-.449-.841-1.039.28-1.492-.494-2.49-1.463-3.439C2.183,8.83,1.36,5.99.119,3.4-.3,2.533.45,2.092,1.176,1.958A2.56,2.56,0,0,1,4.288,3.67Z" transform="translate(3.508 16.797)" fill="#3862cb"/><path d="M7.315,6.35c.854,0,1.557-.044,2.253.01,1.133.089,1.679-.417,1.6-1.523-.114-1.519.6-2.805,1.072-4.163.158-.454.4-.846.953-.6.487.223.329.669.173,1.03a30.413,30.413,0,0,0-1.9,7.625,2.255,2.255,0,0,1-2.531,2.132c-.833.017-1.668-.036-2.5-.019a2.283,2.283,0,0,1-1.643-.7C2.525,8.063,1.358,5.315.156,2.588.073,2.4-.127,2.172.118,2.012a.854.854,0,0,1,.614-.084,1.538,1.538,0,0,1,1.056.909c.287.638.649,1.248.884,1.9A2.066,2.066,0,0,0,4.979,6.391c.988-.064,1.548.7,1.8,1.625.112.4.046,1.032.665.922.694-.124.424-.769.356-1.2A8.531,8.531,0,0,0,7.315,6.35Z" transform="translate(4.851 17.903)" fill="#f7cdce"/><path d="M2.36.125C2.846.092,3.41.068,3.971.012c.408-.04.681.031.678.522,0,.426-.041.8-.6.793-1.172,0-2.345,0-3.517,0C.045,1.322,0,.994,0,.615,0,.2.1-.049.593.008,1.152.073,1.718.085,2.36.125Z" transform="translate(10.328 29.841)" fill="#ebc7ce"/><path d="M0,1.779C.38,1.191-.479.033.665,0c1.337-.038.6,1.187.642,1.8.037.581.6,1.718-.555,1.749C-.654,3.59.473,2.313,0,1.779Z" transform="translate(8.916 19.596)" fill="#ecc7cd"/><path d="M1.324,1.99c-.31.449.592,1.631-.635,1.626-1.2,0-.432-1.132-.606-1.734A3.369,3.369,0,0,1,.071.84C.087.468-.022.024.6,0s.728.339.725.831C1.322,1.181,1.324,1.53,1.324,1.99Z" transform="translate(13.657 19.533)" fill="#e9c6cd"/><path d="M.011,1.818a6.154,6.154,0,0,1,.005-.785C.069.616-.228-.026.6,0c.7.023.525.568.541.969.023.567.024,1.136,0,1.7-.018.395.171.926-.54.961-.731.036-.563-.494-.585-.9C0,2.43.011,2.124.011,1.818Z" transform="translate(11.36 19.556)" fill="#f6cdce"/></g></g></g></g><g transform="translate(89.355 26.396)"><g transform="translate(11.157)"><rect width="0.399" height="5.928" fill="#28c76f"/></g><g transform="translate(11.157 16.767)"><rect width="0.399" height="5.928" transform="translate(0 0)" fill="#28c76f"/></g><g transform="translate(15.051 3.182)"><rect width="5.93" height="0.399" transform="translate(0 4.192) rotate(-44.978)" fill="#28c76f"/></g><g transform="translate(3.185 15.038)"><rect width="5.931" height="0.399" transform="translate(0 4.192) rotate(-44.978)" fill="#28c76f"/></g><g transform="translate(16.78 11.148)"><rect width="5.933" height="0.399" transform="translate(0 0)" fill="#28c76f"/></g><g transform="translate(0 11.148)"><rect width="5.933" height="0.399" transform="translate(0 0)" fill="#28c76f"/></g><g transform="translate(15.051 15.038)"><rect width="0.399" height="5.93" transform="translate(0 0.282) rotate(-45.023)" fill="#28c76f"/></g><g transform="translate(3.185 3.182)"><rect width="0.399" height="5.93" transform="matrix(0.707, -0.707, 0.707, 0.707, 0, 0.282)" fill="#28c76f"/></g></g><g transform="translate(257.475 110.593)"><g transform="translate(8.262)"><rect width="0.295" height="4.39" fill="#28c76f"/></g><g transform="translate(8.262 12.416)"><rect width="0.295" height="4.39" transform="translate(0 0)" fill="#28c76f"/></g><g transform="translate(11.145 2.357)"><rect width="4.391" height="0.295" transform="translate(0 3.104) rotate(-44.978)" fill="#28c76f"/></g><g transform="translate(2.359 11.136)"><rect width="4.392" height="0.295" transform="translate(0 3.104) rotate(-44.978)" fill="#28c76f"/></g><g transform="translate(12.426 8.255)"><rect width="4.393" height="0.295" transform="translate(0 0)" fill="#28c76f"/></g><g transform="translate(0 8.255)"><rect width="4.393" height="0.295" transform="translate(0 0)" fill="#28c76f"/></g><g transform="translate(11.145 11.136)"><rect width="0.295" height="4.391" transform="translate(0 0.209) rotate(-45.023)" fill="#28c76f"/></g><g transform="translate(2.359 2.357)"><rect width="0.295" height="4.391" transform="matrix(0.707, -0.707, 0.707, 0.707, 0, 0.209)" fill="#28c76f"/></g></g><g transform="translate(409.04 163.972)"><g transform="translate(11.157)"><rect width="0.399" height="5.928" fill="#28c76f"/></g><g transform="translate(11.157 16.767)"><rect width="0.399" height="5.928" transform="translate(0 0)" fill="#28c76f"/></g><g transform="translate(15.051 3.182)"><rect width="5.93" height="0.399" transform="translate(0 4.192) rotate(-44.978)" fill="#28c76f"/></g><g transform="translate(3.185 15.038)"><rect width="5.931" height="0.399" transform="translate(0 4.192) rotate(-44.978)" fill="#28c76f"/></g><g transform="translate(16.78 11.148)"><rect width="5.933" height="0.399" transform="translate(0 0)" fill="#28c76f"/></g><g transform="translate(0 11.148)"><rect width="5.933" height="0.399" transform="translate(0 0)" fill="#28c76f"/></g><g transform="translate(15.051 15.038)"><rect width="0.399" height="5.93" transform="translate(0 0.282) rotate(-45.023)" fill="#28c76f"/></g><g transform="translate(3.185 3.182)"><rect width="0.399" height="5.93" transform="matrix(0.707, -0.707, 0.707, 0.707, 0, 0.282)" fill="#28c76f"/></g></g><circle cx="3.628" cy="3.628" r="3.628" transform="translate(56.303 130.686)" fill="#eaefee"/><circle cx="3.628" cy="3.628" r="3.628" transform="translate(264.473 175.272)" fill="#eaefee"/><circle cx="4.982" cy="4.982" r="4.982" transform="translate(379.862 153.653)" fill="#eaefee"/><circle cx="2.275" cy="2.275" r="2.275" transform="translate(137.014 52.407)" fill="#eaefee"/><circle cx="2.275" cy="2.275" r="2.275" transform="translate(306.984 106.368)" fill="#eaefee"/><rect width="417.122" height="6.729" rx="3" transform="translate(470.165 307.26) rotate(-180)" fill="#93ccad"/></g><rect width="501.489" height="324.513" transform="translate(9.839)" fill="none"/></g></g></svg>