<svg xmlns="http://www.w3.org/2000/svg" xmlns:xlink="http://www.w3.org/1999/xlink" width="546" height="354" viewBox="0 0 546 354"><defs><filter id="a" x="386.282" y="44.799" width="70.435" height="70.35" filterUnits="userSpaceOnUse"><feOffset dy="3" input="SourceAlpha"/><feGaussianBlur stdDeviation="3" result="b"/><feFlood flood-opacity="0.161"/><feComposite operator="in" in2="b"/><feComposite in="SourceGraphic"/></filter><filter id="c" x="355.034" y="120.818" width="70.42" height="70.377" filterUnits="userSpaceOnUse"><feOffset dy="3" input="SourceAlpha"/><feGaussianBlur stdDeviation="3" result="d"/><feFlood flood-opacity="0.161"/><feComposite operator="in" in2="d"/><feComposite in="SourceGraphic"/></filter><filter id="e" x="272.115" y="120.555" width="70.398" height="70.359" filterUnits="userSpaceOnUse"><feOffset dy="3" input="SourceAlpha"/><feGaussianBlur stdDeviation="3" result="f"/><feFlood flood-opacity="0.161"/><feComposite operator="in" in2="f"/><feComposite in="SourceGraphic"/></filter><filter id="g" x="236.32" y="44.772" width="70.43" height="70.342" filterUnits="userSpaceOnUse"><feOffset dy="3" input="SourceAlpha"/><feGaussianBlur stdDeviation="3" result="h"/><feFlood flood-opacity="0.161"/><feComposite operator="in" in2="h"/><feComposite in="SourceGraphic"/></filter><filter id="i" x="314.386" y="45.055" width="70.408" height="70.39" filterUnits="userSpaceOnUse"><feOffset dy="3" input="SourceAlpha"/><feGaussianBlur stdDeviation="3" result="j"/><feFlood flood-opacity="0.161"/><feComposite operator="in" in2="j"/><feComposite in="SourceGraphic"/></filter></defs><g transform="translate(-5995 -936)"><rect width="546" height="354" transform="translate(5995 936)" fill="none"/><rect width="546" height="354" transform="translate(5995 936)" fill="none"/><path d="M499.817,238.94a46.487,46.487,0,0,1-9.951,15.564c-.588.615-1.19,1.207-1.8,1.788q-1.233,1.128-2.527,2.216c-6.7,5.543-14.55,9.333-22.213,12.1q-3.133,1.128-6.287,2.12-2.661.84-5.326,1.568c-.675.192-1.35.372-2.025.564s-1.449.378-2.163.564l-1.025.254c-19.825,4.765-39.909,5.673-60.14,4.478l-.961-.062-1.536-.1q-6.161-.417-12.335-1.066l-1.558-.164-.688-.073q-3.461-.378-6.923-.829-4.56-.564-9.134-1.246l-.394-.056-.32-.051h0c-10.881-1.6-21.789-3.513-32.709-5.481l-1.545-.282-2.773-.5-2.336-.423h0l-.692-.124q-5.53-1.009-11.059-2l-.6-.107c-6.923-1.235-13.884-2.425-20.824-3.508l-.9-.141h0q-4.262-.66-8.519-1.257l-2.163-.3L265.511,262c-7.974-1.032-15.944-1.855-23.9-2.368q-5.737-.372-11.5-.564-4.759-.141-9.519-.164-6.455-.04-12.937.1h-.978c-6.088.13-12.188.355-18.293.626l-1.1.045h-.363c-12.98.6-25.96,1.393-38.905,1.962l-3.163.135H144.4q-6.75.282-13.486.434H128.24l-2.008.034q-3.128.04-6.243.045H117.44c-7.624-.028-15.217-.248-22.762-.761l-.839-.062a224.8,224.8,0,0,1-43.4-7.038q-2.211-.6-4.413-1.263a169.6,169.6,0,0,1-28.9-11.453c-4.43-2.256-8.887-4.861-12.257-9.271-8.549-11.278-5.339-33.367,5.785-39.79,8.7-5.024,18.894-.936,28.253-3.2a11.8,11.8,0,0,0,1.7-.564,20.968,20.968,0,0,0,3.461-1.861c.381-.248.761-.513,1.147-.789a29.09,29.09,0,0,0,2.561-2.041,42.434,42.434,0,0,0,3.894-3.852q.822-.914,1.6-1.895a39.365,39.365,0,0,0,4.725-7.37,29.425,29.425,0,0,0,1.3-3.181c.2-.564.385-1.173.537-1.759a20.532,20.532,0,0,0,.515-2.605,14.184,14.184,0,0,0-3.409-11.718,9.756,9.756,0,0,0-.865-.851,12.926,12.926,0,0,0-1.878-1.415c-.264-.164-.537-.321-.813-.474-3.955-2.171-9.056-3.006-13.356-4.511h0a20.185,20.185,0,0,1-3.825-1.731c-.783-.474-1.562-.97-2.328-1.489h0l-.2-.147h0a57.931,57.931,0,0,1-16.874-18.045,61.906,61.906,0,0,1-3.141-5.944c-.29-.62-.571-1.258-.839-1.895-7.6-17.876-8.385-40.783-.476-58.36a58.348,58.348,0,0,1,3.2-6.124q.571-.964,1.181-1.895C24.244,37.351,35.061,29.506,45.981,23.7,60.64,15.9,75.987,10.982,91.627,7.739q4.759-.987,9.519-1.771c13.283-2.211,26.721-3.384,40.065-4.275Q159.932.459,178.818.1q6.4-.113,12.811-.1,14.447,0,28.893.727,4.759.237,9.519.564,12.206.823,24.363,2.256,5.841.688,11.656,1.517c29.525,4.207,58.622,11.34,86.715,22.433q4.781,1.883,9.519,3.947a321.382,321.382,0,0,1,34.782,17.521q1.609.942,3.21,1.895,10.639,6.361,20.976,13.709A234.487,234.487,0,0,1,447.481,86q4.9,4.681,9.519,9.767A163.758,163.758,0,0,1,472.191,115.3q.623.942,1.233,1.895,3.167,4.957,6.014,10.269c9.259,17.346,15.472,37.185,20.058,57.452C503.542,202.6,506.233,222.457,499.817,238.94Z" transform="translate(6006.272 949.252)" fill="#eaefee"/><g transform="translate(-10 -32.51)"><ellipse cx="91.5" cy="18" rx="91.5" ry="18" transform="translate(6055 1276.51)" fill="#dadce2"/><g transform="translate(6055.483 1070.17)"><g transform="translate(25.222 71.513)"><path d="M67.47,301.21h1.352v-4.118H67.47a6.167,6.167,0,0,1-6.137-5.5l-7.721-65.212a11.038,11.038,0,0,0-10.91-9.732l-8.274-.028-.015,4.12,8.277.028a6.913,6.913,0,0,1,6.834,6.1l7.719,65.195A10.274,10.274,0,0,0,67.47,301.21Z" transform="translate(-15.597 -215.419)" fill="#989898"/><path d="M116.928,317.086h4.118V253.712H49.324v30.27h4.118V257.83h63.486Z" transform="translate(1.842 -172.038)" fill="#989898"/><path d="M55.023,227.891l5.842,51.2a5.433,5.433,0,0,0,5.4,4.816h53.512a9.245,9.245,0,0,1,9.244,9.244v.093H58.828a8.052,8.052,0,0,1-8-7.116L43.2,221.071l2.7-.343A8.148,8.148,0,0,1,55.023,227.891Z" transform="translate(-5.326 -210.69)" fill="#e59927"/><g transform="translate(110.695 126.049)"><g transform="translate(0 0)"><ellipse cx="15.794" cy="15.794" rx="15.794" ry="15.794" transform="translate(0 7.257) rotate(-13.283)" fill="#989898"/><path d="M94.546,279.906A12.044,12.044,0,1,1,82.5,291.949a12.056,12.056,0,0,1,12.043-12.043Zm0-4.7a16.743,16.743,0,1,0,16.744,16.742,16.742,16.742,0,0,0-16.744-16.742Z" transform="translate(-75.546 -272.949)" fill="#100f0f"/></g><path d="M84.527,281.93c-4.191,5.5,2.028,11.719,7.53,7.53C96.247,283.959,90.027,277.739,84.527,281.93Z" transform="translate(-69.292 -266.695)" fill="#3c3b3b"/></g><g transform="translate(3.337 58.775)"><path d="M51.427,262.357a11.287,11.287,0,1,0,14.9,5.733A11.288,11.288,0,0,0,51.427,262.357Z" transform="translate(-7.822 -224.485)" fill="#989898"/><rect width="89.47" height="2.919" transform="matrix(0.359, -0.933, 0.933, 0.359, 30.862, 89.372)" fill="#989898"/><rect width="2.919" height="89.47" transform="translate(28.784 7.857) rotate(-23.962)" fill="#989898"/><rect width="2.919" height="89.47" transform="matrix(0.359, -0.933, 0.933, 0.359, 6.01, 33.444)" fill="#989898"/><rect width="89.47" height="2.919" transform="matrix(0.914, -0.406, 0.406, 0.914, 6.813, 64.976)" fill="#989898"/><path d="M55.089,247.791a47.186,47.186,0,1,1-23.96,62.282A47.24,47.24,0,0,1,55.089,247.791Zm2.627,5.912a40.718,40.718,0,1,0,53.743,20.677A40.763,40.763,0,0,0,57.716,253.7Z" transform="translate(-26.061 -242.725)" fill="#989898"/><path d="M57.464,336.382a48.172,48.172,0,1,0,34.591-89.92,48.626,48.626,0,0,0-12.9-3.025,48.179,48.179,0,0,0-21.687,92.945ZM33.908,275.706a43.771,43.771,0,1,1,25.131,56.563A43.823,43.823,0,0,1,33.908,275.706Z" transform="translate(-26.572 -243.235)" fill="#564e4e"/><path d="M50.729,264.851c-5.516,3.4-2.169,10.934,4.052,9.121C60.3,270.57,56.95,263.038,50.729,264.851Z" transform="translate(-4.499 -221.189)" fill="#3c3b3b"/></g><rect width="23.713" height="6.863" rx="1.137" transform="translate(0)" fill="#e59927"/></g><path d="M32.815,220.688,40.9,285.934H79.338V220.688Z" transform="translate(7.758 -139.146)" fill="#fec757"/><g transform="translate(50.266 0)"><path d="M83.733,258.592,77.4,261.955l-19.79-31.282c-1.929-3.508-1.159-7.231,2.256-8.882l.126-.061a6.867,6.867,0,0,1,9.17,3.193Z" transform="translate(-14.718 -138.729)" fill="#ffc990"/><path d="M69.891,217.765l1.048,18.28-1.373-.371-12.377-3.387-1.462-13.34a22.915,22.915,0,0,0,11.253-.3C67.973,218.394,68.942,218.088,69.891,217.765Z" transform="translate(-15.714 -142.564)" fill="#ffc990"/><path d="M70.573,224.958l.273,4.736.106,1.855c-.948.323-1.918.629-2.911.879a22.917,22.917,0,0,1-11.253.3l-1.97-17.79c-.1-6.389,8.511-8.8,10.667-8.962C68.267,207.693,69.493,210.559,70.573,224.958Z" transform="translate(-16.777 -156.348)" fill="#ededed"/><path d="M56.888,236.717v30.477q13.316-.563,26.611-1.679c.72-.061,5.636-.193,7.6-.514,3.946-5.291,7.893-11.3,11.839-17.2C89.2,240.1,72.738,237.008,56.888,236.717Z" transform="translate(-14.355 -120.401)" fill="#f2bf89"/><path d="M85.22,318.632c.33-2.308.612-4.623.889-6.938,1.124-9.374,2.091-22.892,3.048-32.284.49-4.81.9-9.637,1.495-14.436.67-5.4,1.614-10.8,1.475-16.258-.039-1.536.08-3.15-.9-4.341a7.6,7.6,0,0,0-3.189-2.551c-5.567,4.406-11.047,8.851-16.425,12.676.486.074.809.082.855-.011a33.638,33.638,0,0,0-1.6,4.768,49,49,0,0,0-.97,16.384c.857,9.817,3.586,23.957,4.864,33.152a66.992,66.992,0,0,1,.653,7.5c.022.944.017,1.846-.02,2.734,0,.2-.013.4-.03.594-.02.349-.037.69-.072,1.035,1.59.3,7.467,2.64,8.94,2.875C84.434,323.563,84.777,321.732,85.22,318.632Z" transform="translate(0.546 -114.428)" fill="#f2bf89"/><g transform="translate(73.402 200.16)"><g transform="translate(0.432)"><path d="M73.446,278.881c-.18-4.361,5.278-1.4,8.339-3.517,5.632,10.891,21.228,15.709,21.235,15.7,2.443.065,4.706-.2,4.6,1.94-.078,1.51-2.2,3.688-8.535,2.4-9.734-1.391-12.947-3.1-18.844-1.992-4.7.883-6.574,1.566-8.094-.609C69.758,289.4,73.27,285.255,73.446,278.881Z" transform="translate(-71.316 -275.364)" fill="#f2bf89"/></g><path d="M108.849,290.4c-.462,4.768-20.816,1.547-28.292,1.159-4.777-.247-7.129.7-8.635-1.482-1.712-2.434-.456-8.37,1.545-12.179,6.083,3.2,12.77,7.548,19.287,5.341.02,0,.041-.022.061-.022,5.788,2.211,10.344,3.888,10.364,3.9C106.4,288.337,109.052,288.282,108.849,290.4Z" transform="translate(-71.117 -272.402)" fill="#212121"/></g><path d="M56.888,236.867v26.608c5.916-.315,11.83-.692,17.738-1.193.642-.054,5.027-.174,6.775-.46,3.519-4.719,7.038-10.077,10.557-15.34C81.438,240.583,69.115,237.724,56.888,236.867Z" transform="translate(-14.355 -120.225)" fill="#f2bf89"/><path d="M85.2,248.744c.02.577.02,1.135,0,1.712a73.932,73.932,0,0,1-.64,8.248c-.269,2.1-.577,4.209-.846,6.311-.6,4.784-.989,9.611-1.484,14.436-.475,4.682-.948,10.394-1.464,16.106v.041c-.495,5.712-1.011,11.444-1.588,16.126-.206,1.857-.453,3.734-.7,5.589-.063.453-.124.907-.187,1.362-.432,3.092-.783,4.927-.989,4.886a46.62,46.62,0,0,1-4.742-1.525c-.66-.228-1.3-.453-1.9-.659a21.771,21.771,0,0,0-2.289-.681c.022-.184.022-.349.041-.536,0-.165.022-.351.022-.516a5.685,5.685,0,0,0,.02-.577c0-.145.022-.288.022-.453q.029-1.113,0-2.289a65.022,65.022,0,0,0-.64-7.506c-1.28-9.177-4.022-23.324-4.866-33.138a52.905,52.905,0,0,1,.349-13.529c.1-.536.206-1.072.31-1.61.1-.412.206-.844.308-1.258.082-.289.145-.577.25-.866.143-.555.33-1.113.495-1.67.267-.742.536-1.484.844-2.226-.041.1-.371.082-.844.02,3.588-2.558,7.279-5.4,10.969-8.331,1.857-1.464,3.714-2.948,5.569-4.413.618.681,1.258,1.36,1.855,2.061l.558.681A6.883,6.883,0,0,1,85.2,248.744Z" transform="translate(-7.557 -114.462)" fill="#ffc990"/><g transform="translate(58.422 200.169)"><g transform="translate(0.382)"><path d="M100.776,293.227a1.9,1.9,0,0,1-.393,1.011,3.466,3.466,0,0,1-1.731,1.176,6.529,6.529,0,0,1-1.052.267,4.025,4.025,0,0,1-.536.082,16.019,16.019,0,0,1-4.91-.349c-2.163-.31-4-.64-5.608-.948-.681-.126-1.3-.247-1.9-.352-1.443-.289-2.7-.536-3.9-.722l-.8-.124a19.42,19.42,0,0,0-6.352.1,1.341,1.341,0,0,0-.289.041c-4.7.885-6.578,1.566-8.083-.618-1.712-2.434-.412-5.259.536-8.993a24.232,24.232,0,0,0,.6-2.948c.063-.475.1-.989.145-1.506,0-.165.02-.31.02-.475-.082-2.124,1.176-2.514,2.846-2.577,1.731-.1,3.918.145,5.484-.928A20.707,20.707,0,0,0,76.5,278.05a26.631,26.631,0,0,0,4.083,4.393c.143.124.308.267.453.39a35.936,35.936,0,0,0,4.66,3.341,49.074,49.074,0,0,0,10.394,4.888C98.529,291.125,100.878,291.1,100.776,293.227Z" transform="translate(-64.388 -275.368)" fill="#ffc990"/><path d="M100.776,293.227a1.9,1.9,0,0,1-.393,1.011,3.466,3.466,0,0,1-1.731,1.176,6.529,6.529,0,0,1-1.052.267,4.025,4.025,0,0,1-.536.082,16.019,16.019,0,0,1-4.91-.349c-2.163-.31-4-.64-5.608-.948-.681-.126-1.3-.247-1.9-.352-1.443-.289-2.7-.536-3.9-.722l-.8-.124a19.42,19.42,0,0,0-6.352.1,1.341,1.341,0,0,0-.289.041c-4.7.885-6.578,1.566-8.083-.618-1.712-2.434-.412-5.259.536-8.993a24.232,24.232,0,0,0,.6-2.948c.063-.475.1-.989.145-1.506,0-.165.02-.31.02-.475-.082-2.124,1.176-2.514,2.846-2.577,1.731-.1,3.918.145,5.484-.928A20.707,20.707,0,0,0,76.5,278.05a26.631,26.631,0,0,0,4.083,4.393c.143.124.308.267.453.39a35.936,35.936,0,0,0,4.66,3.341,49.074,49.074,0,0,0,10.394,4.888C98.529,291.125,100.878,291.1,100.776,293.227Z" transform="translate(-64.388 -275.368)" fill="#ffc990"/></g><path d="M101.952,290.393a1.692,1.692,0,0,1-.538,1.052,5.061,5.061,0,0,1-2.248,1.052,11.69,11.69,0,0,1-1.36.225,4.009,4.009,0,0,1-.536.083c-6.331.7-17.466-.866-22.994-1.215-.226-.022-.432-.041-.618-.041-4.784-.228-7.135.72-8.641-1.464-1.712-2.434-.453-8.374,1.547-12.188.022.02.063.02.082.041.742.391,1.506.8,2.248,1.217q.989.524,1.981,1.05a31.454,31.454,0,0,0,8.661,3.384c.228.041.453.08.681.1a11.905,11.905,0,0,0,5.63-.453c.02,0,.041-.022.061-.022,5.795,2.207,10.353,3.9,10.353,3.9C99.5,288.332,102.136,288.291,101.952,290.393Z" transform="translate(-64.212 -272.41)" fill="#212121"/></g><path d="M116.654,282.419a22.987,22.987,0,0,0-4.515,1.918,36.469,36.469,0,0,0-8.127,6.228A74.365,74.365,0,0,0,95.5,300.938c-.453.662-.887,1.28-1.258,1.857-.516.742-.989,1.423-1.4,2.042-.432.638-.8,1.217-1.154,1.67-.722,1.009-1.2,1.566-1.423,1.443-39.532,1.877-54.152,2.66-41.057-46.626-.7-2.1-1.61-5.012-2.6-8.248a.069.069,0,0,1-.02-.041c-.082-.228-.145-.453-.208-.7q-.309-.96-.618-1.981v-.041c-1.113-3.63-2.248-7.465-3.237-10.889-1.527-5.32-2.723-9.671-2.866-10.806-.783-5.382-2.66-12.331.866-17.425a9.48,9.48,0,0,1,.824-1.031A155.983,155.983,0,0,1,56.625,204.3a66.355,66.355,0,0,1,16.766.206c4.454,1.61,9.2,2.64,11.238,3.94a106.7,106.7,0,0,1,.206,18.56c-.124,2.764-.349,5.608-.638,8.5-.187,1.857-.373,3.731-.6,5.61v.061c-.145,1.176-.289,2.352-.453,3.506-.228,1.753-.475,3.506-.722,5.237-.267,1.775-.536,3.528-.824,5.239-.31,1.814-.618,3.608-.948,5.341.206.516.432,1.072.679,1.69.1.228.187.434.289.662.063.143.124.308.187.453a14.007,14.007,0,0,0,2.063,3.465l.02.02c.228.269.453.516.7.783h.022c.226.228.453.453.7.66.165.167.33.31.516.475a30.015,30.015,0,0,0,6.289,3.712c.165.063.349.145.558.228.289.143.577.267.907.412.39.165.8.349,1.237.514v.022c2.681,1.113,5.836,2.33,9.57,3.794,3.506,1.382,7.506,2.989,12.1,4.97C116.552,282.378,116.593,282.4,116.654,282.419Z" transform="translate(-35.919 -158.82)" fill="#da3a34"/><g transform="translate(12.032 58.555)"><path d="M63.072,228.892c0,6.12-4.612,11.082-10.3,11.082s-9.576-2.851-9.93-10c-.369-7.4,7.3-12.166,8.778-18.7C52.941,205.434,63.072,222.77,63.072,228.892Z" transform="translate(-42.829 -210.092)" fill="#da3a34"/><path d="M54.2,229.556c-6.005,0-10.108-2.983-10.483-10.463a10.558,10.558,0,0,1,.139-2.206,11.247,11.247,0,0,0-1.017,5.144c.354,7.148,4.241,10,9.93,10a10.217,10.217,0,0,0,9.064-5.816A10.5,10.5,0,0,1,54.2,229.556Z" transform="translate(-42.829 -202.147)" fill="#1d1d1b" opacity="0.2"/></g><g transform="translate(31.761 57.077)"><path d="M51.923,228.211c0,6.12,4.612,11.084,10.3,11.084s9.576-2.853,9.932-10c.369-7.4-7.3-12.166-8.78-18.7C62.054,204.753,51.923,222.089,51.923,228.211Z" transform="translate(-51.923 -209.411)" fill="#da3a34"/><path d="M60.125,228.877c6,0,10.108-2.985,10.483-10.466a10.707,10.707,0,0,0-.139-2.206,11.247,11.247,0,0,1,1.017,5.144c-.356,7.148-4.244,10-9.932,10a10.216,10.216,0,0,1-9.062-5.819A10.5,10.5,0,0,0,60.125,228.877Z" transform="translate(-51.256 -201.466)" fill="#1d1d1b" opacity="0.2"/></g><g transform="translate(7.809)"><path d="M63.443,202.387l-7.35-4.408-4.014-14.733C64.718,181.653,73.24,193.654,63.443,202.387Z" transform="translate(-27.789 -183.102)" fill="#212121"/><path d="M63.709,213.358l-1.371-7.031c-6.754-9.789-9.086-10.175-16.176-10.107v17.549l11.776,7.042Z" transform="translate(-34.709 -167.768)" fill="#f0bd87"/><g transform="translate(0 0.076)"><path d="M45.922,213.993a34.552,34.552,0,0,1-3.588-11.3c-1.365-17.725,11.127-18.228,17.677-18.939C77.128,182.7,76.564,201.54,76.564,201.54l2.742,5.7c.662,1.217-.443,2.2-1.365,2.766a1.854,1.854,0,0,0-.881,1.84,29.525,29.525,0,0,1-.13,5.589c-.425,3.439-2.974,5.276-6.6,5.589,0,0-9.025.148-12.878-10.689C54.626,212.307,47.258,216.486,45.922,213.993Z" transform="translate(-39.307 -182.464)" fill="#ffc990"/><path d="M50.976,227.466c.76.12.639-.695.424-.93,2.572.224,4.91,3.14,5.747-1.88s-4.095-17.968-2.4-18.2c13.433-1.842,6.218-15.533,20.265-15.284-.2-3.679-3.144-9.847-17.866-7.528-9.8,1.542-16.176,7.346-16.807,16.219-.455,6.4,1.92,23.634,0,33.159C41.52,234.68,49.165,230.511,50.976,227.466Z" transform="translate(-40.28 -183.137)" fill="#212121"/><path d="M46.708,197c.312,2.764,3,5.7,4.814,5.493s1.356-2.423,1.074-5.194c-.189-1.831-.017-4.484-2.068-4.84C48.736,192.153,46.252,192.945,46.708,197Z" transform="translate(-34.135 -172.3)" fill="#ffc990"/></g><path d="M52.108,193.653A8.205,8.205,0,0,1,56.04,188a19.311,19.311,0,0,1,6.224-2.094,2.69,2.69,0,0,1,1.05-.078,1.086,1.086,0,0,1,.833.683A1.788,1.788,0,0,1,63.811,188c-2.143,3.339-3.974,5.187-7.658,6.819-1.618.718-2.87,3.4-2.833,5.3A12.562,12.562,0,0,1,52.108,193.653Z" transform="translate(-27.849 -179.942)" fill="#212121"/></g><path d="M55.3,218.445,44.1,207.007l4.465-3.654,11.776,9.109Z" transform="translate(-29.306 -159.42)" fill="#ededed"/><path d="M57.106,217.647l4.413-11.191-4.549-3.265-5.379,9.461Z" transform="translate(-20.551 -159.609)" fill="#ededed"/><path d="M37.283,209.694h0Z" transform="translate(-37.283 -152.003)" fill="#1d1d1b" opacity="0.2"/><path d="M51.39,342.121c9.676.134,18.573,2.115,28.2,1.1,2.942-.315,6.318.089,9.272,0,4.4-.15,8.971-.061,13.353.15,6.916.315,14.236-.226,21.107.494,3.571.375,7.276-2.174,10.758-3.046a32.548,32.548,0,0,1-9.737-13.247,65.463,65.463,0,0,1-2.551-8.791c-.781-3.271-1.545-6.526-2.326-9.8-1.755-7.3-3.51-14.672-3.886-22.187-.046-.991-.074-1.966-.089-2.942v-.03c-.061-8.25,1.169-16.531.479-24.754a11.772,11.772,0,0,0-.991-4.4,11.191,11.191,0,0,0-3.074-3.48c-4.142-3.36-9.032-5.641-13.924-7.728a234.227,234.227,0,0,0-23.912-8.641c-6.662,4.38-13.457,9.331-16.833,16.549-3.662,7.845-2.64,16.952-2.146,25.593.885,15.288-.315,31.984-1.892,47.993-.36,3.617-.733,7.2-1.124,10.713-.226,2.085-.436,4.155-.66,6.2C51.405,341.956,51.405,342.032,51.39,342.121Z" transform="translate(-20.785 -122.616)" fill="#0b5b73"/><path d="M51.39,316.258c9.676.134,18.573,2.115,28.2,1.1,2.942-.315,6.318.089,9.272,0,4.4-.15,8.971-.061,13.353.15,6.916.315,14.236-.226,21.107.495,3.571.375,7.276-2.174,10.758-3.046a32.549,32.549,0,0,1-9.737-13.247,65.465,65.465,0,0,1-2.551-8.791c-.781-3.271-1.545-6.526-2.326-9.8-1.755-7.3-3.51-14.672-3.886-22.187-.046-.992-.074-1.966-.089-2.942v-.03c-.061-.345-.122-.675-.18-1.02-1.846,16.278,4.066,32.375,5.159,48.713a5.4,5.4,0,0,1-.51,3.315c-.989,1.532-3.33,1.666-4.905.751a9.8,9.8,0,0,1-3.406-4.2A14.163,14.163,0,0,0,108.623,301c-1.5,2.475.421,6.617-2.07,8.1-1.319.809-3.061.119-4.276-.857-3.226-2.579-4.591-6.886-4.86-11.01s.375-8.253.375-12.379a38.957,38.957,0,0,0-3.977-16.922,64.437,64.437,0,0,1-2.039,17.749c-1.276,5.354-3.122,10.847-7.053,14.7a26.855,26.855,0,0,1-7.381,4.814c-8.461,4.053-17.807,6.122-25.923,10.8C51.405,316.093,51.405,316.169,51.39,316.258Z" transform="translate(-20.785 -96.753)" fill="#1d1d1b" opacity="0.2"/><path d="M51.708,316.294a129.876,129.876,0,0,1,13.308-7.083,43.717,43.717,0,0,0,6.15-2.985c6.675-4.261,9.587-12.42,11.7-20.057a57.081,57.081,0,0,0,1.649-7.383c.466-3.434.375-6.9.616-10.351a108.124,108.124,0,0,1,3.031-17.043,45.176,45.176,0,0,0-6.721,16.787c-.51,2.835-.751,5.7-1.336,8.522a34.622,34.622,0,0,1-11.37,19.024c-4.758,4-10.487,6.645-15.844,9.81-.015.015-.046.03-.061.046C52.472,309.2,52.1,312.781,51.708,316.294Z" transform="translate(-20.413 -103.239)" fill="#1d1d1b" opacity="0.2"/><path d="M38.462,31.043c-.3,2,10.628-.147,21.7,38.657.217.759.895,3.245.895,3.245s6.969,10.094,11.3,2.884,4.566-9.373,4.566-9.373,1.928-2.3.927-13.142c-.39-1.9.036-8.241,0-10.809s-.428-12.522-3.622-15.56a2.687,2.687,0,0,0-1.871-.384,2.461,2.461,0,0,0-1.863,1.281s2.82,17.7-1.045,29.089c-.053.178-1.276,7.251-1.276,7.251A92.632,92.632,0,0,0,61.054,43.99c-3.607-7.068-9.236-13.066-15.211-15.153-.276-.11-1.853-.349-1.853-.349S38.765,29.048,38.462,31.043Z" transform="translate(-30.172 18.588)" fill="#0b5b73"/><path d="M47.271,33.373c-1.988-1.379,2.5,4.046,6.395,12.639A169.2,169.2,0,0,1,60.65,65.769a85.749,85.749,0,0,0-4.375-18.243C53.811,40.959,49.147,34.675,47.271,33.373Z" transform="translate(-26.881 21.509)" fill="#0e4e61"/><path d="M5643.66,1254.046c.581,8.01,2.047,8.393-2.735,23.081-.01.028-1.711,3.153-2.809-3.42" transform="translate(-5598.634 -1186.233)" fill="#fff" opacity="0.13"/><path d="M5644.577,1257c.778-4.66.221,9.008-3.686,14.475.02-.007-.652.736-.652.736l-1.228-4.143S5643.8,1261.658,5644.577,1257Z" transform="translate(-5600.705 -1184.834)" fill="#0e4e61"/></g><path d="M38.713,222.669c9.721,19.25-.872,32.8,3.6,53.2.345,1.53.51,4.441,1.516,6.944a7.462,7.462,0,0,0,2.1,3.122,6,6,0,0,0,4.035,1.365c12.993,0,18.167-1.38,31.145-1.365,4.636.015,9.962,1.05,14.583,1.365a42.438,42.438,0,0,1,13.637,2.881l.495.18c1.425-4.1-1.2-8.732-4.892-11.027-3.675-2.3-8.159-2.805-12.481-3.269-4.471-.482-8.927-.976-13.4-1.456-1.935-.21-3.886-.421-5.821-.735A34.327,34.327,0,0,1,66.3,272.1c-4.05-1.56-7.8-4.38-9.557-8.342-2.475-5.595-.571-11.912-.15-18.108,1.783.87,3.584,1.74,5.369,2.6a61.962,61.962,0,0,1,11.268,6.465c.193.15.388.3.568.451,2.762,2.25,5.072,4.981,7.756,7.3,2.671,2.341,5.851,4.337,9.379,4.667,3.541.315,7.439-1.425,8.745-4.725a1.54,1.54,0,0,0,.15-.631,1.8,1.8,0,0,0-.495-.944,18.127,18.127,0,0,0-7.066-5.011,15.767,15.767,0,0,1-2.356-1.02,15.615,15.615,0,0,1-2.28-1.935,35.368,35.368,0,0,0-6.422-4.291c-2.668-1.5-5.324-3.015-7.979-4.517q-7.179-4.071-14.358-8.131a28.788,28.788,0,0,0-4.126-2.055c-.525-1.5-1.126-3-1.71-4.471q-1.757-4.364-3.482-8.717H38.036A7.692,7.692,0,0,0,38.713,222.669Z" transform="translate(13.863 -139.146)" fill="#1d1d1b" opacity="0.2"/><g transform="translate(51.537 51.341)"><path d="M61.46,237a1.828,1.828,0,0,1-1.388-2.18l0-.009a1.561,1.561,0,0,1,1.872-1.18,16.075,16.075,0,0,0,7.411,2.076c1.313-.02,3.167.373,1.41,2.076a4.3,4.3,0,0,1-3.406.386Z" transform="translate(-11.955 -175.401)" fill="#ffc990"/><path d="M81.495,246.631l-.124.184-3.918,5.734-2-1.154c.02-.022,0-.022,0-.022h-.022l-.536-.308L43.446,232.814a7.81,7.81,0,0,1-.783-1.154.069.069,0,0,1-.02-.041,5.233,5.233,0,0,1-.8-2.371,1.491,1.491,0,0,1-.022-.31V228.9a6.5,6.5,0,0,1,1.506-3.855l.082-.1a6.761,6.761,0,0,1,2.846-2.228,6.4,6.4,0,0,1,1.217-.371,6.907,6.907,0,0,1,2.517-.082H50a6.3,6.3,0,0,1,2.206.785.027.027,0,0,1,.041,0,5.74,5.74,0,0,1,.764.495l1.794,1.443.844.7.022.022,24.253,19.653.02.02,1.031.846Z" transform="translate(-33.252 -188.745)" fill="#ffc990"/><g transform="translate(38.413 56.278)"><path d="M70.061,240.457l-.226-.226-3.465-3.506V236.7l-.041-.041-.475-.473-.082-.063-.289-.308a.861.861,0,0,0-.226-.165c0-.022,0-.022-.022-.022A1.733,1.733,0,0,0,64,235.426a1.112,1.112,0,0,0-.33.124,1.29,1.29,0,0,0-.393.289h-.02l-.041.041a1.67,1.67,0,0,0,.1,2.371.021.021,0,0,1,.022.022v.02l.887.7a.02.02,0,0,1,.02.022l.453.371,2.248,1.816,1.362,1.091c.02.022.041.043.061.043a1.77,1.77,0,0,0,.558.371,1.632,1.632,0,0,0,1.423-.167,1.236,1.236,0,0,0,.247-.349C70.949,241.572,70.66,240.995,70.061,240.457Z" transform="translate(-47.158 -229.571)" fill="#ffc990"/><path d="M69.938,241.283a2.389,2.389,0,0,0-.351-.291l-.33-.267-1.154-.907-2.289-1.835-.64-.495c0-.022,0-.022-.022-.022-.02-.02-.02-.041-.039-.061l-.64-.5c-.041-.02-.082-.061-.124-.061a.021.021,0,0,0-.022-.022,1.615,1.615,0,0,0-2.041.352v.02a1.963,1.963,0,0,0-.206.33,1.508,1.508,0,0,0-.143.991.977.977,0,0,0,.143.412,1.514,1.514,0,0,0,.558.7l.247.165,5.072,3.154.1.063a1.58,1.58,0,0,0,2.041.022,1.1,1.1,0,0,0,.289-.516A1.261,1.261,0,0,0,69.938,241.283Z" transform="translate(-48.168 -228.147)" fill="#ffc990"/><path d="M69.1,241.807a2.569,2.569,0,0,0-.66-.555l-3.588-2.393h-.02l-1.569-1.05c-.02,0-.02-.022-.041-.022a1.515,1.515,0,0,0-2,.453l-.02.02a1.614,1.614,0,0,0,.536,2.269l.453.228,3.836,1.959h.02a1.615,1.615,0,0,1,.247.143l.868.434a1.489,1.489,0,0,0,1.937-.145A.945.945,0,0,0,69.1,241.807Z" transform="translate(-49.311 -227.002)" fill="#ffc990"/><path d="M67.391,241.74a1.608,1.608,0,0,0-.247-.143h-.02l-3.28-1.9H63.8l-1.566-.907-.143-.082a1.485,1.485,0,0,0-.662-.165,1.417,1.417,0,0,0-1.237.722,1.5,1.5,0,0,0,.289,1.855.117.117,0,0,0,.1.063.96.96,0,0,0,.247.184l5.259,2.228a1.407,1.407,0,0,0,1.794-.269C68.443,242.709,68.011,242.111,67.391,241.74Z" transform="translate(-50.406 -225.883)" fill="#ffc990"/><path d="M74.788,239.863v-.022l-.041-.041a2.222,2.222,0,0,0-.184-.206H74.54l-.269-.267-.082-.063-.391-.349-.124-.124c0-.022,0-.022-.022-.022a16.82,16.82,0,0,0-2.536-2.267c-.247-.167-.495-.33-.742-.475a15.8,15.8,0,0,0-5.487-2.124,1.926,1.926,0,0,1-.308-.063h-.022a.088.088,0,0,1-.061-.019l-.1-.083-1.052-1.03H58.063l-2.31,2.267-.1.082a.245.245,0,0,0,.02.371l3.671,3.63h.022s.02,0,0,.022c.02.02.041.02.041.061a.165.165,0,0,1,0,.228,7.97,7.97,0,0,0,.742,2.083c.082.143.165.289.247.453a23.709,23.709,0,0,0,4.7,5.547l.434.412a.452.452,0,0,0,.124.082.117.117,0,0,0,.1.063,1.393,1.393,0,0,0,1.731-.288l.022-.022a1.368,1.368,0,0,0,.1-1.731l.165.143a1.546,1.546,0,0,0,.681.352,1.107,1.107,0,0,0,.514.061h.041a1.492,1.492,0,0,0,1.011-.473l.022-.043a1.439,1.439,0,0,0,.247-1.649A1.326,1.326,0,0,0,70,243.9l.267.228a1.686,1.686,0,0,0,.827.432h.02a1.592,1.592,0,0,0,1.4-.473l.02-.022a1.229,1.229,0,0,0,.247-.33,1.379,1.379,0,0,0,.041-1.239.809.809,0,0,0-.165-.349.02.02,0,0,0-.02-.022.294.294,0,0,0-.063-.08c0-.022,0-.022-.022-.022-.02-.02-.02-.041-.039-.061l-.1-.1a1.6,1.6,0,0,0,2.124.061.507.507,0,0,0,.124-.1l.02-.022A1.5,1.5,0,0,0,74.788,239.863Z" transform="translate(-55.575 -232.708)" fill="#ffc990"/><path d="M70.061,240.457l-.226-.226-3.465-3.506V236.7l-.041-.041-.475-.473-.082-.063-.289-.308a.861.861,0,0,0-.226-.165c0-.022,0-.022-.022-.022A1.733,1.733,0,0,0,64,235.426a1.112,1.112,0,0,0-.33.124,1.29,1.29,0,0,0-.393.289h-.02l-.041.041a1.67,1.67,0,0,0,.1,2.371.021.021,0,0,1,.022.022v.02l.887.7a.02.02,0,0,1,.02.022l.453.371,2.248,1.816,1.362,1.091c.02.022.041.043.061.043a1.77,1.77,0,0,0,.558.371,1.632,1.632,0,0,0,1.423-.167,1.236,1.236,0,0,0,.247-.349C70.949,241.572,70.66,240.995,70.061,240.457Z" transform="translate(-47.158 -229.571)" fill="#f0bd87"/><path d="M69.938,241.283a2.389,2.389,0,0,0-.351-.291l-.33-.267-1.154-.907-2.289-1.835-.64-.495c0-.022,0-.022-.022-.022-.02-.02-.02-.041-.039-.061l-.64-.5c-.041-.02-.082-.061-.124-.061a.021.021,0,0,0-.022-.022,1.615,1.615,0,0,0-2.041.352v.02a1.963,1.963,0,0,0-.206.33,1.508,1.508,0,0,0-.143.991.977.977,0,0,0,.143.412,1.514,1.514,0,0,0,.558.7l.247.165,5.072,3.154.1.063a1.58,1.58,0,0,0,2.041.022,1.1,1.1,0,0,0,.289-.516A1.261,1.261,0,0,0,69.938,241.283Z" transform="translate(-48.168 -228.147)" fill="#f0bd87"/><path d="M69.1,241.807a2.569,2.569,0,0,0-.66-.555l-3.588-2.393h-.02l-1.569-1.05c-.02,0-.02-.022-.041-.022a1.515,1.515,0,0,0-2,.453l-.02.02a1.614,1.614,0,0,0,.536,2.269l.453.228,3.836,1.959h.02a1.615,1.615,0,0,1,.247.143l.868.434a1.489,1.489,0,0,0,1.937-.145A.945.945,0,0,0,69.1,241.807Z" transform="translate(-49.311 -227.002)" fill="#f0bd87"/><path d="M67.391,241.74a1.608,1.608,0,0,0-.247-.143h-.02l-3.28-1.9H63.8l-1.566-.907-.143-.082a1.485,1.485,0,0,0-.662-.165,1.417,1.417,0,0,0-1.237.722,1.5,1.5,0,0,0,.289,1.855.117.117,0,0,0,.1.063.96.96,0,0,0,.247.184l5.259,2.228a1.407,1.407,0,0,0,1.794-.269C68.443,242.709,68.011,242.111,67.391,241.74Z" transform="translate(-50.406 -225.883)" fill="#f0bd87"/><path d="M74.788,239.863v-.022l-.041-.041a2.222,2.222,0,0,0-.184-.206H74.54l-.269-.267-.082-.063-.391-.349-.124-.124c0-.022,0-.022-.022-.022a16.82,16.82,0,0,0-2.536-2.267c-.247-.167-.495-.33-.742-.475a15.8,15.8,0,0,0-5.487-2.124,1.926,1.926,0,0,1-.308-.063h-.022a.088.088,0,0,1-.061-.019l-.1-.083-1.052-1.03H58.063l-2.31,2.267-.1.082a.245.245,0,0,0,.02.371l3.671,3.63h.022s.02,0,0,.022c.02.02.041.02.041.061a.165.165,0,0,1,0,.228,7.97,7.97,0,0,0,.742,2.083c.082.143.165.289.247.453a23.709,23.709,0,0,0,4.7,5.547l.434.412a.452.452,0,0,0,.124.082.117.117,0,0,0,.1.063,1.393,1.393,0,0,0,1.731-.288l.022-.022a1.368,1.368,0,0,0,.1-1.731l.165.143a1.546,1.546,0,0,0,.681.352,1.107,1.107,0,0,0,.514.061h.041a1.492,1.492,0,0,0,1.011-.473l.022-.043a1.439,1.439,0,0,0,.247-1.649A1.326,1.326,0,0,0,70,243.9l.267.228a1.686,1.686,0,0,0,.827.432h.02a1.592,1.592,0,0,0,1.4-.473l.02-.022a1.229,1.229,0,0,0,.247-.33,1.379,1.379,0,0,0,.041-1.239.809.809,0,0,0-.165-.349.02.02,0,0,0-.02-.022.294.294,0,0,0-.063-.08c0-.022,0-.022-.022-.022-.02-.02-.02-.041-.039-.061l-.1-.1a1.6,1.6,0,0,0,2.124.061.507.507,0,0,0,.124-.1l.02-.022A1.5,1.5,0,0,0,74.788,239.863Z" transform="translate(-55.575 -232.708)" fill="#ffc990"/></g><path d="M58.257,236.422l-1.4-.145-1.588-.145-11.075-1.009-.124-.022-.473-1.649-3.28-11.24h.022a18.226,18.226,0,0,0,5.608-.453,9.409,9.409,0,0,0,1.506-.371.117.117,0,0,0,.082-.022,28.031,28.031,0,0,0,3.816-1.4c.929-.412,1.835-.887,2.723-1.382l2.1,8.951.393,1.649.184.8Z" transform="translate(-35.009 -192.95)" fill="#ffc990"/><path d="M56.932,232.4c-.887.495-1.794.97-2.723,1.382a28.032,28.032,0,0,1-3.816,1.4.117.117,0,0,1-.082.022,9.414,9.414,0,0,1-1.506.371,18.227,18.227,0,0,1-5.608.453h-.022l-5.031-17.178c-1.011-5.278.948-9.858,2.846-11.487h.02a2.388,2.388,0,0,1,1.011-.6A33.588,33.588,0,0,1,53.94,221.945a41.809,41.809,0,0,1,1.464,4.042l1.093,4.619Z" transform="translate(-37.869 -206.767)" fill="#ededed"/></g><g transform="translate(0 71.513)"><path d="M55.844,301.21H57.2v-4.118H55.844a6.167,6.167,0,0,1-6.137-5.5l-7.721-65.212a11.038,11.038,0,0,0-10.91-9.732l-8.274-.028-.015,4.12,8.277.028a6.913,6.913,0,0,1,6.834,6.1l7.719,65.195A10.274,10.274,0,0,0,55.844,301.21Z" transform="translate(-3.971 -215.419)" fill="#c6c6c6"/><path d="M105.3,317.086h4.118V253.712H37.7v30.27h4.118V257.83H105.3Z" transform="translate(13.468 -172.038)" fill="#c6c6c6"/><path d="M43.4,227.891l5.842,51.2a5.433,5.433,0,0,0,5.4,4.816h53.512a9.245,9.245,0,0,1,9.244,9.244v.093H47.2a8.052,8.052,0,0,1-8-7.116l-7.637-65.058,2.7-.343A8.148,8.148,0,0,1,43.4,227.891Z" transform="translate(6.3 -210.69)" fill="#fec757"/><g transform="translate(110.695 126.049)"><g transform="translate(0 0)"><ellipse cx="15.794" cy="15.794" rx="15.794" ry="15.794" transform="translate(0 7.257) rotate(-13.283)" fill="#c6c6c6"/><path d="M82.92,279.906a12.044,12.044,0,1,1-12.043,12.043A12.056,12.056,0,0,1,82.92,279.906Zm0-4.7a16.743,16.743,0,1,0,16.744,16.742A16.742,16.742,0,0,0,82.92,275.207Z" transform="translate(-63.92 -272.949)" fill="#323031"/></g><path d="M72.9,281.93c-4.191,5.5,2.028,11.719,7.53,7.53C84.621,283.959,78.4,277.739,72.9,281.93Z" transform="translate(-57.666 -266.695)" fill="#706f6f"/></g><g transform="translate(1.805 58.943)"><rect width="95.471" height="3.115" transform="matrix(0.359, -0.933, 0.933, 0.359, 32.932, 95.366)" fill="#c6c6c6"/><rect width="3.115" height="95.471" transform="translate(30.715 8.384) rotate(-23.962)" fill="#c6c6c6"/><rect width="3.115" height="95.471" transform="matrix(0.359, -0.933, 0.933, 0.359, 6.413, 35.687)" fill="#c6c6c6"/><rect width="95.471" height="3.115" transform="matrix(0.914, -0.406, 0.406, 0.914, 7.27, 69.333)" fill="#c6c6c6"/><path d="M45.343,248.063a50.351,50.351,0,1,1-25.567,66.46A50.408,50.408,0,0,1,45.343,248.063Zm2.8,6.309a43.449,43.449,0,1,0,57.348,22.063A43.5,43.5,0,0,0,48.146,254.372Z" transform="translate(-14.368 -242.658)" fill="#c6c6c6"/><path d="M47.91,342.63a51.4,51.4,0,1,0,36.911-95.951,51.9,51.9,0,0,0-13.77-3.228A51.411,51.411,0,0,0,47.91,342.63ZM22.774,277.884a46.707,46.707,0,1,1,26.817,60.357A46.762,46.762,0,0,1,22.774,277.884Z" transform="translate(-14.946 -243.235)" fill="#262123"/><path d="M40.251,262.422a12.044,12.044,0,1,0,15.9,6.118A12.045,12.045,0,0,0,40.251,262.422Z" transform="translate(6.279 -222.011)" fill="#c6c6c6"/><path d="M39.29,264.87c-5.886,3.63-2.315,11.668,4.324,9.732C49.5,270.972,45.928,262.935,39.29,264.87Z" transform="translate(10.041 -218.279)" fill="#706f6f"/></g><rect width="23.713" height="6.863" rx="1.137" fill="#fec757"/></g></g></g><g transform="translate(-405 44)"><path d="M17,0H231a17,17,0,0,1,17,17V159a0,0,0,0,1,0,0H0a0,0,0,0,1,0,0V17A17,17,0,0,1,17,0Z" transform="translate(6622 927)" fill="#fff"/><g transform="translate(6616.111 921.341)"><path d="M237.327,16H22.869C10.259,16,0,25.3,0,36.742v152.11c0,11.437,10.259,20.742,22.869,20.742h79.649l-7.623,13.828H84.36c-4.21,0-7.623,3.1-7.623,6.914s3.413,6.914,7.623,6.914h91.475c4.21,0,7.623-3.1,7.623-6.914s-3.413-6.914-7.623-6.914H165.3l-7.623-13.828h79.649c12.61,0,22.869-9.3,22.869-20.742V36.742C260.2,25.3,249.937,16,237.327,16Z" transform="translate(0 -16)" fill="none" stroke="#28c76f" stroke-width="2"/><path d="M5.47,138.135H253.164" transform="translate(1.155 29.173)" fill="none" stroke="#28c76f" stroke-width="2"/></g><g transform="translate(6645.32 942.772)"><g transform="matrix(1, 0, 0, 1, -245.32, -50.77)" filter="url(#a)"><path d="M-1234.874,61.558a26.1,26.1,0,0,1,26.108,25.689,26.158,26.158,0,0,1-26.214,26.66,26.2,26.2,0,0,1-26.22-26.191A26.064,26.064,0,0,1-1234.874,61.558Zm19.05,31.508c-1.4-4.512-2.722-8.805-4.071-13.089-.921-2.926-.94-2.87-4.073-2.883a1.716,1.716,0,0,0-1.983,1.465c-1.157,4.06-2.433,8.086-3.658,12.127-.233.767-.442,1.54-.685,2.392h3.48c.284-.966.605-1.806.768-2.675.187-1,.628-1.475,1.69-1.313a5.014,5.014,0,0,0,1.5-.006c1.584-.245,2.558.28,2.685,1.983.138,1.871,1.231,2.414,2.938,2.126C-1216.854,93.128-1216.467,93.122-1215.823,93.066Zm-16.168-.053c-1.3-4.2-2.566-8.272-3.817-12.35-.431-1.407-1.607-.925-2.517-.966-.836-.038-1.714-.16-2.064,1.113-1.029,3.745-2.213,7.447-3.326,11.169a9.3,9.3,0,0,0-.194,1.058c2.554.295,2.665.325,3.345-2.158.523-1.9,1.926-.99,2.979-1.185a1.461,1.461,0,0,1,1.933,1.228C-1234.988,93.412-1234.923,93.4-1231.991,93.013Zm-21.27-.01c1.248.408,1.8.064,2.153-1.028a1.97,1.97,0,0,1,1.412-.928c.676-.1,1.614-.342,1.8.871.2,1.316,1.01,1.515,2.251,1.045l-2.772-8.886c-1.011.529-2.241.758-2.482,1.373C-1251.849,87.878-1252.487,90.427-1253.261,93Z" transform="translate(1656.48 -10.76)" fill="#008454"/></g><g transform="matrix(1, 0, 0, 1, -245.32, -50.77)" filter="url(#c)"><path d="M-1328.345,288.511a26.062,26.062,0,0,1,26.279,26.534,26.3,26.3,0,0,1-26.227,25.837,26.275,26.275,0,0,1-26.161-27.545C-1353.787,299.507-1342.035,288.266-1328.345,288.511Zm7.061,18.994c-2.954,1.717-5.737,3.309-8.48,4.971a1.558,1.558,0,0,0-.419,1.154q-.047,4.764,0,9.529a1.548,1.548,0,0,0,.447,1.152c2.74,1.649,5.521,3.228,8.447,4.917Zm-14.658,4.763c-.16-.474-.3-.832-.4-1.2a4.285,4.285,0,0,1,4.1-5.684c.822-.014,2.3-.7,2.386.863.087,1.649-1.442.561-2.137.933-.733.392-1.753.843-1.952,1.484a3.415,3.415,0,0,0,.405,2.749,2.8,2.8,0,0,0,2.48.576,18.721,18.721,0,0,0,3.665-1.956,1.2,1.2,0,0,0,.486-.626,4.608,4.608,0,0,0-4.1-6.146c-3.45-.133-6.913-.086-10.365.027a3.917,3.917,0,0,0-3.889,4.153c-.026,1.449.005,2.9,0,4.348-.009,3.779,2.466,5.578,6.206,4.466v-1.981c-.309-.1-.566-.193-.83-.26-2.968-.756-4.164-2.6-3.488-5.385a4.542,4.542,0,0,1,5.737-3.206,1.278,1.278,0,0,1,.737.982c-.01.274-.56.6-.934.762-.279.117-.657-.024-.991-.014a2.312,2.312,0,0,0-2.414,2.575,2.35,2.35,0,0,0,2.327,2.533C-1338,312.3-1337.076,312.268-1335.942,312.268Zm3.365.909c-1.309,0-2.36.016-3.411,0-1.552-.03-2.219.754-2.2,2.263.024,1.837-.1,3.683.056,5.507.07.83.519,2.193,1.027,2.311a16.113,16.113,0,0,0,4.259.032c.1,0,.257-.473.258-.727C-1332.572,319.508-1332.578,316.457-1332.578,313.177Zm18.833-3.319c-.282.232-.584.451-.85.707s-.506.557-.75.829c3.817,4.743,3.6,9.412-.045,14.069l1.47,1.394C-1309.207,322.695-1309.141,314.981-1313.745,309.858Zm-4.663,4.428c2.251,2.832,2.092,5.528,0,8.192l1.528,1.355a7.518,7.518,0,0,0-.024-10.907Z" transform="translate(1718.52 -161.69)" fill="#008454"/></g><g transform="matrix(1, 0, 0, 1, -245.32, -50.77)" filter="url(#e)"><path d="M-1575.8,287.733c13.75-.308,25.713,11.023,26.155,25.26A26.273,26.273,0,0,1-1576.1,340.08a26.3,26.3,0,0,1-25.929-25.958C-1602.117,298.637-1589.267,287.3-1575.8,287.733Zm6.52,24.163c0-2.229.032-4.459-.009-6.688a3.7,3.7,0,0,0-4-3.935c-2.062-.017-4.124-.021-6.186,0a3.525,3.525,0,0,0-3.709,3.641c-.027,4.626-.081,9.254.043,13.877.025.935.792,1.849,1.213,2.773a6.925,6.925,0,0,1,.978,2.264c.112,3.006.069,6.018.025,9.027a2.022,2.022,0,0,0,2.091,2.3,42.248,42.248,0,0,0,5.178-.026c1.442-.091,2.116-.919,2.078-2.458-.076-3.064-.054-6.131.021-9.2a5.174,5.174,0,0,1,.714-1.7,13.57,13.57,0,0,0,1.5-3.534A53.215,53.215,0,0,0-1569.281,311.9Zm-6.917-11.753a4.353,4.353,0,0,0,4.24-4.291,4.3,4.3,0,0,0-4.386-4.293,4.2,4.2,0,0,0-4.206,4.433A4.29,4.29,0,0,0-1576.2,300.143Z" transform="translate(1883.15 -161.17)" fill="#008454"/></g><g transform="matrix(1, 0, 0, 1, -245.32, -50.77)" filter="url(#g)"><path d="M-1682.605,61.483a26.137,26.137,0,0,1,26.128,26.83,26.065,26.065,0,0,1-26.479,25.5,26.116,26.116,0,0,1-25.938-26.448C-1708.6,72.828-1696.772,61.178-1682.605,61.483Zm6.923,21.083c-.159-6.5-5.1-12.2-12.285-12.057a11.174,11.174,0,0,0-10.711,7.271,11.268,11.268,0,0,0,2.154,12.615,11.387,11.387,0,0,0,12.5,3.3,1.828,1.828,0,0,1,2.181.544c2.4,2.489,4.893,4.89,7.29,7.382a2.1,2.1,0,0,0,2.827.466,6.387,6.387,0,0,0,3.576-3.978,2.474,2.474,0,0,0-.443-1.985c-2.437-2.607-4.971-5.124-7.5-7.639a1.656,1.656,0,0,1-.473-2.039A29.6,29.6,0,0,0-1675.682,82.566Z" transform="translate(1954.22 -10.71)" fill="#008454"/></g><g transform="matrix(1, 0, 0, 1, -245.32, -50.77)" filter="url(#i)"><path d="M-1423.433,88.412a25.992,25.992,0,0,1-26.223,26.3,25.848,25.848,0,0,1-26.181-26.491,25.919,25.919,0,0,1,26.46-25.9C-1435,62.412-1423.24,74.363-1423.433,88.412Zm-45.017-.613c3.1,4.953,8.475,9.314,13.439,10.813,9.676,2.922,18.668-2.142,23.726-10.076a1.436,1.436,0,0,0-.027-1.306c-4.037-5.373-9.3-8.848-16.058-9.492C-1456.3,76.886-1463.058,80.9-1468.45,87.8Z" transform="translate(1799.22 -11.27)" fill="#008454"/></g><path d="M-1227.372,138.45c-.393-1.315-.711-2.378-1.03-3.442l-.285.018c-.273,1.09-.547,2.179-.861,3.424Z" transform="translate(1390.11 -110.378)" fill="#008454"/><path d="M-1153.413,123.118l1.608-6.33.377-.056,1.8,6.386Z" transform="translate(1339.479 -98.224)" fill="#008454"/><path d="M-1195.447,123.053c.489,1.731.979,3.463,1.5,5.31h-3.225l1.367-5.236Z" transform="translate(1368.581 -102.428)" fill="#008454"/><path d="M-1227.372,138.45h-2.175c.313-1.245.587-2.335.861-3.424l.285-.018C-1228.083,136.072-1227.765,137.135-1227.372,138.45Z" transform="translate(1390.11 -110.378)" fill="#008454"/><path d="M-1528.353,329.015h1.368c.184,2.973.364,5.871.543,8.77a8.074,8.074,0,0,1,.085,2.479c-.153.568-.888.979-1.363,1.46-.444-.5-1.276-1-1.268-1.5.044-3.11.271-6.218.448-9.326C-1528.509,330.332-1528.429,329.763-1528.353,329.015Z" transform="translate(1589.254 -239.4)" fill="#008454"/><path d="M-1653.834,107.983a8.13,8.13,0,0,1-8.08,8.072,8.282,8.282,0,0,1-8.081-8.137,8.248,8.248,0,0,1,8.161-8.047A8.032,8.032,0,0,1-1653.834,107.983Z" transform="translate(1683.029 -87.01)" fill="#008454"/><path d="M-1442.388,124.481c8.007-9.267,20.532-10.088,29.263-1.037.56.58.852,1.047.19,1.822-3.936,4.61-8.653,7.746-14.944,7.551-4.675-.145-8.476-2.451-11.83-5.542C-1440.639,126.418-1441.464,125.45-1442.388,124.481Zm9.975-2.794a6.031,6.031,0,0,0,1.282,8.179,6.353,6.353,0,0,0,8.381-.424,6.352,6.352,0,0,0,.426-8.523,5.879,5.879,0,0,0-7.846-1.256l2.654,4.709-.31.2Z" transform="translate(1531.658 -98.452)" fill="#008454"/></g></g><rect width="260" height="7" rx="3.5" transform="translate(6211 1187)" fill="#d2dedb"/></g></svg>